<?xml version="1.0" encoding="UTF-8"?>
<svg id="Capa_1" data-name="Capa 1" xmlns="http://www.w3.org/2000/svg" xmlns:xlink="http://www.w3.org/1999/xlink" viewBox="0 0 1080 1080">
  <defs>
    <style>
      .cls-1 {
        fill: #fff;
      }

      .cls-2 {
        fill: none;
      }

      .cls-3 {
        clip-path: url(#clippath);
      }

      .cls-4 {
        fill: #fcd300;
      }
    </style>
    <clipPath id="clippath">
      <rect class="cls-2" x="482.28" y="222.4" width="383.18" height="162.96"/>
    </clipPath>
  </defs>
  <g>
    <path class="cls-4" d="M540,1053.52c-69.32,0-136.57-13.58-199.89-40.36-61.15-25.86-116.07-62.89-163.23-110.05-47.16-47.16-84.19-102.08-110.05-163.23-26.78-63.31-40.36-130.56-40.36-199.89s13.58-136.57,40.36-199.89c25.86-61.15,62.89-116.07,110.05-163.23,47.16-47.16,102.08-84.19,163.23-110.05,63.31-26.78,130.56-40.36,199.89-40.36s136.57,13.58,199.89,40.36c61.15,25.86,116.07,62.89,163.23,110.05s84.19,102.08,110.05,163.23c26.78,63.31,40.36,130.56,40.36,199.89s-13.58,136.57-40.36,199.89c-25.86,61.15-62.89,116.07-110.05,163.23s-102.08,84.19-163.23,110.05c-63.31,26.78-130.56,40.36-199.89,40.36Z"/>
    <path class="cls-1" d="M540,30.81c281.22,0,509.19,227.97,509.19,509.19s-227.97,509.19-509.19,509.19S30.81,821.22,30.81,540,258.78,30.81,540,30.81M540,22.15c-69.91,0-137.72,13.69-201.57,40.7-61.67,26.08-117.05,63.42-164.6,110.98-47.56,47.56-84.89,102.94-110.98,164.6-27.01,63.85-40.7,131.67-40.7,201.57s13.69,137.72,40.7,201.57c26.08,61.67,63.42,117.05,110.98,164.6s102.94,84.89,164.6,110.98c63.85,27.01,131.67,40.7,201.57,40.7s137.72-13.69,201.57-40.7c61.67-26.08,117.05-63.42,164.6-110.98s84.89-102.94,110.98-164.6c27.01-63.85,40.7-131.67,40.7-201.57s-13.69-137.72-40.7-201.57c-26.08-61.67-63.42-117.05-110.98-164.6-47.56-47.56-102.94-84.89-164.6-110.98-63.85-27.01-131.67-40.7-201.57-40.7h0Z"/>
  </g>
  <g>
    <g>
      <path class="cls-1" d="M310.32,433.86c-42.45,0-79.07-33.35-79.07-86.54s38.95-88.64,86.07-88.64c29.39,0,64.38,12.83,64.38,42.92,0,19.13-14.93,29.16-28.46,29.16s-25.66-9.33-22.63-28.22c2.1-14.46-3.5-29.39-17.26-29.39s-32.19,15.39-32.19,54.58,17.73,62.28,48.98,62.28c13.99,0,31.72-4.9,39.19-22.16,2.33-5.6,4.9-7.23,7.7-6.53,2.8.7,6.06,3.97,3.5,17.03-6.3,29.86-32.66,55.51-70.21,55.51Z"/>
      <path class="cls-1" d="M410.15,393.74v-94.93c0-7.46-2.57-16.56-6.53-24.26-3.73-8.63-1.87-13.3,6.53-13.53h51.31c8.4.23,10.26,4.9,6.53,13.53-3.97,7.7-6.53,16.79-6.53,24.26v94.93c0,7.46,2.57,16.56,6.53,24.26,3.73,8.63,1.87,13.3-6.53,13.53h-51.31c-8.4-.23-10.26-4.9-6.53-13.53,3.97-7.7,6.53-16.79,6.53-24.26Z"/>
      <g>
        <path class="cls-1" d="M422.95,457.36c8.63.23,10.5,4.9,6.53,13.53-3.73,7.7-6.53,16.79-6.53,24.26v94.93c0,7.46,2.8,16.56,6.53,24.26,3.96,8.63,2.1,13.3-6.53,13.53h-51.08c-8.4-.23-10.5-4.9-6.53-13.53,3.96-7.7,6.53-16.79,6.53-24.26v-87.94l-39.89,114.06c-3.03,8.16-9.33,11.66-18.19,11.66s-14.93-3.03-17.73-10.96l-36.85-104.73v77.91c0,7.46,7.46,16.56,11.43,24.26,3.97,8.63,1.87,13.3-6.53,13.53h-24.49c-8.4-.23-10.26-4.9-6.53-13.53,3.97-7.7,11.43-16.79,11.43-24.26v-94.93c0-7.46-7.46-16.56-11.43-24.26-3.73-8.63-1.87-13.3,6.53-13.53h42.45c7.23,0,13.53,4.66,16.09,11.43l34.75,100.53,34.99-100.53c2.57-6.76,8.86-11.43,16.09-11.43h38.95Z"/>
        <path class="cls-1" d="M460.5,590.08v-94.93c0-7.46-2.57-16.56-6.53-24.26-3.73-8.63-1.87-13.3,6.53-13.53h51.31c8.4.23,10.26,4.9,6.53,13.53-3.97,7.7-6.53,16.79-6.53,24.26v94.93c0,7.46,2.57,16.56,6.53,24.26,3.73,8.63,1.87,13.3-6.53,13.53h-51.31c-8.4-.23-10.26-4.9-6.53-13.53,3.97-7.7,6.53-16.79,6.53-24.26Z"/>
        <path class="cls-1" d="M600.45,613.18h24.03c28.46,0,28.92-26.36,40.35-31.96,1.17-.47,2.1-.7,3.27-.7,3.5,0,6.3,2.8,6.3,9.33v31.49c0,3.73-2.57,6.53-6.53,6.53h-118.49c-8.63,0-10.73-4.9-6.53-13.53,3.5-7.7,6.53-16.79,6.53-24.26v-94.93c0-7.46-3.03-16.56-6.53-24.26-4.2-8.63-2.1-13.53,6.53-13.53h118.49c3.97,0,6.53,2.8,6.53,6.53v31.49c0,6.53-2.8,9.33-6.3,9.33-1.17,0-2.1-.23-3.27-.7-11.43-5.6-11.9-31.96-40.35-31.96h-24.03v63.21h19.59c7.46,0,16.56-5.36,22.86-10.26,4.2-3.27,7-4.66,8.86-4.66,2.57,0,3.5,2.8,3.5,7.7v29.16c0,4.9-.93,7.7-3.5,7.7-1.87,0-4.66-1.4-8.86-4.67-6.3-4.9-15.39-10.26-22.86-10.26h-19.59v63.21Z"/>
        <path class="cls-1" d="M794.05,627.87c-7.46,0-14.46-4.43-17.49-10.96l-54.35-113.13v86.3c0,7.46,7.46,16.56,11.43,24.26,3.97,8.63,1.87,13.3-6.53,13.53h-24.49c-8.4-.23-10.26-4.9-6.53-13.53,3.97-7.7,11.43-16.79,11.43-24.26v-94.93c0-7.46-7.46-16.56-11.43-24.26-3.27-7.7-2.1-13.53,4.2-13.53h44.32c7.23,0,14.46,4.43,17.49,10.96l58.78,122.22v-95.4c0-7.46-7.7-16.56-11.43-24.26-3.97-8.63-2.1-13.3,6.53-13.53h24.26c8.63.23,10.5,4.9,6.53,13.53-3.73,7.7-11.43,16.79-11.43,24.26v120.59c0,7.23-4.9,12.13-12.13,12.13h-29.16Z"/>
      </g>
      <g>
        <path class="cls-1" d="M290.56,667.73c-33.81,0-34.09,28.54-47.67,35.19-1.39.55-2.77.83-4.16.83-4.16,0-7.48-3.33-7.48-11.09v-34.64c0-4.43,3.33-7.76,7.76-7.76h175.42c4.43,0,7.76,3.32,7.76,7.76v34.64c0,7.76-3.33,11.09-7.48,11.09-1.39,0-2.77-.28-4.16-.83-13.58-6.65-13.86-35.19-47.67-35.19h-5.82v140.23c0,8.87,3.6,19.68,7.76,28.82,4.99,10.25,2.49,16.07-7.76,16.07h-60.69c-10.25,0-12.75-5.82-7.76-16.07,4.16-9.15,7.76-19.95,7.76-28.82v-140.23h-5.82Z"/>
        <path class="cls-1" d="M541.91,647.5c56.53,0,102.82,39.63,102.82,104.2s-46.28,103.92-102.82,103.92-103.37-39.63-103.37-103.92,46.28-104.2,103.37-104.2ZM541.91,838.44c22.45,0,40.74-18.29,40.74-86.74s-18.29-87.02-40.74-87.02-41.29,18.29-41.29,87.02,18.57,86.74,41.29,86.74Z"/>
        <path class="cls-1" d="M784.4,816.82c0-29.65-116.67-42.12-116.67-106.42,0-34.09,32.7-62.91,80.09-62.91,31.87,0,80.65,13.02,80.65,46.56,0,18.01-14.13,32.98-31.87,32.98-15.24,0-26.33-10.81-26.33-31.32,0-17.74-8.59-31.04-21.89-31.04-14.41,0-22.72,15.52-22.72,26.6,0,41.29,109.19,37.97,109.19,104.2,0,35.47-31.04,60.14-82.31,60.14-44.62,0-85.36-18.57-85.36-47.67,0-17.18,14.13-32.15,32.15-32.15,14.96,0,26.33,10.81,26.33,26.6,0,9.98-4.43,36.03,24.39,36.03,17.46,0,34.36-10.25,34.36-21.62Z"/>
      </g>
    </g>
    <g>
      <rect class="cls-1" x="498.99" y="379.49" width="353.26" height="10.64"/>
      <rect class="cls-1" x="498.99" y="422.97" width="353.26" height="10.64"/>
      <g>
        <g>
          <path class="cls-1" d="M852.02,406.56l-13.56,13.56-13.56-13.56,13.56-13.56,13.56,13.56ZM838.46,417.45l10.89-10.89-10.89-10.89-10.89,10.89,10.89,10.89Z"/>
          <path class="cls-1" d="M845.72,406.56l-7.27,7.27-7.27-7.27,7.27-7.27,7.27,7.27ZM838.46,411.15l4.59-4.59-4.59-4.59-4.59,4.59,4.59,4.59Z"/>
        </g>
        <g>
          <path class="cls-1" d="M824.9,406.56l-13.56,13.56-13.56-13.56,13.56-13.56,13.56,13.56ZM811.34,417.45l10.89-10.89-10.89-10.89-10.89,10.89,10.89,10.89Z"/>
          <path class="cls-1" d="M818.6,406.56l-7.27,7.27-7.27-7.27,7.27-7.27,7.27,7.27ZM811.34,411.15l4.59-4.59-4.59-4.59-4.59,4.59,4.59,4.59Z"/>
        </g>
        <g>
          <path class="cls-1" d="M797.78,406.56l-13.56,13.56-13.56-13.56,13.56-13.56,13.56,13.56ZM784.22,417.45l10.89-10.89-10.89-10.89-10.89,10.89,10.89,10.89Z"/>
          <path class="cls-1" d="M791.48,406.56l-7.27,7.27-7.27-7.27,7.27-7.27,7.27,7.27ZM784.22,411.15l4.59-4.59-4.59-4.59-4.59,4.59,4.59,4.59Z"/>
        </g>
        <g>
          <path class="cls-1" d="M770.65,406.56l-13.56,13.56-13.56-13.56,13.56-13.56,13.56,13.56ZM757.09,417.45l10.89-10.89-10.89-10.89-10.89,10.89,10.89,10.89Z"/>
          <path class="cls-1" d="M764.36,406.56l-7.27,7.27-7.27-7.27,7.27-7.27,7.27,7.27ZM757.09,411.15l4.59-4.59-4.59-4.59-4.59,4.59,4.59,4.59Z"/>
        </g>
        <g>
          <path class="cls-1" d="M743.53,406.56l-13.56,13.56-13.56-13.56,13.56-13.56,13.56,13.56ZM729.97,417.45l10.89-10.89-10.89-10.89-10.89,10.89,10.89,10.89Z"/>
          <path class="cls-1" d="M737.24,406.56l-7.27,7.27-7.27-7.27,7.27-7.27,7.27,7.27ZM729.97,411.15l4.59-4.59-4.59-4.59-4.59,4.59,4.59,4.59Z"/>
        </g>
        <g>
          <path class="cls-1" d="M716.41,406.56l-13.56,13.56-13.56-13.56,13.56-13.56,13.56,13.56ZM702.85,417.45l10.89-10.89-10.89-10.89-10.89,10.89,10.89,10.89Z"/>
          <path class="cls-1" d="M710.12,406.56l-7.27,7.27-7.27-7.27,7.27-7.27,7.27,7.27ZM702.85,411.15l4.59-4.59-4.59-4.59-4.59,4.59,4.59,4.59Z"/>
        </g>
        <g>
          <path class="cls-1" d="M689.29,406.56l-13.56,13.56-13.56-13.56,13.56-13.56,13.56,13.56ZM675.73,417.45l10.89-10.89-10.89-10.89-10.89,10.89,10.89,10.89Z"/>
          <path class="cls-1" d="M683,406.56l-7.27,7.27-7.27-7.27,7.27-7.27,7.27,7.27ZM675.73,411.15l4.59-4.59-4.59-4.59-4.59,4.59,4.59,4.59Z"/>
        </g>
        <g>
          <path class="cls-1" d="M662.17,406.56l-13.56,13.56-13.56-13.56,13.56-13.56,13.56,13.56ZM648.61,417.45l10.89-10.89-10.89-10.89-10.89,10.89,10.89,10.89Z"/>
          <path class="cls-1" d="M655.88,406.56l-7.27,7.27-7.27-7.27,7.27-7.27,7.27,7.27ZM648.61,411.15l4.59-4.59-4.59-4.59-4.59,4.59,4.59,4.59Z"/>
        </g>
        <g>
          <path class="cls-1" d="M635.05,406.56l-13.56,13.56-13.56-13.56,13.56-13.56,13.56,13.56ZM621.49,417.45l10.89-10.89-10.89-10.89-10.89,10.89,10.89,10.89Z"/>
          <path class="cls-1" d="M628.76,406.56l-7.27,7.27-7.27-7.27,7.27-7.27,7.27,7.27ZM621.49,411.15l4.59-4.59-4.59-4.59-4.59,4.59,4.59,4.59Z"/>
        </g>
        <g>
          <path class="cls-1" d="M607.93,406.56l-13.56,13.56-13.56-13.56,13.56-13.56,13.56,13.56ZM594.37,417.45l10.89-10.89-10.89-10.89-10.89,10.89,10.89,10.89Z"/>
          <path class="cls-1" d="M601.64,406.56l-7.27,7.27-7.27-7.27,7.27-7.27,7.27,7.27ZM594.37,411.15l4.59-4.59-4.59-4.59-4.59,4.59,4.59,4.59Z"/>
        </g>
        <g>
          <path class="cls-1" d="M580.81,406.56l-13.56,13.56-13.56-13.56,13.56-13.56,13.56,13.56ZM567.25,417.45l10.89-10.89-10.89-10.89-10.89,10.89,10.89,10.89Z"/>
          <path class="cls-1" d="M574.52,406.56l-7.27,7.27-7.27-7.27,7.27-7.27,7.27,7.27ZM567.25,411.15l4.59-4.59-4.59-4.59-4.59,4.59,4.59,4.59Z"/>
        </g>
        <g>
          <path class="cls-1" d="M553.69,406.56l-13.56,13.56-13.56-13.56,13.56-13.56,13.56,13.56ZM540.13,417.45l10.89-10.89-10.89-10.89-10.89,10.89,10.89,10.89Z"/>
          <path class="cls-1" d="M547.4,406.56l-7.27,7.27-7.27-7.27,7.27-7.27,7.27,7.27ZM540.13,411.15l4.59-4.59-4.59-4.59-4.59,4.59,4.59,4.59Z"/>
        </g>
        <g>
          <polygon class="cls-1" points="547.79 420.29 550.47 420.29 554.09 416.67 557.71 420.29 560.38 420.29 554.09 413.99 547.79 420.29"/>
          <polygon class="cls-1" points="520.28 420.29 522.95 420.29 526.57 416.67 530.19 420.29 532.86 420.29 526.57 413.99 520.28 420.29"/>
          <polygon class="cls-1" points="574.52 420.29 577.19 420.29 580.81 416.67 584.43 420.29 587.11 420.29 580.81 413.99 574.52 420.29"/>
          <polyline class="cls-1" points="608.33 416.67 611.95 420.29 614.62 420.29 608.33 413.99 602.03 420.29 604.71 420.29"/>
          <polygon class="cls-1" points="628.76 420.29 631.43 420.29 635.05 416.67 638.67 420.29 641.35 420.29 635.05 413.99 628.76 420.29"/>
          <polygon class="cls-1" points="656.08 420.29 658.75 420.29 662.37 416.67 665.99 420.29 668.67 420.29 662.37 413.99 656.08 420.29"/>
          <polygon class="cls-1" points="682.8 420.29 685.47 420.29 689.09 416.67 692.72 420.29 695.39 420.29 689.09 413.99 682.8 420.29"/>
          <polygon class="cls-1" points="710.32 420.29 712.99 420.29 716.61 416.67 720.23 420.29 722.91 420.29 716.61 413.99 710.32 420.29"/>
          <polygon class="cls-1" points="737.04 420.29 739.71 420.29 743.34 416.67 746.96 420.29 749.63 420.29 743.34 413.99 737.04 420.29"/>
          <polygon class="cls-1" points="764.56 420.29 767.23 420.29 770.85 416.67 774.47 420.29 777.15 420.29 770.85 413.99 764.56 420.29"/>
          <polygon class="cls-1" points="791.28 420.29 793.96 420.29 797.58 416.67 801.2 420.29 803.87 420.29 797.58 413.99 791.28 420.29"/>
          <polygon class="cls-1" points="818.8 420.29 821.47 420.29 825.09 416.67 828.72 420.29 831.39 420.29 825.09 413.99 818.8 420.29"/>
        </g>
        <g>
          <polygon class="cls-1" points="547.79 392.89 550.47 392.89 554.09 396.51 557.71 392.89 560.38 392.89 554.09 399.18 547.79 392.89"/>
          <polygon class="cls-1" points="520.28 392.89 522.95 392.89 526.57 396.51 530.19 392.89 532.86 392.89 526.57 399.18 520.28 392.89"/>
          <polygon class="cls-1" points="574.52 392.89 577.19 392.89 580.81 396.51 584.43 392.89 587.11 392.89 580.81 399.18 574.52 392.89"/>
          <polygon class="cls-1" points="602.03 392.89 604.71 392.89 608.33 396.51 611.95 392.89 614.62 392.89 608.33 399.18 602.03 392.89"/>
          <polygon class="cls-1" points="628.76 392.89 631.43 392.89 635.05 396.51 638.67 392.89 641.35 392.89 635.05 399.18 628.76 392.89"/>
          <polyline class="cls-1" points="665.99 392.89 668.67 392.89 662.37 399.18 656.08 392.89 658.75 392.89 662.37 396.51"/>
          <polygon class="cls-1" points="682.8 392.89 685.47 392.89 689.09 396.51 692.72 392.89 695.39 392.89 689.09 399.18 682.8 392.89"/>
          <polygon class="cls-1" points="710.32 392.89 712.99 392.89 716.61 396.51 720.23 392.89 722.91 392.89 716.61 399.18 710.32 392.89"/>
          <polygon class="cls-1" points="737.04 392.89 739.71 392.89 743.34 396.51 746.96 392.89 749.63 392.89 743.34 399.18 737.04 392.89"/>
          <polygon class="cls-1" points="764.56 392.89 767.23 392.89 770.85 396.51 774.47 392.89 777.15 392.89 770.85 399.18 764.56 392.89"/>
          <polygon class="cls-1" points="791.28 392.89 793.96 392.89 797.58 396.51 801.2 392.89 803.87 392.89 797.58 399.18 791.28 392.89"/>
          <polygon class="cls-1" points="818.8 392.89 821.47 392.89 825.09 396.51 828.72 392.89 831.39 392.89 825.09 399.18 818.8 392.89"/>
        </g>
        <g>
          <path class="cls-1" d="M526.57,406.56l-13.56,13.56-13.56-13.56,13.56-13.56,13.56,13.56ZM513.01,417.45l10.89-10.89-10.89-10.89-10.89,10.89,10.89,10.89Z"/>
          <path class="cls-1" d="M520.28,406.56l-7.27,7.27-7.27-7.27,7.27-7.27,7.27,7.27ZM513.01,411.15l4.59-4.59-4.59-4.59-4.59,4.59,4.59,4.59Z"/>
        </g>
      </g>
    </g>
    <g class="cls-3">
      <g>
        <path class="cls-1" d="M568.93,309.64c-8.46,1.57-17.14,4.58-22.73,11.11-3.47,4.05-5.4,9.03-6.68,14.26-.51-4.53-1.47-8.95-3.58-12.96-4.3-8.13-12.92-13.35-21.91-15.26-8.99-1.91-18.36-.87-27.35,1.04,4.31,1.35,7.4,5.26,9.1,9.45,1.7,4.19,2.25,8.73,3.17,13.16.92,4.42,2.29,8.93,5.29,12.31,4.24,4.8,11.12,6.55,17.5,6.06,5.21-.4,10.2-2.09,15.08-4,0,.07,0,.13,0,.2.05,2.47.76,4.88,1.33,7.28,2.93,12.35,2.34,25.52-1.68,37.55,2.09,2.04,4.85,4.24,7.62,3.3,3.07-1.05,3.66-5.06,3.72-8.31.15-8.02.29-16.07-.76-24.02-.81-6.15-2.37-12.27-5.07-17.83,4.75-1.67,10.37-1.26,15.51-.6,6.83.88,14.3,1.83,20.16-1.8,3.52-2.18,5.96-5.8,7.41-9.67,1.63-4.38,2.08-9.1,3.07-13.67.99-4.57,2.67-9.22,6.15-12.35-8.16,2.72-16.88,3.16-25.33,4.73ZM524.15,337.72c-5.17.81-10.63-.18-15.16-2.81,4.24.18,8.48.35,12.72.53-1.08-1.11-2.09-2.29-3.02-3.49-.63-.81-1.23-1.65-1.82-2.49-.03,0-.07.01-.1.02-4.32.55-8.83-.67-12.3-3.3,3.56.26,7.12.52,10.68.78-3.11-4.63-6.09-9.35-10.23-13.06,4.49,1.55,7.44,5.45,10.32,9.37-.29-3.22-.58-6.44-.87-9.66,1.48.95,3.31,10.53,3.45,13.09.07.09.14.18.2.26,2.14,2.66,4.59,5.01,7.21,7.18-.52-1.43-.86-2.93-1.03-4.44-.36-3.31-.02-6.64.33-9.95.82,4.07,1.63,8.14,2.44,12.22.28,1.37.54,2.75.74,4.14,3.18,2.42,6.54,4.63,9.88,6.82-4.97.29-9.56-1.95-13.43-5.22ZM571.14,326.99c-2.02,1.26-4.16,2.29-6.33,3.25,4.27-.11,8.12-.91,12.98-2.45-1.82,2.35-4.76,3.62-7.7,4.02-2.76.37-5.55.07-8.32-.28-1.18.49-2.36.98-3.53,1.48-1.67.72-3.33,1.49-4.96,2.3,6.3.97,12.72,1.17,19.07.6-6.09,1.77-12.59,3.54-18.67,1.76-.86-.25-1.8-.71-2.36-1.36-3.97,2.06-7.81,4.37-11.49,6.92,1.53-2.08,3.34-3.86,5.33-5.43,3.46-4.87,6.92-9.73,10.38-14.6-1.68,4.38-3.86,8.73-6.95,12.2,3.21-2.02,6.73-3.7,10.29-5.33,3.19-3.66,5.78-7.86,7.59-12.36.46,2.79-.63,5.66-2.35,7.91-.32.42-1.24,1.83-2.04,2.98,6.83-3.15,13.51-6.51,18.1-12.25-1.39,4.55-4.98,8.14-9.01,10.66Z"/>
        <path class="cls-1" d="M840.13,309.64c-8.46,1.57-17.14,4.58-22.73,11.11-3.47,4.05-5.4,9.03-6.68,14.26-.51-4.53-1.47-8.95-3.58-12.96-4.3-8.13-12.92-13.35-21.91-15.26-8.99-1.91-18.36-.87-27.35,1.04,4.31,1.35,7.4,5.26,9.1,9.45,1.7,4.19,2.25,8.73,3.17,13.16.92,4.42,2.29,8.93,5.29,12.31,4.24,4.8,11.12,6.55,17.5,6.06,5.21-.4,10.2-2.09,15.08-4,0,.07,0,.13,0,.2.05,2.47.76,4.88,1.33,7.28,2.93,12.35,2.34,25.52-1.68,37.55,2.09,2.04,4.85,4.24,7.62,3.3,3.07-1.05,3.66-5.06,3.72-8.31.15-8.02.29-16.07-.76-24.02-.81-6.15-2.37-12.27-5.07-17.83,4.75-1.67,10.37-1.26,15.51-.6,6.83.88,14.3,1.83,20.16-1.8,3.52-2.18,5.96-5.8,7.41-9.67,1.63-4.38,2.08-9.1,3.07-13.67.99-4.57,2.67-9.22,6.15-12.35-8.16,2.72-16.88,3.16-25.33,4.73ZM795.35,337.72c-5.17.81-10.63-.18-15.16-2.81,4.24.18,8.48.35,12.72.53-1.08-1.11-2.09-2.29-3.02-3.49-.63-.81-1.23-1.65-1.82-2.49-.03,0-.07.01-.1.02-4.32.55-8.83-.67-12.3-3.3,3.56.26,7.12.52,10.68.78-3.11-4.63-6.09-9.35-10.23-13.06,4.49,1.55,7.44,5.45,10.32,9.37-.29-3.22-.58-6.44-.87-9.66,1.48.95,3.31,10.53,3.45,13.09.07.09.14.18.2.26,2.14,2.66,4.59,5.01,7.21,7.18-.52-1.43-.86-2.93-1.03-4.44-.36-3.31-.02-6.64.33-9.95.82,4.07,1.63,8.14,2.44,12.22.28,1.37.54,2.75.74,4.14,3.18,2.42,6.54,4.63,9.88,6.82-4.97.29-9.56-1.95-13.43-5.22ZM842.35,326.99c-2.02,1.26-4.16,2.29-6.33,3.25,4.27-.11,8.12-.91,12.98-2.45-1.82,2.35-4.76,3.62-7.7,4.02-2.76.37-5.55.07-8.32-.28-1.18.49-2.36.98-3.53,1.48-1.67.72-3.33,1.49-4.96,2.3,6.3.97,12.72,1.17,19.07.6-6.09,1.77-12.59,3.54-18.67,1.76-.86-.25-1.8-.71-2.36-1.36-3.97,2.06-7.81,4.37-11.49,6.92,1.53-2.08,3.34-3.86,5.33-5.43,3.46-4.87,6.92-9.73,10.38-14.6-1.68,4.38-3.86,8.73-6.95,12.2,3.21-2.02,6.73-3.7,10.29-5.33,3.19-3.66,5.78-7.86,7.59-12.36.46,2.79-.63,5.66-2.35,7.91-.32.42-1.24,1.83-2.04,2.98,6.83-3.15,13.51-6.51,18.1-12.25-1.39,4.55-4.98,8.14-9.01,10.66Z"/>
        <path class="cls-1" d="M737.44,288.86c-9.69-.6-19.55,2.42-27.26,8.32-7.02,5.38-12.17,13.12-14.5,21.65-4.13,2.26-8.01,5.06-11.6,8.09-3.34,2.82-6.55,5.9-8.83,9.64-.37-8.81-1.07-19.79-1.52-31.63,4.07-5.1,8.33-10.05,12.77-14.84,2.97-.17,6.22.55,9.24.72,10.24.59,19.88-5.87,25.75-14.28,5.87-8.41,8.61-18.56,10.93-28.54-9.87-.47-20.3-.81-29,3.87-6.89,3.71-11.92,10.26-15.2,17.37-2.67,5.76-4.3,11.91-5.73,18.1-1.25,1.03-2.49,2.06-3.73,3.1-1.81,1.51-3.64,3.07-5.34,4.73-.24-10.63-.17-21.63.61-32.12,7.99.47,16.14-2.46,21.95-7.97,6.05-5.74,9.47-14.16,9.13-22.49-6.02,4.81-13.85,6.84-20.09,11.36-4.77,3.45-8.46,8.35-10.54,13.85.03-.31.06-.62.1-.94,1.56-5.73,2.97-15.11-1.76-22.11-4.17-6.17-11.73-9.37-19.11-10.37.79,5.15,1.57,10.31,2.36,15.46.5,3.31.97,6.66,2.2,9.77,3.15,7.93,13.17,11.85,14.44,12.31-2.18,9.64-3.36,19.7-4.08,29.81-.64-1.21-1.36-2.38-2.11-3.52-2.35-3.59-4.96-6.99-7.79-10.21,1.37-7.98,1.95-16.19-1.45-23.38-3.39-7.16-10.29-12.12-17.63-15.09-7.34-2.97-15.24-4.22-22.97-5.93-.25,8.92-.37,17.99,2.03,26.58,2.4,8.6,7.7,16.79,15.75,20.64,6.84,3.28,14.73,3.1,22.33,2.72,3.88,6,7.64,12.09,11.26,18.24-.31,6.83-.49,13.63-.69,20.28-.11,3.55-.2,6.8-.28,9.8-3.79-3.47-9.28-8.21-13.32-11-.25-5.68-.8-11.37-2.49-16.78-2.07-6.63-6.03-12.91-11.99-16.48-12.54-7.51-29.38-1.14-42.83-6.85.62,7.31,1.73,14.64,4.33,21.5,2.6,6.86,6.78,13.25,12.7,17.59,5.64,4.13,12.62,6.21,19.59,6.74,6.16.47,12.35-.23,18.43-1.4,5.32,4.87,10.44,10.09,15.37,15.25-.43,19.35-.27,26.86-.55,43.25,2.37-.27,11.82-.16,14.19,0-2.53-13.24-4.03-26.61-4.82-39.09,6.21-8.04,13.47-15.27,21.53-21.46,5.93,4.76,12.91,8.31,20.41,9.4,8.43,1.23,17.52-.9,23.8-6.66,10.38-9.53,10.95-26.01,19.78-36.98-7.35,3.23-15.76.45-23.77-.05ZM691.74,282.9c.14-.14.33-.27.53-.39,3.12-5.54,5.19-11.68,6.01-17.98-.2,3.6.09,7.25-.64,10.78-.33,1.62-.93,3.23-1.8,4.64,2.29-1.76,4.54-3.68,6.73-5.68.6-1.47,1.15-3.18,1.43-4.25,1.23-4.83,2.03-7.91,3.01-12.96.35,5.08-.15,8.11-.64,11.6-.13.94-.32,1.78-.56,2.55,5.83-5.67,11.21-11.84,15.86-17.45-2.37,5.5-7.03,11.78-12.46,17.48,4.34-1.06,8.28-2.59,12.59-5.68-3.75,5.15-8.63,7.23-14.73,7.86-2.8,2.77-5.75,5.35-8.65,7.57,2.39-.25,4.97-.29,6.99-.15,2.64.18,6.72-.14,8.81-1.56-2.2,3.05-5.96,4.83-12.53,4.13-1.21-.13-3.84-.26-6.1-.35-.13.09-.26.18-.39.27-2.71,1.84-5.88,2.87-9.16,3.03h-.04c1.93-1.01,3.84-2.18,5.74-3.46ZM683.28,255.11c1.74-3.34,3.01-6.08,4.1-10.68.4,3.65-.78,6.62-1.82,8.73,4.6-4.07,8.83-8.55,12.6-13.41-2.52,5.73-6.46,10.8-11.31,14.75.61-.22,1.22-.45,1.82-.67,2.43-.89,4.94-1.83,6.76-3.66-1.91,3.72-6.21,6.01-10.36,5.7-2.95,2.14-6.18,3.89-9.61,5.13,2.7-1.83,5.3-3.8,7.81-5.89ZM671.27,257.15c-.54-2.1-1.19-4.18-1.89-6.25-3.58-2.13-8.71-6.83-9.77-9.03,3.24,2.49,5.93,4.56,9.01,6.93-2.09-5.68-4.68-11.22-7.39-16.56.38.58,3.03,3.41,4.82,7.05,1.51,3.09,3.21,6.15,4.3,9.29.63-3.8.78-7.68.46-11.52,1.33,3.27,1.16,9.58.09,13.28.58,2.21.8,4.46.39,6.81ZM649.94,274.38c-4.03.09-11.56-.07-13.55-.54-2.18-.52-6.08-1.73-8.35-4.03,6.21,1.81,12.76,2.43,19.2,1.87-1.39-1.45-2.81-3.01-4.22-4.63-3.8-.18-8.08-.51-9.5-.9-2.17-.6-6.01-1.96-8.19-4.33,4.98,1.66,10.2,2.49,15.45,2.59-1.02-1.24-2.03-2.5-3.01-3.77-5.58-1.13-10.85-3.82-14.97-7.76,4.14,1.47,8.29,2.93,12.43,4.4-3.64-5-6.69-9.87-8.34-13.61,2.68,2.82,6.27,6.95,10.05,11.49-.1-.79-.16-1.6-.16-2.4,0-3.37.15-6.84.94-10.07.35,4.9.71,9.79,1.06,14.69,1.28,1.55,2.56,3.14,3.82,4.72-.02-.34-.04-.7-.04-1.09,0-3.37-.52-9.37,1-12.36.39,5.37.77,10.74,1.16,16.11,1.5,1.91,2.94,3.78,4.28,5.55,0-.14.02-.29.03-.43.51-5.16,1.03-10.32,1.54-15.49,1.43,5.8,1.35,11.96-.22,17.72,1.9,2.56,3.51,4.85,4.66,6.63-1.56-1.15-3.27-2.64-5.07-4.36ZM649.99,321.98c-1.71-.33-3.34-.94-4.83-1.83-.8-.48-1.63-.99-2.47-1.52-7.9,2.27-16.55,1.85-24.19-1.19,6.98.18,13.24.66,21.22-.72-2.4-1.58-4.86-3.27-7.25-4.95-3.57.21-7.15.38-10.7.03-3.84-.38-7.68-1.42-10.9-3.53,5.71.68,11.49,1.37,17.2.65.12-.01.23-.03.35-.04-1.84-1.33-3.57-2.59-5.09-3.72-1.2-.89-2.4-1.8-3.57-2.75-5.6.72-11.54.33-16.2-2.79,5.45,1.22,8.99.96,13.55.55-3.47-3.08-6.57-6.53-8.71-10.62,3.85,3.2,7.38,5.99,10.67,8.51-.57-2.5-1.37-6.88-.86-9.51,1.11,3.79,2.22,7.59,3.33,11.38,2.62,1.97,5.09,3.79,7.46,5.52-1.23-6-1.61-10.35-.55-14.17,1.14,6.2,1.19,10.36,3.29,16.17,2.95,2.16,5.77,4.23,8.56,6.4-.97-5.85-1.66-11.77-.68-17.58.18,6.66,2.32,13.72,4.04,20.25,2.11,1.71,4.22,3.51,6.38,5.48h-.03ZM732.19,308.85c4.45-.65,8.51-.13,14.36-.9-5.7,3.08-12.6,3.53-18.74,3.49-1.83,1.02-3.68,2-5.54,2.9,5.3,2.16,10.46,3.39,16.52,5.2-8.46.41-13.3-1.13-18.99-4.03-2.37,1.09-4.72,2.06-7,2.89,2.49.89,4.76,2.5,6.98,4.01,2.95,2.03,6.99,3.02,9.8,3.94-7.18.44-14.5-2.12-19.85-6.93-3.3.91-6.78.97-10.13.19h-.05c3.12-.67,6.28-1.59,9.47-2.72,2.95-4.63,5.12-9.76,6.36-15.1.51,3.99-.37,6.65-1.18,9.86-.35,1.41-.98,2.81-1.84,3.99,2.18-.87,4.35-1.82,6.52-2.84,2.24-5.29,3.58-10.96,3.92-16.69,1.22,3.99.78,6.86.52,10.28-.14,1.72-.63,3.5-1.51,4.99.97-.48,1.93-.98,2.9-1.49,3.23-4.21,6.06-8.73,8.43-13.49.06,3.18-1.37,7.16-2.91,9.94-.15.27-.31.53-.47.78,7-3.98,13.68-8.36,19.64-12.45-3.96,4.86-10.22,9.84-17.19,14.17Z"/>
      </g>
    </g>
  </g>
</svg>