<?xml version="1.0" encoding="UTF-8"?>
<svg id="Capa_1" data-name="Capa 1" xmlns="http://www.w3.org/2000/svg" viewBox="0 0 1920 1080">
  <defs>
    <style>
      .cls-1 {
        fill: #fff;
      }

      .cls-2 {
        fill: #603813;
      }

      .cls-3 {
        fill: #ff7bac;
      }

      .cls-4 {
        fill: #41c0f0;
      }

      .cls-5 {
        fill: #fcd300;
      }
    </style>
  </defs>
  <g>
    <path class="cls-4" d="M1513.06,413.22c-10.22,1.9-20.7,5.53-27.46,13.43-4.19,4.9-6.52,10.91-8.06,17.23-.61-5.47-1.77-10.82-4.33-15.65-5.19-9.82-15.6-16.13-26.47-18.43-10.86-2.31-22.18-1.05-33.04,1.26,5.21,1.64,8.94,6.36,10.99,11.41,2.05,5.06,2.72,10.55,3.83,15.9,1.11,5.34,2.77,10.78,6.39,14.88,5.12,5.79,13.43,7.91,21.14,7.32,6.29-.48,12.32-2.52,18.22-4.83,0,.08,0,.16,0,.24.06,2.99.91,5.89,1.6,8.8,3.54,14.92,2.83,30.82-2.03,45.37,2.53,2.46,5.86,5.12,9.2,3.98,3.71-1.26,4.42-6.12,4.49-10.04.18-9.68.35-19.41-.91-29.01-.98-7.43-2.87-14.82-6.13-21.54,5.74-2.02,12.52-1.52,18.74-.72,8.25,1.06,17.28,2.21,24.35-2.17,4.25-2.63,7.21-7,8.95-11.68,1.97-5.3,2.51-10.99,3.71-16.51,1.2-5.52,3.23-11.14,7.43-14.92-9.86,3.28-20.39,3.81-30.6,5.71ZM1458.97,447.15c-6.25.98-12.84-.21-18.32-3.39,5.12.21,10.24.43,15.37.64-1.31-1.34-2.53-2.76-3.65-4.22-.76-.98-1.49-1.99-2.2-3.01-.04,0-.08.02-.12.02-5.22.66-10.67-.8-14.85-3.99,4.3.31,8.6.62,12.9.94-3.76-5.59-7.36-11.3-12.36-15.77,5.42,1.87,8.99,6.59,12.46,11.32-.35-3.89-.7-7.78-1.05-11.67,1.79,1.14,3.99,12.72,4.16,15.82.08.1.16.21.25.32,2.58,3.21,5.54,6.05,8.71,8.68-.63-1.72-1.04-3.54-1.24-5.36-.44-3.99-.02-8.02.4-12.02.99,4.92,1.97,9.84,2.95,14.76.33,1.66.65,3.33.89,5,3.84,2.92,7.9,5.6,11.93,8.24-6,.35-11.54-2.35-16.23-6.3ZM1515.74,434.19c-2.44,1.52-5.02,2.77-7.65,3.92,5.16-.13,9.81-1.1,15.68-2.96-2.19,2.84-5.75,4.37-9.31,4.85-3.33.45-6.71.08-10.05-.34-1.43.59-2.85,1.18-4.27,1.79-2.02.87-4.02,1.8-5.99,2.78,7.61,1.17,15.36,1.41,23.03.72-7.36,2.14-15.2,4.28-22.55,2.13-1.04-.3-2.17-.85-2.86-1.65-4.79,2.49-9.43,5.28-13.88,8.36,1.85-2.52,4.03-4.67,6.43-6.56,4.18-5.88,8.36-11.76,12.54-17.64-2.02,5.29-4.67,10.55-8.39,14.73,3.88-2.44,8.13-4.47,12.43-6.44,3.86-4.42,6.98-9.49,9.17-14.94.55,3.37-.77,6.84-2.84,9.56-.39.51-1.5,2.21-2.47,3.6,8.26-3.81,16.32-7.86,21.87-14.8-1.67,5.49-6.01,9.83-10.89,12.88Z"/>
    <path class="cls-4" d="M821.62,413.22c-10.22,1.9-20.7,5.53-27.46,13.43-4.19,4.9-6.52,10.91-8.06,17.23-.61-5.47-1.77-10.82-4.33-15.65-5.19-9.82-15.6-16.13-26.47-18.43-10.86-2.31-22.18-1.05-33.04,1.26,5.21,1.64,8.94,6.36,10.99,11.41,2.05,5.06,2.72,10.55,3.83,15.9,1.11,5.34,2.77,10.78,6.39,14.88,5.12,5.79,13.43,7.91,21.14,7.32,6.29-.48,12.32-2.52,18.22-4.83,0,.08,0,.16,0,.24.06,2.99.91,5.89,1.6,8.8,3.54,14.92,2.83,30.82-2.03,45.37,2.53,2.46,5.86,5.12,9.2,3.98,3.71-1.26,4.42-6.12,4.49-10.04.18-9.68.35-19.41-.91-29.01-.98-7.43-2.87-14.82-6.13-21.54,5.74-2.02,12.52-1.52,18.74-.72,8.25,1.06,17.28,2.21,24.35-2.17,4.25-2.63,7.21-7,8.95-11.68,1.97-5.3,2.51-10.99,3.71-16.51,1.2-5.52,3.23-11.14,7.43-14.92-9.86,3.28-20.39,3.81-30.6,5.71ZM767.52,447.15c-6.25.98-12.84-.21-18.32-3.39,5.12.21,10.24.43,15.37.64-1.31-1.34-2.53-2.76-3.65-4.22-.76-.98-1.49-1.99-2.2-3.01-.04,0-.08.02-.12.02-5.22.66-10.67-.8-14.85-3.99,4.3.31,8.6.62,12.9.94-3.76-5.59-7.36-11.3-12.36-15.77,5.42,1.87,8.99,6.59,12.46,11.32-.35-3.89-.7-7.78-1.05-11.67,1.79,1.14,3.99,12.72,4.16,15.82.08.1.16.21.25.32,2.58,3.21,5.54,6.05,8.71,8.68-.63-1.72-1.04-3.54-1.24-5.36-.44-3.99-.02-8.02.4-12.02.99,4.92,1.97,9.84,2.95,14.76.33,1.66.65,3.33.89,5,3.84,2.92,7.9,5.6,11.93,8.24-6,.35-11.54-2.35-16.23-6.3ZM824.3,434.19c-2.44,1.52-5.02,2.77-7.65,3.92,5.16-.13,9.81-1.1,15.68-2.96-2.19,2.84-5.75,4.37-9.31,4.85-3.33.45-6.71.08-10.05-.34-1.43.59-2.85,1.18-4.27,1.79-2.02.87-4.02,1.8-5.99,2.78,7.61,1.17,15.36,1.41,23.03.72-7.36,2.14-15.2,4.28-22.55,2.13-1.04-.3-2.17-.85-2.86-1.65-4.79,2.49-9.43,5.28-13.88,8.36,1.85-2.52,4.03-4.67,6.43-6.56,4.18-5.88,8.36-11.76,12.54-17.64-2.02,5.29-4.67,10.55-8.39,14.73,3.88-2.44,8.13-4.47,12.43-6.44,3.86-4.42,6.98-9.49,9.17-14.94.55,3.37-.77,6.84-2.84,9.56-.39.51-1.5,2.21-2.47,3.6,8.26-3.81,16.32-7.86,21.87-14.8-1.67,5.49-6.01,9.83-10.89,12.88Z"/>
    <path class="cls-4" d="M475.9,413.22c-10.22,1.9-20.7,5.53-27.46,13.43-4.19,4.9-6.52,10.91-8.06,17.23-.61-5.47-1.77-10.82-4.33-15.65-5.19-9.82-15.6-16.13-26.47-18.43-10.86-2.31-22.18-1.05-33.04,1.26,5.21,1.64,8.94,6.36,10.99,11.41,2.05,5.06,2.72,10.55,3.83,15.9,1.11,5.34,2.77,10.78,6.39,14.88,5.12,5.79,13.43,7.91,21.14,7.32,6.29-.48,12.32-2.52,18.22-4.83,0,.08,0,.16,0,.24.06,2.99.91,5.89,1.6,8.8,3.54,14.92,2.83,30.82-2.03,45.37,2.53,2.46,5.86,5.12,9.2,3.98,3.71-1.26,4.42-6.12,4.49-10.04.18-9.68.35-19.41-.91-29.01-.98-7.43-2.87-14.82-6.13-21.54,5.74-2.02,12.52-1.52,18.74-.72,8.25,1.06,17.28,2.21,24.35-2.17,4.25-2.63,7.21-7,8.95-11.68,1.97-5.3,2.51-10.99,3.71-16.51,1.2-5.52,3.23-11.14,7.43-14.92-9.86,3.28-20.39,3.81-30.6,5.71ZM421.8,447.15c-6.25.98-12.84-.21-18.32-3.39,5.12.21,10.24.43,15.37.64-1.31-1.34-2.53-2.76-3.65-4.22-.76-.98-1.49-1.99-2.2-3.01-.04,0-.08.02-.12.02-5.22.66-10.67-.8-14.85-3.99,4.3.31,8.6.62,12.9.94-3.76-5.59-7.36-11.3-12.36-15.77,5.42,1.87,8.99,6.59,12.46,11.32-.35-3.89-.7-7.78-1.05-11.67,1.79,1.14,3.99,12.72,4.16,15.82.08.1.16.21.25.32,2.58,3.21,5.54,6.05,8.71,8.68-.63-1.72-1.04-3.54-1.24-5.36-.44-3.99-.02-8.02.4-12.02.99,4.92,1.97,9.84,2.95,14.76.33,1.66.65,3.33.89,5,3.84,2.92,7.9,5.6,11.93,8.24-6,.35-11.54-2.35-16.23-6.3ZM478.58,434.19c-2.44,1.52-5.02,2.77-7.65,3.92,5.16-.13,9.81-1.1,15.68-2.96-2.19,2.84-5.75,4.37-9.31,4.85-3.33.45-6.71.08-10.05-.34-1.43.59-2.85,1.18-4.27,1.79-2.02.87-4.02,1.8-5.99,2.78,7.61,1.17,15.36,1.41,23.03.72-7.36,2.14-15.2,4.28-22.55,2.13-1.04-.3-2.17-.85-2.86-1.65-4.79,2.49-9.43,5.28-13.88,8.36,1.85-2.52,4.03-4.67,6.43-6.56,4.18-5.88,8.36-11.76,12.54-17.64-2.02,5.29-4.67,10.55-8.39,14.73,3.88-2.44,8.13-4.47,12.43-6.44,3.86-4.42,6.98-9.49,9.17-14.94.55,3.37-.77,6.84-2.84,9.56-.39.51-1.5,2.21-2.47,3.6,8.26-3.81,16.32-7.86,21.87-14.8-1.67,5.49-6.01,9.83-10.89,12.88Z"/>
    <path class="cls-4" d="M1167.34,413.22c-10.22,1.9-20.7,5.53-27.46,13.43-4.19,4.9-6.52,10.91-8.06,17.23-.61-5.47-1.77-10.82-4.33-15.65-5.19-9.82-15.6-16.13-26.47-18.43-10.86-2.31-22.18-1.05-33.04,1.26,5.21,1.64,8.94,6.36,10.99,11.41,2.05,5.06,2.72,10.55,3.83,15.9,1.11,5.34,2.77,10.78,6.39,14.88,5.12,5.79,13.43,7.91,21.14,7.32,6.29-.48,12.32-2.52,18.22-4.83,0,.08,0,.16,0,.24.06,2.99.91,5.89,1.6,8.8,3.54,14.92,2.83,30.82-2.03,45.37,2.53,2.46,5.86,5.12,9.2,3.98,3.71-1.26,4.42-6.12,4.49-10.04.18-9.68.35-19.41-.91-29.01-.98-7.43-2.87-14.82-6.13-21.54,5.74-2.02,12.52-1.52,18.74-.72,8.25,1.06,17.28,2.21,24.35-2.17,4.25-2.63,7.21-7,8.95-11.68,1.97-5.3,2.51-10.99,3.71-16.51,1.2-5.52,3.23-11.14,7.43-14.92-9.86,3.28-20.39,3.81-30.6,5.71ZM1113.24,447.15c-6.25.98-12.84-.21-18.32-3.39,5.12.21,10.24.43,15.37.64-1.31-1.34-2.53-2.76-3.65-4.22-.76-.98-1.49-1.99-2.2-3.01-.04,0-.08.02-.12.02-5.22.66-10.67-.8-14.85-3.99,4.3.31,8.6.62,12.9.94-3.76-5.59-7.36-11.3-12.36-15.77,5.42,1.87,8.99,6.59,12.46,11.32-.35-3.89-.7-7.78-1.05-11.67,1.79,1.14,3.99,12.72,4.16,15.82.08.1.16.21.25.32,2.58,3.21,5.54,6.05,8.71,8.68-.63-1.72-1.04-3.54-1.24-5.36-.44-3.99-.02-8.02.4-12.02.99,4.92,1.97,9.84,2.95,14.76.33,1.66.65,3.33.89,5,3.84,2.92,7.9,5.6,11.93,8.24-6,.35-11.54-2.35-16.23-6.3ZM1170.02,434.19c-2.44,1.52-5.02,2.77-7.65,3.92,5.16-.13,9.81-1.1,15.68-2.96-2.19,2.84-5.75,4.37-9.31,4.85-3.33.45-6.71.08-10.05-.34-1.43.59-2.85,1.18-4.27,1.79-2.02.87-4.02,1.8-5.99,2.78,7.61,1.17,15.36,1.41,23.03.72-7.36,2.14-15.2,4.28-22.55,2.13-1.04-.3-2.17-.85-2.86-1.65-4.79,2.49-9.43,5.28-13.88,8.36,1.85-2.52,4.03-4.67,6.43-6.56,4.18-5.88,8.36-11.76,12.54-17.64-2.02,5.29-4.67,10.55-8.39,14.73,3.88-2.44,8.13-4.47,12.43-6.44,3.86-4.42,6.98-9.49,9.17-14.94.55,3.37-.77,6.84-2.84,9.56-.39.51-1.5,2.21-2.47,3.6,8.26-3.81,16.32-7.86,21.87-14.8-1.67,5.49-6.01,9.83-10.89,12.88Z"/>
    <path class="cls-4" d="M1030.9,399.81c-11.7-.72-23.62,2.92-32.93,10.06-8.48,6.5-14.7,15.85-17.51,26.15-4.99,2.73-9.68,6.11-14.01,9.77-4.04,3.41-7.91,7.13-10.67,11.65-.44-10.64-1.29-23.91-1.84-38.21,4.92-6.16,10.07-12.14,15.43-17.92,3.59-.21,7.51.66,11.16.87,12.37.71,24.01-7.09,31.11-17.25,7.09-10.16,10.4-22.42,13.21-34.48-11.93-.56-24.53-.98-35.03,4.68-8.33,4.49-14.39,12.4-18.36,20.98-3.22,6.95-5.19,14.39-6.92,21.87-1.51,1.25-3.01,2.49-4.51,3.74-2.19,1.82-4.4,3.71-6.45,5.72-.29-12.84-.2-26.13.73-38.8,9.65.57,19.49-2.98,26.52-9.63,7.31-6.93,11.44-17.1,11.03-27.17-7.27,5.82-16.73,8.26-24.27,13.72-5.76,4.17-10.21,10.08-12.73,16.73.04-.38.08-.75.12-1.13,1.89-6.92,3.58-18.26-2.13-26.71-5.04-7.45-14.17-11.32-23.08-12.53.95,6.23,1.9,12.45,2.85,18.68.61,4,1.17,8.05,2.66,11.81,3.8,9.58,15.91,14.31,17.44,14.87-2.63,11.65-4.06,23.8-4.92,36.01-.77-1.46-1.64-2.87-2.55-4.26-2.83-4.33-5.99-8.45-9.41-12.33,1.66-9.64,2.36-19.55-1.76-28.25-4.09-8.65-12.43-14.64-21.3-18.23-8.86-3.58-18.41-5.1-27.74-7.16-.3,10.77-.45,21.73,2.45,32.11,2.9,10.38,9.3,20.28,19.02,24.94,8.26,3.96,17.8,3.74,26.98,3.29,4.69,7.25,9.22,14.6,13.61,22.04-.38,8.25-.59,16.47-.83,24.5-.13,4.29-.24,8.21-.34,11.83-4.57-4.19-11.21-9.92-16.09-13.29-.3-6.87-.97-13.73-3.01-20.27-2.5-8.01-7.28-15.59-14.48-19.91-15.14-9.07-35.49-1.38-51.74-8.28.75,8.83,2.09,17.68,5.23,25.97,3.14,8.28,8.2,16.01,15.34,21.25,6.82,4.99,15.24,7.5,23.67,8.14,7.45.56,14.92-.27,22.26-1.7,6.42,5.88,12.61,12.19,18.57,18.43-.52,23.37-.32,32.45-.67,52.25,2.86-.33,14.28-.19,17.14,0-3.06-16-4.86-32.15-5.83-47.22,7.5-9.71,16.27-18.45,26-25.92,7.17,5.75,15.59,10.04,24.66,11.36,10.18,1.48,21.17-1.09,28.75-8.05,12.55-11.51,13.23-31.42,23.9-44.68-8.87,3.91-19.04.54-28.72-.06ZM975.7,392.61c.17-.17.39-.32.64-.47,3.77-6.69,6.26-14.1,7.26-21.72-.24,4.35.1,8.75-.77,13.02-.4,1.95-1.13,3.9-2.18,5.6,2.76-2.13,5.48-4.44,8.14-6.86.72-1.78,1.39-3.84,1.73-5.13,1.48-5.84,2.45-9.55,3.63-15.65.42,6.14-.18,9.8-.77,14.02-.16,1.13-.38,2.15-.68,3.08,7.04-6.85,13.54-14.31,19.16-21.08-2.86,6.65-8.5,14.23-15.05,21.12,5.25-1.29,10-3.13,15.21-6.87-4.53,6.22-10.43,8.73-17.79,9.5-3.39,3.34-6.95,6.46-10.45,9.14,2.89-.3,6-.36,8.44-.19,3.19.22,8.11-.17,10.65-1.89-2.65,3.69-7.19,5.84-15.13,4.99-1.46-.16-4.64-.32-7.37-.43-.16.11-.32.22-.47.33-3.27,2.22-7.11,3.46-11.06,3.66h-.05c2.33-1.22,4.64-2.63,6.93-4.18ZM965.48,359.05c2.1-4.04,3.64-7.35,4.96-12.91.48,4.41-.95,8-2.19,10.54,5.56-4.92,10.67-10.33,15.22-16.2-3.04,6.92-7.8,13.05-13.66,17.82.73-.27,1.47-.54,2.2-.81,2.93-1.07,5.97-2.21,8.17-4.42-2.31,4.49-7.51,7.26-12.51,6.88-3.56,2.59-7.47,4.7-11.61,6.2,3.26-2.21,6.4-4.59,9.43-7.11ZM950.96,361.5c-.66-2.53-1.43-5.05-2.29-7.55-4.33-2.58-10.53-8.26-11.8-10.91,3.92,3.01,7.16,5.5,10.88,8.37-2.53-6.86-5.65-13.55-8.93-20.01.46.7,3.66,4.12,5.82,8.52,1.83,3.73,3.88,7.43,5.2,11.22.76-4.59.95-9.28.55-13.92,1.6,3.95,1.41,11.58.1,16.05.7,2.66.97,5.39.47,8.23ZM925.2,382.32c-4.87.1-13.97-.08-16.37-.65-2.64-.63-7.34-2.09-10.08-4.87,7.5,2.19,15.41,2.94,23.2,2.26-1.68-1.75-3.4-3.64-5.1-5.6-4.59-.22-9.76-.62-11.48-1.09-2.62-.72-7.26-2.37-9.9-5.24,6.01,2,12.33,3.01,18.66,3.12-1.24-1.5-2.46-3.02-3.64-4.55-6.75-1.36-13.11-4.62-18.08-9.38,5.01,1.77,10.01,3.54,15.02,5.31-4.4-6.03-8.08-11.93-10.07-16.45,3.23,3.4,7.58,8.4,12.14,13.88-.13-.96-.19-1.93-.19-2.89.01-4.07.18-8.27,1.13-12.17.43,5.91.85,11.83,1.28,17.75,1.54,1.88,3.09,3.79,4.61,5.7-.03-.41-.05-.85-.05-1.31,0-4.07-.63-11.32,1.21-14.93.47,6.49.93,12.98,1.4,19.47,1.81,2.31,3.56,4.57,5.17,6.71.01-.17.02-.35.04-.51.62-6.23,1.24-12.47,1.87-18.71,1.73,7,1.63,14.45-.27,21.41,2.29,3.09,4.24,5.85,5.63,8.01-1.88-1.39-3.95-3.19-6.12-5.27ZM925.26,439.82c-2.07-.39-4.03-1.14-5.84-2.22-.97-.58-1.97-1.19-2.99-1.84-9.55,2.75-20,2.24-29.23-1.44,8.44.21,16,.8,25.64-.88-2.89-1.9-5.87-3.95-8.76-5.98-4.31.26-8.64.46-12.93.03-4.63-.46-9.27-1.71-13.17-4.27,6.9.83,13.88,1.65,20.78.79.14-.02.28-.04.42-.05-2.22-1.6-4.31-3.13-6.15-4.5-1.45-1.08-2.9-2.18-4.32-3.32-6.76.86-13.94.39-19.57-3.37,6.59,1.47,10.86,1.16,16.36.66-4.2-3.72-7.94-7.88-10.52-12.83,4.66,3.87,8.92,7.24,12.89,10.28-.69-3.02-1.66-8.31-1.04-11.49,1.34,4.58,2.68,9.17,4.03,13.75,3.16,2.38,6.15,4.57,9.01,6.67-1.49-7.25-1.94-12.51-.66-17.12,1.38,7.49,1.43,12.52,3.97,19.53,3.57,2.61,6.97,5.11,10.34,7.73-1.18-7.06-2-14.21-.82-21.24.22,8.05,2.8,16.57,4.89,24.47,2.54,2.07,5.1,4.24,7.71,6.61h-.03ZM1024.56,423.97c5.37-.79,10.27-.16,17.35-1.09-6.89,3.72-15.22,4.26-22.64,4.21-2.21,1.24-4.45,2.41-6.69,3.51,6.41,2.61,12.64,4.09,19.96,6.28-10.22.5-16.07-1.37-22.94-4.87-2.87,1.32-5.71,2.49-8.46,3.49,3.01,1.07,5.75,3.02,8.43,4.85,3.57,2.45,8.45,3.65,11.83,4.76-8.68.54-17.52-2.56-23.98-8.37-3.99,1.1-8.19,1.17-12.24.23h-.07c3.76-.81,7.59-1.92,11.44-3.29,3.56-5.59,6.18-11.79,7.68-18.25.62,4.82-.45,8.03-1.43,11.91-.43,1.7-1.18,3.4-2.23,4.82,2.63-1.04,5.26-2.19,7.88-3.43,2.71-6.39,4.32-13.24,4.74-20.17,1.48,4.82.95,8.28.63,12.42-.16,2.08-.77,4.23-1.82,6.02,1.17-.58,2.34-1.18,3.5-1.8,3.9-5.09,7.32-10.55,10.19-16.29.07,3.84-1.65,8.65-3.52,12.01-.18.33-.38.64-.57.94,8.45-4.81,16.53-10.1,23.73-15.04-4.78,5.87-12.34,11.89-20.76,17.12Z"/>
    <path class="cls-4" d="M685.18,399.81c-11.7-.72-23.62,2.92-32.93,10.06-8.48,6.5-14.7,15.85-17.51,26.15-4.99,2.73-9.68,6.11-14.01,9.77-4.04,3.41-7.91,7.13-10.67,11.65-.44-10.64-1.29-23.91-1.84-38.21,4.92-6.16,10.07-12.14,15.43-17.92,3.59-.21,7.51.66,11.16.87,12.37.71,24.01-7.09,31.11-17.25,7.09-10.16,10.4-22.42,13.21-34.48-11.93-.56-24.53-.98-35.03,4.68-8.33,4.49-14.39,12.4-18.36,20.98-3.22,6.95-5.19,14.39-6.92,21.87-1.51,1.25-3.01,2.49-4.51,3.74-2.19,1.82-4.4,3.71-6.45,5.72-.29-12.84-.2-26.13.73-38.8,9.65.57,19.49-2.98,26.52-9.63,7.31-6.93,11.44-17.1,11.03-27.17-7.27,5.82-16.73,8.26-24.27,13.72-5.76,4.17-10.21,10.08-12.73,16.73.04-.38.08-.75.12-1.13,1.89-6.92,3.58-18.26-2.13-26.71-5.04-7.45-14.17-11.32-23.08-12.53.95,6.23,1.9,12.45,2.85,18.68.61,4,1.17,8.05,2.66,11.81,3.8,9.58,15.91,14.31,17.44,14.87-2.63,11.65-4.06,23.8-4.92,36.01-.77-1.46-1.64-2.87-2.55-4.26-2.83-4.33-5.99-8.45-9.41-12.33,1.66-9.64,2.36-19.55-1.76-28.25-4.09-8.65-12.43-14.64-21.3-18.23-8.86-3.58-18.41-5.1-27.74-7.16-.3,10.77-.45,21.73,2.45,32.11,2.9,10.38,9.3,20.28,19.02,24.94,8.26,3.96,17.8,3.74,26.98,3.29,4.69,7.25,9.22,14.6,13.61,22.04-.38,8.25-.59,16.47-.83,24.5-.13,4.29-.24,8.21-.34,11.83-4.57-4.19-11.21-9.92-16.09-13.29-.3-6.87-.97-13.73-3.01-20.27-2.5-8.01-7.28-15.59-14.48-19.91-15.14-9.07-35.49-1.38-51.74-8.28.75,8.83,2.09,17.68,5.23,25.97,3.14,8.28,8.2,16.01,15.34,21.25,6.82,4.99,15.24,7.5,23.67,8.14,7.45.56,14.92-.27,22.26-1.7,6.42,5.88,12.61,12.19,18.57,18.43-.52,23.37-.32,32.45-.67,52.25,2.86-.33,14.28-.19,17.14,0-3.06-16-4.86-32.15-5.83-47.22,7.5-9.71,16.27-18.45,26-25.92,7.17,5.75,15.59,10.04,24.66,11.36,10.18,1.48,21.17-1.09,28.75-8.05,12.55-11.51,13.23-31.42,23.9-44.68-8.87,3.91-19.04.54-28.72-.06ZM629.98,392.61c.17-.17.39-.32.64-.47,3.77-6.69,6.26-14.1,7.26-21.72-.24,4.35.1,8.75-.77,13.02-.4,1.95-1.13,3.9-2.18,5.6,2.76-2.13,5.48-4.44,8.14-6.86.72-1.78,1.39-3.84,1.73-5.13,1.48-5.84,2.45-9.55,3.63-15.65.42,6.14-.18,9.8-.77,14.02-.16,1.13-.38,2.15-.68,3.08,7.04-6.85,13.54-14.31,19.16-21.08-2.86,6.65-8.5,14.23-15.05,21.12,5.25-1.29,10-3.13,15.21-6.87-4.53,6.22-10.43,8.73-17.79,9.5-3.39,3.34-6.95,6.46-10.45,9.14,2.89-.3,6-.36,8.44-.19,3.19.22,8.11-.17,10.65-1.89-2.65,3.69-7.19,5.84-15.13,4.99-1.46-.16-4.64-.32-7.37-.43-.16.11-.32.22-.47.33-3.27,2.22-7.11,3.46-11.06,3.66h-.05c2.33-1.22,4.64-2.63,6.93-4.18ZM619.76,359.05c2.1-4.04,3.64-7.35,4.96-12.91.48,4.41-.95,8-2.19,10.54,5.56-4.92,10.67-10.33,15.22-16.2-3.04,6.92-7.8,13.05-13.66,17.82.73-.27,1.47-.54,2.2-.81,2.93-1.07,5.97-2.21,8.17-4.42-2.31,4.49-7.51,7.26-12.51,6.88-3.56,2.59-7.47,4.7-11.61,6.2,3.26-2.21,6.4-4.59,9.43-7.11ZM605.24,361.5c-.66-2.53-1.43-5.05-2.29-7.55-4.33-2.58-10.53-8.26-11.8-10.91,3.92,3.01,7.16,5.5,10.88,8.37-2.53-6.86-5.65-13.55-8.93-20.01.46.7,3.66,4.12,5.82,8.52,1.83,3.73,3.88,7.43,5.2,11.22.76-4.59.95-9.28.55-13.92,1.6,3.95,1.41,11.58.1,16.05.7,2.66.97,5.39.47,8.23ZM579.47,382.32c-4.87.1-13.97-.08-16.37-.65-2.64-.63-7.34-2.09-10.08-4.87,7.5,2.19,15.41,2.94,23.2,2.26-1.68-1.75-3.4-3.64-5.1-5.6-4.59-.22-9.76-.62-11.48-1.09-2.62-.72-7.26-2.37-9.9-5.24,6.01,2,12.33,3.01,18.66,3.12-1.24-1.5-2.46-3.02-3.64-4.55-6.75-1.36-13.11-4.62-18.08-9.38,5.01,1.77,10.01,3.54,15.02,5.31-4.4-6.03-8.08-11.93-10.07-16.45,3.23,3.4,7.58,8.4,12.14,13.88-.13-.96-.19-1.93-.19-2.89.01-4.07.18-8.27,1.13-12.17.43,5.91.85,11.83,1.28,17.75,1.54,1.88,3.09,3.79,4.61,5.7-.03-.41-.05-.85-.05-1.31,0-4.07-.63-11.32,1.21-14.93.47,6.49.93,12.98,1.4,19.47,1.81,2.31,3.56,4.57,5.17,6.71.01-.17.02-.35.04-.51.62-6.23,1.24-12.47,1.87-18.71,1.73,7,1.63,14.45-.27,21.41,2.29,3.09,4.24,5.85,5.63,8.01-1.88-1.39-3.95-3.19-6.12-5.27ZM579.54,439.82c-2.07-.39-4.03-1.14-5.84-2.22-.97-.58-1.97-1.19-2.99-1.84-9.55,2.75-20,2.24-29.23-1.44,8.44.21,16,.8,25.64-.88-2.89-1.9-5.87-3.95-8.76-5.98-4.31.26-8.64.46-12.93.03-4.63-.46-9.27-1.71-13.17-4.27,6.9.83,13.88,1.65,20.78.79.14-.02.28-.04.42-.05-2.22-1.6-4.31-3.13-6.15-4.5-1.45-1.08-2.9-2.18-4.32-3.32-6.76.86-13.94.39-19.57-3.37,6.59,1.47,10.86,1.16,16.36.66-4.2-3.72-7.94-7.88-10.52-12.83,4.66,3.87,8.92,7.24,12.89,10.28-.69-3.02-1.66-8.31-1.04-11.49,1.34,4.58,2.68,9.17,4.03,13.75,3.16,2.38,6.15,4.57,9.01,6.67-1.49-7.25-1.94-12.51-.66-17.12,1.38,7.49,1.43,12.52,3.97,19.53,3.57,2.61,6.97,5.11,10.34,7.73-1.18-7.06-2-14.21-.82-21.24.22,8.05,2.8,16.57,4.89,24.47,2.54,2.07,5.1,4.24,7.71,6.61h-.03ZM678.84,423.97c5.37-.79,10.27-.16,17.35-1.09-6.89,3.72-15.22,4.26-22.64,4.21-2.21,1.24-4.45,2.41-6.69,3.51,6.41,2.61,12.64,4.09,19.96,6.28-10.22.5-16.07-1.37-22.94-4.87-2.87,1.32-5.71,2.49-8.46,3.49,3.01,1.07,5.75,3.02,8.43,4.85,3.57,2.45,8.45,3.65,11.83,4.76-8.68.54-17.52-2.56-23.98-8.37-3.99,1.1-8.19,1.17-12.24.23h-.07c3.76-.81,7.59-1.92,11.44-3.29,3.56-5.59,6.18-11.79,7.68-18.25.62,4.82-.45,8.03-1.43,11.91-.43,1.7-1.18,3.4-2.23,4.82,2.63-1.04,5.26-2.19,7.88-3.43,2.71-6.39,4.32-13.24,4.74-20.17,1.48,4.82.95,8.28.63,12.42-.16,2.08-.77,4.23-1.82,6.02,1.17-.58,2.34-1.18,3.5-1.8,3.9-5.09,7.32-10.55,10.19-16.29.07,3.84-1.65,8.65-3.52,12.01-.18.33-.38.64-.57.94,8.45-4.81,16.53-10.1,23.73-15.04-4.78,5.87-12.34,11.89-20.76,17.12Z"/>
    <path class="cls-4" d="M1376.62,399.81c-11.7-.72-23.62,2.92-32.93,10.06-8.48,6.5-14.7,15.85-17.51,26.15-4.99,2.73-9.68,6.11-14.01,9.77-4.04,3.41-7.91,7.13-10.67,11.65-.44-10.64-1.29-23.91-1.84-38.21,4.92-6.16,10.07-12.14,15.43-17.92,3.59-.21,7.51.66,11.16.87,12.37.71,24.01-7.09,31.11-17.25,7.09-10.16,10.4-22.42,13.21-34.48-11.93-.56-24.53-.98-35.03,4.68-8.33,4.49-14.39,12.4-18.36,20.98-3.22,6.95-5.19,14.39-6.92,21.87-1.51,1.25-3.01,2.49-4.51,3.74-2.19,1.82-4.4,3.71-6.45,5.72-.29-12.84-.2-26.13.73-38.8,9.65.57,19.49-2.98,26.52-9.63,7.31-6.93,11.44-17.1,11.03-27.17-7.27,5.82-16.73,8.26-24.27,13.72-5.76,4.17-10.21,10.08-12.73,16.73.04-.38.08-.75.12-1.13,1.89-6.92,3.58-18.26-2.13-26.71-5.04-7.45-14.17-11.32-23.08-12.53.95,6.23,1.9,12.45,2.85,18.68.61,4,1.17,8.05,2.66,11.81,3.8,9.58,15.91,14.31,17.44,14.87-2.63,11.65-4.06,23.8-4.92,36.01-.77-1.46-1.64-2.87-2.55-4.26-2.83-4.33-5.99-8.45-9.41-12.33,1.66-9.64,2.36-19.55-1.76-28.25-4.09-8.65-12.43-14.64-21.3-18.23-8.86-3.58-18.41-5.1-27.74-7.16-.3,10.77-.45,21.73,2.45,32.11,2.9,10.38,9.3,20.28,19.02,24.94,8.26,3.96,17.8,3.74,26.98,3.29,4.69,7.25,9.22,14.6,13.61,22.04-.38,8.25-.59,16.47-.83,24.5-.13,4.29-.24,8.21-.34,11.83-4.57-4.19-11.21-9.92-16.09-13.29-.3-6.87-.97-13.73-3.01-20.27-2.5-8.01-7.28-15.59-14.48-19.91-15.14-9.07-35.49-1.38-51.74-8.28.75,8.83,2.09,17.68,5.23,25.97,3.14,8.28,8.2,16.01,15.34,21.25,6.82,4.99,15.24,7.5,23.67,8.14,7.45.56,14.92-.27,22.26-1.7,6.42,5.88,12.61,12.19,18.57,18.43-.52,23.37-.32,32.45-.67,52.25,2.86-.33,14.28-.19,17.14,0-3.06-16-4.86-32.15-5.83-47.22,7.5-9.71,16.27-18.45,26-25.92,7.17,5.75,15.59,10.04,24.66,11.36,10.18,1.48,21.17-1.09,28.75-8.05,12.55-11.51,13.23-31.42,23.9-44.68-8.87,3.91-19.04.54-28.72-.06ZM1321.42,392.61c.17-.17.39-.32.64-.47,3.77-6.69,6.26-14.1,7.26-21.72-.24,4.35.1,8.75-.77,13.02-.4,1.95-1.13,3.9-2.18,5.6,2.76-2.13,5.48-4.44,8.14-6.86.72-1.78,1.39-3.84,1.73-5.13,1.48-5.84,2.45-9.55,3.63-15.65.42,6.14-.18,9.8-.77,14.02-.16,1.13-.38,2.15-.68,3.08,7.04-6.85,13.54-14.31,19.16-21.08-2.86,6.65-8.5,14.23-15.05,21.12,5.25-1.29,10-3.13,15.21-6.87-4.53,6.22-10.43,8.73-17.79,9.5-3.39,3.34-6.95,6.46-10.45,9.14,2.89-.3,6-.36,8.44-.19,3.19.22,8.11-.17,10.65-1.89-2.65,3.69-7.19,5.84-15.13,4.99-1.46-.16-4.64-.32-7.37-.43-.16.11-.32.22-.47.33-3.27,2.22-7.11,3.46-11.06,3.66h-.05c2.33-1.22,4.64-2.63,6.93-4.18ZM1311.2,359.05c2.1-4.04,3.64-7.35,4.96-12.91.48,4.41-.95,8-2.19,10.54,5.56-4.92,10.67-10.33,15.22-16.2-3.04,6.92-7.8,13.05-13.66,17.82.73-.27,1.47-.54,2.2-.81,2.93-1.07,5.97-2.21,8.17-4.42-2.31,4.49-7.51,7.26-12.51,6.88-3.56,2.59-7.47,4.7-11.61,6.2,3.26-2.21,6.4-4.59,9.43-7.11ZM1296.68,361.5c-.66-2.53-1.43-5.05-2.29-7.55-4.33-2.58-10.53-8.26-11.8-10.91,3.92,3.01,7.16,5.5,10.88,8.37-2.53-6.86-5.65-13.55-8.93-20.01.46.7,3.66,4.12,5.82,8.52,1.83,3.73,3.88,7.43,5.2,11.22.76-4.59.95-9.28.55-13.92,1.6,3.95,1.41,11.58.1,16.05.7,2.66.97,5.39.47,8.23ZM1270.92,382.32c-4.87.1-13.97-.08-16.37-.65-2.64-.63-7.34-2.09-10.08-4.87,7.5,2.19,15.41,2.94,23.2,2.26-1.68-1.75-3.4-3.64-5.1-5.6-4.59-.22-9.76-.62-11.48-1.09-2.62-.72-7.26-2.37-9.9-5.24,6.01,2,12.33,3.01,18.66,3.12-1.24-1.5-2.46-3.02-3.64-4.55-6.75-1.36-13.11-4.62-18.08-9.38,5.01,1.77,10.01,3.54,15.02,5.31-4.4-6.03-8.08-11.93-10.07-16.45,3.23,3.4,7.58,8.4,12.14,13.88-.13-.96-.19-1.93-.19-2.89.01-4.07.18-8.27,1.13-12.17.43,5.91.85,11.83,1.28,17.75,1.54,1.88,3.09,3.79,4.61,5.7-.03-.41-.05-.85-.05-1.31,0-4.07-.63-11.32,1.21-14.93.47,6.49.93,12.98,1.4,19.47,1.81,2.31,3.56,4.57,5.17,6.71.01-.17.02-.35.04-.51.62-6.23,1.24-12.47,1.87-18.71,1.73,7,1.63,14.45-.27,21.41,2.29,3.09,4.24,5.85,5.63,8.01-1.88-1.39-3.95-3.19-6.12-5.27ZM1270.98,439.82c-2.07-.39-4.03-1.14-5.84-2.22-.97-.58-1.97-1.19-2.99-1.84-9.55,2.75-20,2.24-29.23-1.44,8.44.21,16,.8,25.64-.88-2.89-1.9-5.87-3.95-8.76-5.98-4.31.26-8.64.46-12.93.03-4.63-.46-9.27-1.71-13.17-4.27,6.9.83,13.88,1.65,20.78.79.14-.02.28-.04.42-.05-2.22-1.6-4.31-3.13-6.15-4.5-1.45-1.08-2.9-2.18-4.32-3.32-6.76.86-13.94.39-19.57-3.37,6.59,1.47,10.86,1.16,16.36.66-4.2-3.72-7.94-7.88-10.52-12.83,4.66,3.87,8.92,7.24,12.89,10.28-.69-3.02-1.66-8.31-1.04-11.49,1.34,4.58,2.68,9.17,4.03,13.75,3.16,2.38,6.15,4.57,9.01,6.67-1.49-7.25-1.94-12.51-.66-17.12,1.38,7.49,1.43,12.52,3.97,19.53,3.57,2.61,6.97,5.11,10.34,7.73-1.18-7.06-2-14.21-.82-21.24.22,8.05,2.8,16.57,4.89,24.47,2.54,2.07,5.1,4.24,7.71,6.61h-.03ZM1370.28,423.97c5.37-.79,10.27-.16,17.35-1.09-6.89,3.72-15.22,4.26-22.64,4.21-2.21,1.24-4.45,2.41-6.69,3.51,6.41,2.61,12.64,4.09,19.96,6.28-10.22.5-16.07-1.37-22.94-4.87-2.87,1.32-5.71,2.49-8.46,3.49,3.01,1.07,5.75,3.02,8.43,4.85,3.57,2.45,8.45,3.65,11.83,4.76-8.68.54-17.52-2.56-23.98-8.37-3.99,1.1-8.19,1.17-12.24.23h-.07c3.76-.81,7.59-1.92,11.44-3.29,3.56-5.59,6.18-11.79,7.68-18.25.62,4.82-.45,8.03-1.43,11.91-.43,1.7-1.18,3.4-2.23,4.82,2.63-1.04,5.26-2.19,7.88-3.43,2.71-6.39,4.32-13.24,4.74-20.17,1.48,4.82.95,8.28.63,12.42-.16,2.08-.77,4.23-1.82,6.02,1.17-.58,2.34-1.18,3.5-1.8,3.9-5.09,7.32-10.55,10.19-16.29.07,3.84-1.65,8.65-3.52,12.01-.18.33-.38.64-.57.94,8.45-4.81,16.53-10.1,23.73-15.04-4.78,5.87-12.34,11.89-20.76,17.12Z"/>
    <path class="cls-4" d="M1722.34,399.81c-11.7-.72-23.62,2.92-32.93,10.06-8.48,6.5-14.7,15.85-17.51,26.15-4.99,2.73-9.68,6.11-14.01,9.77-4.04,3.41-7.91,7.13-10.67,11.65-.44-10.64-1.29-23.91-1.84-38.21,4.92-6.16,10.07-12.14,15.43-17.92,3.59-.21,7.51.66,11.16.87,12.37.71,24.01-7.09,31.11-17.25,7.09-10.16,10.4-22.42,13.21-34.48-11.93-.56-24.53-.98-35.03,4.68-8.33,4.49-14.39,12.4-18.36,20.98-3.22,6.95-5.19,14.39-6.92,21.87-1.51,1.25-3.01,2.49-4.51,3.74-2.19,1.82-4.4,3.71-6.45,5.72-.29-12.84-.2-26.13.73-38.8,9.65.57,19.49-2.98,26.52-9.63,7.31-6.93,11.44-17.1,11.03-27.17-7.27,5.82-16.73,8.26-24.27,13.72-5.76,4.17-10.21,10.08-12.73,16.73.04-.38.08-.75.12-1.13,1.89-6.92,3.58-18.26-2.13-26.71-5.04-7.45-14.17-11.32-23.08-12.53.95,6.23,1.9,12.45,2.85,18.68.61,4,1.17,8.05,2.66,11.81,3.8,9.58,15.91,14.31,17.44,14.87-2.63,11.65-4.06,23.8-4.92,36.01-.77-1.46-1.64-2.87-2.55-4.26-2.83-4.33-5.99-8.45-9.41-12.33,1.66-9.64,2.36-19.55-1.76-28.25-4.09-8.65-12.43-14.64-21.3-18.23-8.86-3.58-18.41-5.1-27.74-7.16-.3,10.77-.45,21.73,2.45,32.11,2.9,10.38,9.3,20.28,19.02,24.94,8.26,3.96,17.8,3.74,26.98,3.29,4.69,7.25,9.22,14.6,13.61,22.04-.38,8.25-.59,16.47-.83,24.5-.13,4.29-.24,8.21-.34,11.83-4.57-4.19-11.21-9.92-16.09-13.29-.3-6.87-.97-13.73-3.01-20.27-2.5-8.01-7.28-15.59-14.48-19.91-15.14-9.07-35.49-1.38-51.74-8.28.75,8.83,2.09,17.68,5.23,25.97,3.14,8.28,8.2,16.01,15.34,21.25,6.82,4.99,15.24,7.5,23.67,8.14,7.45.56,14.92-.27,22.26-1.7,6.42,5.88,12.61,12.19,18.57,18.43-.52,23.37-.32,32.45-.67,52.25,2.86-.33,14.28-.19,17.14,0-3.06-16-4.86-32.15-5.83-47.22,7.5-9.71,16.27-18.45,26-25.92,7.17,5.75,15.59,10.04,24.66,11.36,10.18,1.48,21.17-1.09,28.75-8.05,12.55-11.51,13.23-31.42,23.9-44.68-8.87,3.91-19.04.54-28.72-.06ZM1667.14,392.61c.17-.17.39-.32.64-.47,3.77-6.69,6.26-14.1,7.26-21.72-.24,4.35.1,8.75-.77,13.02-.4,1.95-1.13,3.9-2.18,5.6,2.76-2.13,5.48-4.44,8.14-6.86.72-1.78,1.39-3.84,1.73-5.13,1.48-5.84,2.45-9.55,3.63-15.65.42,6.14-.18,9.8-.77,14.02-.16,1.13-.38,2.15-.68,3.08,7.04-6.85,13.54-14.31,19.16-21.08-2.86,6.65-8.5,14.23-15.05,21.12,5.25-1.29,10-3.13,15.21-6.87-4.53,6.22-10.43,8.73-17.79,9.5-3.39,3.34-6.95,6.46-10.45,9.14,2.89-.3,6-.36,8.44-.19,3.19.22,8.11-.17,10.65-1.89-2.65,3.69-7.19,5.84-15.13,4.99-1.46-.16-4.64-.32-7.37-.43-.16.11-.32.22-.47.33-3.27,2.22-7.11,3.46-11.06,3.66h-.05c2.33-1.22,4.64-2.63,6.93-4.18ZM1656.92,359.05c2.1-4.04,3.64-7.35,4.96-12.91.48,4.41-.95,8-2.19,10.54,5.56-4.92,10.67-10.33,15.22-16.2-3.04,6.92-7.8,13.05-13.66,17.82.73-.27,1.47-.54,2.2-.81,2.93-1.07,5.97-2.21,8.17-4.42-2.31,4.49-7.51,7.26-12.51,6.88-3.56,2.59-7.47,4.7-11.61,6.2,3.26-2.21,6.4-4.59,9.43-7.11ZM1642.4,361.5c-.66-2.53-1.43-5.05-2.29-7.55-4.33-2.58-10.53-8.26-11.8-10.91,3.92,3.01,7.16,5.5,10.88,8.37-2.53-6.86-5.65-13.55-8.93-20.01.46.7,3.66,4.12,5.82,8.52,1.83,3.73,3.88,7.43,5.2,11.22.76-4.59.95-9.28.55-13.92,1.6,3.95,1.41,11.58.1,16.05.7,2.66.97,5.39.47,8.23ZM1616.64,382.32c-4.87.1-13.97-.08-16.37-.65-2.64-.63-7.34-2.09-10.08-4.87,7.5,2.19,15.41,2.94,23.2,2.26-1.68-1.75-3.4-3.64-5.1-5.6-4.59-.22-9.76-.62-11.48-1.09-2.62-.72-7.26-2.37-9.9-5.24,6.01,2,12.33,3.01,18.66,3.12-1.24-1.5-2.46-3.02-3.64-4.55-6.75-1.36-13.11-4.62-18.08-9.38,5.01,1.77,10.01,3.54,15.02,5.31-4.4-6.03-8.08-11.93-10.07-16.45,3.23,3.4,7.58,8.4,12.14,13.88-.13-.96-.19-1.93-.19-2.89.01-4.07.18-8.27,1.13-12.17.43,5.91.85,11.83,1.28,17.75,1.54,1.88,3.09,3.79,4.61,5.7-.03-.41-.05-.85-.05-1.31,0-4.07-.63-11.32,1.21-14.93.47,6.49.93,12.98,1.4,19.47,1.81,2.31,3.56,4.57,5.17,6.71.01-.17.02-.35.04-.51.62-6.23,1.24-12.47,1.87-18.71,1.73,7,1.63,14.45-.27,21.41,2.29,3.09,4.24,5.85,5.63,8.01-1.88-1.39-3.95-3.19-6.12-5.27ZM1616.7,439.82c-2.07-.39-4.03-1.14-5.84-2.22-.97-.58-1.97-1.19-2.99-1.84-9.55,2.75-20,2.24-29.23-1.44,8.44.21,16,.8,25.64-.88-2.89-1.9-5.87-3.95-8.76-5.98-4.31.26-8.64.46-12.93.03-4.63-.46-9.27-1.71-13.17-4.27,6.9.83,13.88,1.65,20.78.79.14-.02.28-.04.42-.05-2.22-1.6-4.31-3.13-6.15-4.5-1.45-1.08-2.9-2.18-4.32-3.32-6.76.86-13.94.39-19.57-3.37,6.59,1.47,10.86,1.16,16.36.66-4.2-3.72-7.94-7.88-10.52-12.83,4.66,3.87,8.92,7.24,12.89,10.28-.69-3.02-1.66-8.31-1.04-11.49,1.34,4.58,2.68,9.17,4.03,13.75,3.16,2.38,6.15,4.57,9.01,6.67-1.49-7.25-1.94-12.51-.66-17.12,1.38,7.49,1.43,12.52,3.97,19.53,3.57,2.61,6.97,5.11,10.34,7.73-1.18-7.06-2-14.21-.82-21.24.22,8.05,2.8,16.57,4.89,24.47,2.54,2.07,5.1,4.24,7.71,6.61h-.03ZM1716.01,423.97c5.37-.79,10.27-.16,17.35-1.09-6.89,3.72-15.22,4.26-22.64,4.21-2.21,1.24-4.45,2.41-6.69,3.51,6.41,2.61,12.64,4.09,19.96,6.28-10.22.5-16.07-1.37-22.94-4.87-2.87,1.32-5.71,2.49-8.46,3.49,3.01,1.07,5.75,3.02,8.43,4.85,3.57,2.45,8.45,3.65,11.83,4.76-8.68.54-17.52-2.56-23.98-8.37-3.99,1.1-8.19,1.17-12.24.23h-.07c3.76-.81,7.59-1.92,11.44-3.29,3.56-5.59,6.18-11.79,7.68-18.25.62,4.82-.45,8.03-1.43,11.91-.43,1.7-1.18,3.4-2.23,4.82,2.63-1.04,5.26-2.19,7.88-3.43,2.71-6.39,4.32-13.24,4.74-20.17,1.48,4.82.95,8.28.63,12.42-.16,2.08-.77,4.23-1.82,6.02,1.17-.58,2.34-1.18,3.5-1.8,3.9-5.09,7.32-10.55,10.19-16.29.07,3.84-1.65,8.65-3.52,12.01-.18.33-.38.64-.57.94,8.45-4.81,16.53-10.1,23.73-15.04-4.78,5.87-12.34,11.89-20.76,17.12Z"/>
    <path class="cls-4" d="M339.46,399.81c-11.7-.72-23.62,2.92-32.93,10.06-8.48,6.5-14.7,15.85-17.51,26.15-4.99,2.73-9.68,6.11-14.01,9.77-4.04,3.41-7.91,7.13-10.67,11.65-.44-10.64-1.29-23.91-1.84-38.21,4.92-6.16,10.07-12.14,15.43-17.92,3.59-.21,7.51.66,11.16.87,12.37.71,24.01-7.09,31.11-17.25,7.09-10.16,10.4-22.42,13.21-34.48-11.93-.56-24.53-.98-35.03,4.68-8.33,4.49-14.39,12.4-18.36,20.98-3.22,6.95-5.19,14.39-6.92,21.87-1.51,1.25-3.01,2.49-4.51,3.74-2.19,1.82-4.4,3.71-6.45,5.72-.29-12.84-.2-26.13.73-38.8,9.65.57,19.49-2.98,26.52-9.63,7.31-6.93,11.44-17.1,11.03-27.17-7.27,5.82-16.73,8.26-24.27,13.72-5.76,4.17-10.21,10.08-12.73,16.73.04-.38.08-.75.12-1.13,1.89-6.92,3.58-18.26-2.13-26.71-5.04-7.45-14.17-11.32-23.08-12.53.95,6.23,1.9,12.45,2.85,18.68.61,4,1.17,8.05,2.66,11.81,3.8,9.58,15.91,14.31,17.44,14.87-2.63,11.65-4.06,23.8-4.92,36.01-.77-1.46-1.64-2.87-2.55-4.26-2.83-4.33-5.99-8.45-9.41-12.33,1.66-9.64,2.36-19.55-1.76-28.25-4.09-8.65-12.43-14.64-21.3-18.23-8.86-3.58-18.41-5.1-27.74-7.16-.3,10.77-.45,21.73,2.45,32.11,2.9,10.38,9.3,20.28,19.02,24.94,8.26,3.96,17.8,3.74,26.98,3.29,4.69,7.25,9.22,14.6,13.61,22.04-.38,8.25-.59,16.47-.83,24.5-.13,4.29-.24,8.21-.34,11.83-4.57-4.19-11.21-9.92-16.09-13.29-.3-6.87-.97-13.73-3.01-20.27-2.5-8.01-7.28-15.59-14.48-19.91-15.14-9.07-35.49-1.38-51.74-8.28.75,8.83,2.09,17.68,5.23,25.97,3.14,8.28,8.2,16.01,15.34,21.25,6.82,4.99,15.24,7.5,23.67,8.14,7.45.56,14.92-.27,22.26-1.7,6.42,5.88,12.61,12.19,18.57,18.43-.52,23.37-.32,32.45-.67,52.25,2.86-.33,14.28-.19,17.14,0-3.06-16-4.86-32.15-5.83-47.22,7.5-9.71,16.27-18.45,26-25.92,7.17,5.75,15.59,10.04,24.66,11.36,10.18,1.48,21.17-1.09,28.75-8.05,12.55-11.51,13.23-31.42,23.9-44.68-8.87,3.91-19.04.54-28.72-.06ZM284.26,392.61c.17-.17.39-.32.64-.47,3.77-6.69,6.26-14.1,7.26-21.72-.24,4.35.1,8.75-.77,13.02-.4,1.95-1.13,3.9-2.18,5.6,2.76-2.13,5.48-4.44,8.14-6.86.72-1.78,1.39-3.84,1.73-5.13,1.48-5.84,2.45-9.55,3.63-15.65.42,6.14-.18,9.8-.77,14.02-.16,1.13-.38,2.15-.68,3.08,7.04-6.85,13.54-14.31,19.16-21.08-2.86,6.65-8.5,14.23-15.05,21.12,5.25-1.29,10-3.13,15.21-6.87-4.53,6.22-10.43,8.73-17.79,9.5-3.39,3.34-6.95,6.46-10.45,9.14,2.89-.3,6-.36,8.44-.19,3.19.22,8.11-.17,10.65-1.89-2.65,3.69-7.19,5.84-15.13,4.99-1.46-.16-4.64-.32-7.37-.43-.16.11-.32.22-.47.33-3.27,2.22-7.11,3.46-11.06,3.66h-.05c2.33-1.22,4.64-2.63,6.93-4.18ZM274.04,359.05c2.1-4.04,3.64-7.35,4.96-12.91.48,4.41-.95,8-2.19,10.54,5.56-4.92,10.67-10.33,15.22-16.2-3.04,6.92-7.8,13.05-13.66,17.82.73-.27,1.47-.54,2.2-.81,2.93-1.07,5.97-2.21,8.17-4.42-2.31,4.49-7.51,7.26-12.51,6.88-3.56,2.59-7.47,4.7-11.61,6.2,3.26-2.21,6.4-4.59,9.43-7.11ZM259.52,361.5c-.66-2.53-1.43-5.05-2.29-7.55-4.33-2.58-10.53-8.26-11.8-10.91,3.92,3.01,7.16,5.5,10.88,8.37-2.53-6.86-5.65-13.55-8.93-20.01.46.7,3.66,4.12,5.82,8.52,1.83,3.73,3.88,7.43,5.2,11.22.76-4.59.95-9.28.55-13.92,1.6,3.95,1.41,11.58.1,16.05.7,2.66.97,5.39.47,8.23ZM233.75,382.32c-4.87.1-13.97-.08-16.37-.65-2.64-.63-7.34-2.09-10.08-4.87,7.5,2.19,15.41,2.94,23.2,2.26-1.68-1.75-3.4-3.64-5.1-5.6-4.59-.22-9.76-.62-11.48-1.09-2.62-.72-7.26-2.37-9.9-5.24,6.01,2,12.33,3.01,18.66,3.12-1.24-1.5-2.46-3.02-3.64-4.55-6.75-1.36-13.11-4.62-18.08-9.38,5.01,1.77,10.01,3.54,15.02,5.31-4.4-6.03-8.08-11.93-10.07-16.45,3.23,3.4,7.58,8.4,12.14,13.88-.13-.96-.19-1.93-.19-2.89.01-4.07.18-8.27,1.13-12.17.43,5.91.85,11.83,1.28,17.75,1.54,1.88,3.09,3.79,4.61,5.7-.03-.41-.05-.85-.05-1.31,0-4.07-.63-11.32,1.21-14.93.47,6.49.93,12.98,1.4,19.47,1.81,2.31,3.56,4.57,5.17,6.71.01-.17.02-.35.04-.51.62-6.23,1.24-12.47,1.87-18.71,1.73,7,1.63,14.45-.27,21.41,2.29,3.09,4.24,5.85,5.63,8.01-1.88-1.39-3.95-3.19-6.12-5.27ZM233.82,439.82c-2.07-.39-4.03-1.14-5.84-2.22-.97-.58-1.97-1.19-2.99-1.84-9.55,2.75-20,2.24-29.23-1.44,8.44.21,16,.8,25.64-.88-2.89-1.9-5.87-3.95-8.76-5.98-4.31.26-8.64.46-12.93.03-4.63-.46-9.27-1.71-13.17-4.27,6.9.83,13.88,1.65,20.78.79.14-.02.28-.04.42-.05-2.22-1.6-4.31-3.13-6.15-4.5-1.45-1.08-2.9-2.18-4.32-3.32-6.76.86-13.94.39-19.57-3.37,6.59,1.47,10.86,1.16,16.36.66-4.2-3.72-7.94-7.88-10.52-12.83,4.66,3.87,8.92,7.24,12.89,10.28-.69-3.02-1.66-8.31-1.04-11.49,1.34,4.58,2.68,9.17,4.03,13.75,3.16,2.38,6.15,4.57,9.01,6.67-1.49-7.25-1.94-12.51-.66-17.12,1.38,7.49,1.43,12.52,3.97,19.53,3.57,2.61,6.97,5.11,10.34,7.73-1.18-7.06-2-14.21-.82-21.24.22,8.05,2.8,16.57,4.89,24.47,2.54,2.07,5.1,4.24,7.71,6.61h-.03ZM333.12,423.97c5.37-.79,10.27-.16,17.35-1.09-6.89,3.72-15.22,4.26-22.64,4.21-2.21,1.24-4.45,2.41-6.69,3.51,6.41,2.61,12.64,4.09,19.96,6.28-10.22.5-16.07-1.37-22.94-4.87-2.87,1.32-5.71,2.49-8.46,3.49,3.01,1.07,5.75,3.02,8.43,4.85,3.57,2.45,8.45,3.65,11.83,4.76-8.68.54-17.52-2.56-23.98-8.37-3.99,1.1-8.19,1.17-12.24.23h-.07c3.76-.81,7.59-1.92,11.44-3.29,3.56-5.59,6.18-11.79,7.68-18.25.62,4.82-.45,8.03-1.43,11.91-.43,1.7-1.18,3.4-2.23,4.82,2.63-1.04,5.26-2.19,7.88-3.43,2.71-6.39,4.32-13.24,4.74-20.17,1.48,4.82.95,8.28.63,12.42-.16,2.08-.77,4.23-1.82,6.02,1.17-.58,2.34-1.18,3.5-1.8,3.9-5.09,7.32-10.55,10.19-16.29.07,3.84-1.65,8.65-3.52,12.01-.18.33-.38.64-.57.94,8.45-4.81,16.53-10.1,23.73-15.04-4.78,5.87-12.34,11.89-20.76,17.12Z"/>
  </g>
  <g>
    <path class="cls-2" d="M253.04,758.08c-48.5,0-90.34-38.11-90.34-98.86s44.5-101.26,98.33-101.26c33.58,0,73.55,14.66,73.55,49.03,0,21.85-17.05,33.31-32.51,33.31s-29.31-10.66-25.85-32.24c2.4-16.52-4-33.58-19.72-33.58s-36.77,17.59-36.77,62.36,20.25,71.15,55.96,71.15c15.99,0,36.24-5.6,44.77-25.32,2.66-6.4,5.6-8.26,8.79-7.46,3.2.8,6.93,4.53,4,19.45-7.2,34.11-37.31,63.42-80.21,63.42Z"/>
    <path class="cls-2" d="M367.09,712.24v-108.46c0-8.53-2.93-18.92-7.46-27.71-4.26-9.86-2.13-15.19,7.46-15.46h58.63c9.59.27,11.73,5.6,7.46,15.46-4.53,8.79-7.46,19.19-7.46,27.71v108.46c0,8.53,2.93,18.92,7.46,27.71,4.26,9.86,2.13,15.19-7.46,15.46h-58.63c-9.59-.27-11.72-5.6-7.46-15.46,4.53-8.79,7.46-19.19,7.46-27.71Z"/>
    <path class="cls-2" d="M675.94,560.62c9.86.27,11.99,5.6,7.46,15.46-4.26,8.79-7.46,19.19-7.46,27.71v108.46c0,8.53,3.2,18.92,7.46,27.71,4.53,9.86,2.4,15.19-7.46,15.46h-58.36c-9.59-.27-11.99-5.6-7.46-15.46,4.53-8.79,7.46-19.19,7.46-27.71v-100.46l-45.57,130.31c-3.46,9.33-10.66,13.32-20.79,13.32s-17.05-3.46-20.25-12.52l-42.1-119.65v89c0,8.53,8.53,18.92,13.06,27.71,4.53,9.86,2.13,15.19-7.46,15.46h-27.98c-9.59-.27-11.73-5.6-7.46-15.46,4.53-8.79,13.06-19.19,13.06-27.71v-108.46c0-8.53-8.53-18.92-13.06-27.71-4.26-9.86-2.13-15.19,7.46-15.46h48.5c8.26,0,15.46,5.33,18.39,13.06l39.71,114.85,39.97-114.85c2.93-7.73,10.13-13.06,18.39-13.06h44.5Z"/>
    <path class="cls-2" d="M718.84,712.24v-108.46c0-8.53-2.93-18.92-7.46-27.71-4.26-9.86-2.13-15.19,7.46-15.46h58.63c9.59.27,11.73,5.6,7.46,15.46-4.53,8.79-7.46,19.19-7.46,27.71v108.46c0,8.53,2.93,18.92,7.46,27.71,4.26,9.86,2.13,15.19-7.46,15.46h-58.63c-9.59-.27-11.72-5.6-7.46-15.46,4.53-8.79,7.46-19.19,7.46-27.71Z"/>
    <path class="cls-2" d="M878.72,738.63h27.45c32.51,0,33.04-30.11,46.1-36.51,1.33-.53,2.4-.8,3.73-.8,4,0,7.19,3.2,7.19,10.66v35.97c0,4.26-2.93,7.46-7.46,7.46h-135.37c-9.86,0-12.26-5.6-7.46-15.46,4-8.79,7.46-19.19,7.46-27.71v-108.46c0-8.53-3.46-18.92-7.46-27.71-4.8-9.86-2.4-15.46,7.46-15.46h135.37c4.53,0,7.46,3.2,7.46,7.46v35.97c0,7.46-3.2,10.66-7.19,10.66-1.33,0-2.4-.27-3.73-.8-13.06-6.4-13.59-36.51-46.1-36.51h-27.45v72.22h22.38c8.53,0,18.92-6.13,26.11-11.72,4.8-3.73,7.99-5.33,10.13-5.33,2.93,0,4,3.2,4,8.79v33.31c0,5.6-1.07,8.79-4,8.79-2.13,0-5.33-1.6-10.13-5.33-7.19-5.6-17.59-11.72-26.11-11.72h-22.38v72.22Z"/>
    <path class="cls-2" d="M1099.9,755.42c-8.53,0-16.52-5.06-19.99-12.52l-62.09-129.24v98.6c0,8.53,8.53,18.92,13.06,27.71,4.53,9.86,2.13,15.19-7.46,15.46h-27.98c-9.59-.27-11.72-5.6-7.46-15.46,4.53-8.79,13.06-19.19,13.06-27.71v-108.46c0-8.53-8.53-18.92-13.06-27.71-3.73-8.79-2.4-15.46,4.8-15.46h50.63c8.26,0,16.52,5.06,19.99,12.52l67.15,139.64v-108.99c0-8.53-8.79-18.92-13.06-27.71-4.53-9.86-2.4-15.19,7.46-15.46h27.71c9.86.27,11.99,5.6,7.46,15.46-4.26,8.79-13.06,19.19-13.06,27.71v137.77c0,8.26-5.6,13.86-13.86,13.86h-33.31Z"/>
    <path class="cls-2" d="M1233.94,577.41c-32.51,0-32.78,27.45-45.83,33.84-1.33.53-2.66.8-4,.8-4,0-7.2-3.2-7.2-10.66v-33.31c0-4.26,3.2-7.46,7.46-7.46h168.68c4.26,0,7.46,3.2,7.46,7.46v33.31c0,7.46-3.2,10.66-7.2,10.66-1.33,0-2.66-.27-4-.8-13.06-6.39-13.32-33.84-45.83-33.84h-5.6v134.84c0,8.53,3.46,18.92,7.46,27.71,4.8,9.86,2.4,15.46-7.46,15.46h-58.36c-9.86,0-12.26-5.6-7.46-15.46,4-8.79,7.46-19.19,7.46-27.71v-134.84h-5.6Z"/>
    <path class="cls-2" d="M1475.63,557.95c54.36,0,98.86,38.11,98.86,100.2s-44.5,99.93-98.86,99.93-99.4-38.11-99.4-99.93,44.5-100.2,99.4-100.2ZM1475.63,741.56c21.59,0,39.17-17.59,39.17-83.41s-17.59-83.67-39.17-83.67-39.71,17.59-39.71,83.67,17.85,83.41,39.71,83.41Z"/>
    <path class="cls-2" d="M1708.8,720.77c0-28.51-112.19-40.51-112.19-102.33,0-32.78,31.44-60.49,77.01-60.49,30.65,0,77.55,12.52,77.55,44.77,0,17.32-13.59,31.71-30.65,31.71-14.66,0-25.32-10.39-25.32-30.11,0-17.05-8.26-29.85-21.05-29.85-13.86,0-21.85,14.92-21.85,25.58,0,39.71,104.99,36.51,104.99,100.2,0,34.11-29.85,57.83-79.14,57.83-42.9,0-82.08-17.85-82.08-45.84,0-16.52,13.59-30.91,30.91-30.91,14.39,0,25.32,10.39,25.32,25.58,0,9.59-4.26,34.64,23.45,34.64,16.79,0,33.04-9.86,33.04-20.79Z"/>
  </g>
  <g>
    <rect class="cls-1" x="162.91" y="481.14" width="1594.37" height="43.83"/>
    <rect class="cls-4" x="162.91" y="466.94" width="1594.39" height="14.2"/>
    <rect class="cls-3" x="162.91" y="524.97" width="1594.39" height="14.2"/>
    <g>
      <g>
        <g>
          <g>
            <path class="cls-5" d="M742.72,503.07l-18.1,18.1-18.1-18.1,18.1-18.1,18.1,18.1ZM724.62,517.6l14.53-14.53-14.53-14.53-14.53,14.53,14.53,14.53Z"/>
            <path class="cls-2" d="M734.32,503.07l-9.7,9.7-9.7-9.7,9.7-9.7,9.7,9.7ZM724.62,509.2l6.13-6.13-6.13-6.13-6.13,6.13,6.13,6.13Z"/>
          </g>
          <g>
            <path class="cls-5" d="M706.52,503.07l-18.1,18.1-18.1-18.1,18.1-18.1,18.1,18.1ZM688.42,517.6l14.53-14.53-14.53-14.53-14.53,14.53,14.53,14.53Z"/>
            <path class="cls-2" d="M698.12,503.07l-9.7,9.7-9.7-9.7,9.7-9.7,9.7,9.7ZM688.42,509.2l6.13-6.13-6.13-6.13-6.13,6.13,6.13,6.13Z"/>
          </g>
          <g>
            <path class="cls-5" d="M670.32,503.07l-18.1,18.1-18.1-18.1,18.1-18.1,18.1,18.1ZM652.22,517.6l14.53-14.53-14.53-14.53-14.53,14.53,14.53,14.53Z"/>
            <path class="cls-2" d="M661.92,503.07l-9.7,9.7-9.7-9.7,9.7-9.7,9.7,9.7ZM652.22,509.2l6.13-6.13-6.13-6.13-6.13,6.13,6.13,6.13Z"/>
          </g>
          <g>
            <path class="cls-5" d="M634.12,503.07l-18.1,18.1-18.1-18.1,18.1-18.1,18.1,18.1ZM616.02,517.6l14.53-14.53-14.53-14.53-14.53,14.53,14.53,14.53Z"/>
            <path class="cls-2" d="M625.72,503.07l-9.7,9.7-9.7-9.7,9.7-9.7,9.7,9.7ZM616.02,509.2l6.13-6.13-6.13-6.13-6.13,6.13,6.13,6.13Z"/>
          </g>
          <g>
            <path class="cls-5" d="M597.92,503.07l-18.1,18.1-18.1-18.1,18.1-18.1,18.1,18.1ZM579.82,517.6l14.53-14.53-14.53-14.53-14.53,14.53,14.53,14.53Z"/>
            <path class="cls-2" d="M589.52,503.07l-9.7,9.7-9.7-9.7,9.7-9.7,9.7,9.7ZM579.82,509.2l6.13-6.13-6.13-6.13-6.13,6.13,6.13,6.13Z"/>
          </g>
          <g>
            <path class="cls-5" d="M561.72,503.07l-18.1,18.1-18.1-18.1,18.1-18.1,18.1,18.1ZM543.62,517.6l14.53-14.53-14.53-14.53-14.53,14.53,14.53,14.53Z"/>
            <path class="cls-2" d="M553.32,503.07l-9.7,9.7-9.7-9.7,9.7-9.7,9.7,9.7ZM543.62,509.2l6.13-6.13-6.13-6.13-6.13,6.13,6.13,6.13Z"/>
          </g>
          <g>
            <path class="cls-5" d="M525.52,503.07l-18.1,18.1-18.1-18.1,18.1-18.1,18.1,18.1ZM507.42,517.6l14.53-14.53-14.53-14.53-14.53,14.53,14.53,14.53Z"/>
            <path class="cls-2" d="M517.12,503.07l-9.7,9.7-9.7-9.7,9.7-9.7,9.7,9.7ZM507.42,509.2l6.13-6.13-6.13-6.13-6.13,6.13,6.13,6.13Z"/>
          </g>
          <g>
            <path class="cls-5" d="M489.32,503.07l-18.1,18.1-18.1-18.1,18.1-18.1,18.1,18.1ZM471.22,517.6l14.53-14.53-14.53-14.53-14.53,14.53,14.53,14.53Z"/>
            <path class="cls-2" d="M480.92,503.07l-9.7,9.7-9.7-9.7,9.7-9.7,9.7,9.7ZM471.22,509.2l6.13-6.13-6.13-6.13-6.13,6.13,6.13,6.13Z"/>
          </g>
          <g>
            <path class="cls-5" d="M453.12,503.07l-18.1,18.1-18.1-18.1,18.1-18.1,18.1,18.1ZM435.02,517.6l14.53-14.53-14.53-14.53-14.53,14.53,14.53,14.53Z"/>
            <path class="cls-2" d="M444.72,503.07l-9.7,9.7-9.7-9.7,9.7-9.7,9.7,9.7ZM435.02,509.2l6.13-6.13-6.13-6.13-6.13,6.13,6.13,6.13Z"/>
          </g>
          <g>
            <path class="cls-5" d="M416.92,503.07l-18.1,18.1-18.1-18.1,18.1-18.1,18.1,18.1ZM398.82,517.6l14.53-14.53-14.53-14.53-14.53,14.53,14.53,14.53Z"/>
            <path class="cls-2" d="M408.52,503.07l-9.7,9.7-9.7-9.7,9.7-9.7,9.7,9.7ZM398.82,509.2l6.13-6.13-6.13-6.13-6.13,6.13,6.13,6.13Z"/>
          </g>
          <g>
            <path class="cls-5" d="M380.72,503.07l-18.1,18.1-18.1-18.1,18.1-18.1,18.1,18.1ZM362.62,517.6l14.53-14.53-14.53-14.53-14.53,14.53,14.53,14.53Z"/>
            <path class="cls-2" d="M372.32,503.07l-9.7,9.7-9.7-9.7,9.7-9.7,9.7,9.7ZM362.62,509.2l6.13-6.13-6.13-6.13-6.13,6.13,6.13,6.13Z"/>
          </g>
          <g>
            <path class="cls-5" d="M344.52,503.07l-18.1,18.1-18.1-18.1,18.1-18.1,18.1,18.1ZM326.42,517.6l14.53-14.53-14.53-14.53-14.53,14.53,14.53,14.53Z"/>
            <path class="cls-2" d="M336.12,503.07l-9.7,9.7-9.7-9.7,9.7-9.7,9.7,9.7ZM326.42,509.2l6.13-6.13-6.13-6.13-6.13,6.13,6.13,6.13Z"/>
          </g>
          <g>
            <path class="cls-5" d="M308.32,503.07l-18.1,18.1-18.1-18.1,18.1-18.1,18.1,18.1ZM290.22,517.6l14.53-14.53-14.53-14.53-14.53,14.53,14.53,14.53Z"/>
            <path class="cls-2" d="M299.92,503.07l-9.7,9.7-9.7-9.7,9.7-9.7,9.7,9.7ZM290.22,509.2l6.13-6.13-6.13-6.13-6.13,6.13,6.13,6.13Z"/>
          </g>
          <g>
            <path class="cls-5" d="M272.12,503.07l-18.1,18.1-18.1-18.1,18.1-18.1,18.1,18.1ZM254.02,517.6l14.53-14.53-14.53-14.53-14.53,14.53,14.53,14.53Z"/>
            <path class="cls-2" d="M263.72,503.07l-9.7,9.7-9.7-9.7,9.7-9.7,9.7,9.7ZM254.02,509.2l6.13-6.13-6.13-6.13-6.13,6.13,6.13,6.13Z"/>
          </g>
          <g>
            <path class="cls-5" d="M235.92,503.07l-18.1,18.1-18.1-18.1,18.1-18.1,18.1,18.1ZM217.82,517.6l14.53-14.53-14.53-14.53-14.53,14.53,14.53,14.53Z"/>
            <path class="cls-2" d="M227.52,503.07l-9.7,9.7-9.7-9.7,9.7-9.7,9.7,9.7ZM217.82,509.2l6.13-6.13-6.13-6.13-6.13,6.13,6.13,6.13Z"/>
          </g>
          <g>
            <polygon class="cls-2" points="228.05 521.39 231.62 521.39 236.45 516.56 241.28 521.39 244.85 521.39 236.45 512.99 228.05 521.39"/>
            <polygon class="cls-2" points="191.32 521.39 194.89 521.39 199.72 516.56 204.55 521.39 208.12 521.39 199.72 512.99 191.32 521.39"/>
            <polygon class="cls-2" points="263.72 521.39 267.29 521.39 272.12 516.56 276.95 521.39 280.52 521.39 272.12 512.99 263.72 521.39"/>
            <polyline class="cls-2" points="308.85 516.56 313.68 521.39 317.25 521.39 308.85 512.99 300.45 521.39 304.02 521.39"/>
            <polygon class="cls-2" points="336.12 521.39 339.69 521.39 344.52 516.56 349.35 521.39 352.92 521.39 344.52 512.99 336.12 521.39"/>
            <polygon class="cls-2" points="372.58 521.39 376.15 521.39 380.98 516.56 385.82 521.39 389.39 521.39 380.98 512.99 372.58 521.39"/>
            <polygon class="cls-2" points="408.25 521.39 411.82 521.39 416.65 516.56 421.49 521.39 425.06 521.39 416.65 512.99 408.25 521.39"/>
            <polygon class="cls-2" points="444.98 521.39 448.55 521.39 453.38 516.56 458.22 521.39 461.79 521.39 453.38 512.99 444.98 521.39"/>
            <polygon class="cls-2" points="480.65 521.39 484.22 521.39 489.05 516.56 493.89 521.39 497.46 521.39 489.05 512.99 480.65 521.39"/>
            <polygon class="cls-2" points="517.38 521.39 520.95 521.39 525.78 516.56 530.62 521.39 534.19 521.39 525.78 512.99 517.38 521.39"/>
            <polygon class="cls-2" points="553.05 521.39 556.62 521.39 561.45 516.56 566.29 521.39 569.86 521.39 561.45 512.99 553.05 521.39"/>
            <polygon class="cls-2" points="589.78 521.39 593.35 521.39 598.18 516.56 603.02 521.39 606.59 521.39 598.18 512.99 589.78 521.39"/>
            <polygon class="cls-2" points="625.45 521.39 629.02 521.39 633.85 516.56 638.69 521.39 642.26 521.39 633.85 512.99 625.45 521.39"/>
            <polygon class="cls-2" points="662.18 521.39 665.75 521.39 670.58 516.56 675.42 521.39 678.99 521.39 670.58 512.99 662.18 521.39"/>
            <polygon class="cls-2" points="697.85 521.39 701.42 521.39 706.25 516.56 711.09 521.39 714.66 521.39 706.25 512.99 697.85 521.39"/>
            <polygon class="cls-2" points="734.58 521.39 738.15 521.39 742.98 516.56 747.82 521.39 751.38 521.39 742.98 512.99 734.58 521.39"/>
          </g>
          <g>
            <polygon class="cls-2" points="228.05 484.82 231.62 484.82 236.45 489.66 241.28 484.82 244.85 484.82 236.45 493.22 228.05 484.82"/>
            <polygon class="cls-2" points="191.32 484.82 194.89 484.82 199.72 489.66 204.55 484.82 208.12 484.82 199.72 493.22 191.32 484.82"/>
            <polygon class="cls-2" points="263.72 484.82 267.29 484.82 272.12 489.66 276.95 484.82 280.52 484.82 272.12 493.22 263.72 484.82"/>
            <polygon class="cls-2" points="300.45 484.82 304.02 484.82 308.85 489.66 313.68 484.82 317.25 484.82 308.85 493.22 300.45 484.82"/>
            <polygon class="cls-2" points="336.12 484.82 339.69 484.82 344.52 489.66 349.35 484.82 352.92 484.82 344.52 493.22 336.12 484.82"/>
            <polyline class="cls-2" points="385.82 484.82 389.39 484.82 380.98 493.22 372.58 484.82 376.15 484.82 380.98 489.66"/>
            <polygon class="cls-2" points="408.25 484.82 411.82 484.82 416.65 489.66 421.49 484.82 425.06 484.82 416.65 493.22 408.25 484.82"/>
            <polygon class="cls-2" points="444.98 484.82 448.55 484.82 453.38 489.66 458.22 484.82 461.79 484.82 453.38 493.22 444.98 484.82"/>
            <polygon class="cls-2" points="480.65 484.82 484.22 484.82 489.05 489.66 493.89 484.82 497.46 484.82 489.05 493.22 480.65 484.82"/>
            <polygon class="cls-2" points="517.38 484.82 520.95 484.82 525.78 489.66 530.62 484.82 534.19 484.82 525.78 493.22 517.38 484.82"/>
            <polygon class="cls-2" points="553.05 484.82 556.62 484.82 561.45 489.66 566.29 484.82 569.86 484.82 561.45 493.22 553.05 484.82"/>
            <polygon class="cls-2" points="589.78 484.82 593.35 484.82 598.18 489.66 603.02 484.82 606.59 484.82 598.18 493.22 589.78 484.82"/>
            <polygon class="cls-2" points="625.45 484.82 629.02 484.82 633.85 489.66 638.69 484.82 642.26 484.82 633.85 493.22 625.45 484.82"/>
            <polygon class="cls-2" points="662.18 484.82 665.75 484.82 670.58 489.66 675.42 484.82 678.99 484.82 670.58 493.22 662.18 484.82"/>
            <polygon class="cls-2" points="697.85 484.82 701.42 484.82 706.25 489.66 711.09 484.82 714.66 484.82 706.25 493.22 697.85 484.82"/>
            <polygon class="cls-2" points="734.58 484.82 738.15 484.82 742.98 489.66 747.82 484.82 751.38 484.82 742.98 493.22 734.58 484.82"/>
          </g>
          <g>
            <path class="cls-5" d="M199.72,503.07l-18.1,18.1-18.1-18.1,18.1-18.1,18.1,18.1ZM181.62,517.6l14.53-14.53-14.53-14.53-14.53,14.53,14.53,14.53Z"/>
            <path class="cls-2" d="M191.32,503.07l-9.7,9.7-9.7-9.7,9.7-9.7,9.7,9.7ZM181.62,509.2l6.13-6.13-6.13-6.13-6.13,6.13,6.13,6.13Z"/>
          </g>
          <g>
            <path class="cls-2" d="M778.92,503.07l-18.1,18.1-18.1-18.1,18.1-18.1,18.1,18.1ZM760.82,517.6l14.53-14.53-14.53-14.53-14.53,14.53,14.53,14.53Z"/>
            <path class="cls-2" d="M770.52,503.07l-9.7,9.7-9.7-9.7,9.7-9.7,9.7,9.7ZM760.82,509.2l6.13-6.13-6.13-6.13-6.13,6.13,6.13,6.13Z"/>
          </g>
        </g>
        <g>
          <g>
            <path class="cls-5" d="M1249.52,503.07l-18.1,18.1-18.1-18.1,18.1-18.1,18.1,18.1ZM1231.42,517.6l14.53-14.53-14.53-14.53-14.53,14.53,14.53,14.53Z"/>
            <path class="cls-2" d="M1241.11,503.07l-9.7,9.7-9.7-9.7,9.7-9.7,9.7,9.7ZM1231.42,509.2l6.13-6.13-6.13-6.13-6.13,6.13,6.13,6.13Z"/>
          </g>
          <g>
            <path class="cls-5" d="M1213.32,503.07l-18.1,18.1-18.1-18.1,18.1-18.1,18.1,18.1ZM1195.22,517.6l14.53-14.53-14.53-14.53-14.53,14.53,14.53,14.53Z"/>
            <path class="cls-2" d="M1204.91,503.07l-9.7,9.7-9.7-9.7,9.7-9.7,9.7,9.7ZM1195.22,509.2l6.13-6.13-6.13-6.13-6.13,6.13,6.13,6.13Z"/>
          </g>
          <g>
            <path class="cls-5" d="M1177.12,503.07l-18.1,18.1-18.1-18.1,18.1-18.1,18.1,18.1ZM1159.02,517.6l14.53-14.53-14.53-14.53-14.53,14.53,14.53,14.53Z"/>
            <path class="cls-2" d="M1168.71,503.07l-9.7,9.7-9.7-9.7,9.7-9.7,9.7,9.7ZM1159.02,509.2l6.13-6.13-6.13-6.13-6.13,6.13,6.13,6.13Z"/>
          </g>
          <g>
            <path class="cls-5" d="M1140.92,503.07l-18.1,18.1-18.1-18.1,18.1-18.1,18.1,18.1ZM1122.82,517.6l14.53-14.53-14.53-14.53-14.53,14.53,14.53,14.53Z"/>
            <path class="cls-2" d="M1132.51,503.07l-9.7,9.7-9.7-9.7,9.7-9.7,9.7,9.7ZM1122.82,509.2l6.13-6.13-6.13-6.13-6.13,6.13,6.13,6.13Z"/>
          </g>
          <g>
            <path class="cls-5" d="M1104.72,503.07l-18.1,18.1-18.1-18.1,18.1-18.1,18.1,18.1ZM1086.62,517.6l14.53-14.53-14.53-14.53-14.53,14.53,14.53,14.53Z"/>
            <path class="cls-2" d="M1096.31,503.07l-9.7,9.7-9.7-9.7,9.7-9.7,9.7,9.7ZM1086.62,509.2l6.13-6.13-6.13-6.13-6.13,6.13,6.13,6.13Z"/>
          </g>
          <g>
            <path class="cls-5" d="M1068.52,503.07l-18.1,18.1-18.1-18.1,18.1-18.1,18.1,18.1ZM1050.42,517.6l14.53-14.53-14.53-14.53-14.53,14.53,14.53,14.53Z"/>
            <path class="cls-2" d="M1060.11,503.07l-9.7,9.7-9.7-9.7,9.7-9.7,9.7,9.7ZM1050.42,509.2l6.13-6.13-6.13-6.13-6.13,6.13,6.13,6.13Z"/>
          </g>
          <g>
            <path class="cls-5" d="M1032.32,503.07l-18.1,18.1-18.1-18.1,18.1-18.1,18.1,18.1ZM1014.22,517.6l14.53-14.53-14.53-14.53-14.53,14.53,14.53,14.53Z"/>
            <path class="cls-2" d="M1023.91,503.07l-9.7,9.7-9.7-9.7,9.7-9.7,9.7,9.7ZM1014.22,509.2l6.13-6.13-6.13-6.13-6.13,6.13,6.13,6.13Z"/>
          </g>
          <g>
            <path class="cls-5" d="M996.12,503.07l-18.1,18.1-18.1-18.1,18.1-18.1,18.1,18.1ZM978.02,517.6l14.53-14.53-14.53-14.53-14.53,14.53,14.53,14.53Z"/>
            <path class="cls-2" d="M987.71,503.07l-9.7,9.7-9.7-9.7,9.7-9.7,9.7,9.7ZM978.02,509.2l6.13-6.13-6.13-6.13-6.13,6.13,6.13,6.13Z"/>
          </g>
          <g>
            <path class="cls-5" d="M959.92,503.07l-18.1,18.1-18.1-18.1,18.1-18.1,18.1,18.1ZM941.82,517.6l14.53-14.53-14.53-14.53-14.53,14.53,14.53,14.53Z"/>
            <path class="cls-2" d="M951.51,503.07l-9.7,9.7-9.7-9.7,9.7-9.7,9.7,9.7ZM941.82,509.2l6.13-6.13-6.13-6.13-6.13,6.13,6.13,6.13Z"/>
          </g>
          <g>
            <path class="cls-5" d="M923.72,503.07l-18.1,18.1-18.1-18.1,18.1-18.1,18.1,18.1ZM905.62,517.6l14.53-14.53-14.53-14.53-14.53,14.53,14.53,14.53Z"/>
            <path class="cls-2" d="M915.31,503.07l-9.7,9.7-9.7-9.7,9.7-9.7,9.7,9.7ZM905.62,509.2l6.13-6.13-6.13-6.13-6.13,6.13,6.13,6.13Z"/>
          </g>
          <g>
            <path class="cls-5" d="M887.52,503.07l-18.1,18.1-18.1-18.1,18.1-18.1,18.1,18.1ZM869.42,517.6l14.53-14.53-14.53-14.53-14.53,14.53,14.53,14.53Z"/>
            <path class="cls-2" d="M879.11,503.07l-9.7,9.7-9.7-9.7,9.7-9.7,9.7,9.7ZM869.42,509.2l6.13-6.13-6.13-6.13-6.13,6.13,6.13,6.13Z"/>
          </g>
          <g>
            <path class="cls-5" d="M851.32,503.07l-18.1,18.1-18.1-18.1,18.1-18.1,18.1,18.1ZM833.22,517.6l14.53-14.53-14.53-14.53-14.53,14.53,14.53,14.53Z"/>
            <path class="cls-2" d="M842.92,503.07l-9.7,9.7-9.7-9.7,9.7-9.7,9.7,9.7ZM833.22,509.2l6.13-6.13-6.13-6.13-6.13,6.13,6.13,6.13Z"/>
          </g>
          <g>
            <path class="cls-5" d="M815.12,503.07l-18.1,18.1-18.1-18.1,18.1-18.1,18.1,18.1ZM797.02,517.6l14.53-14.53-14.53-14.53-14.53,14.53,14.53,14.53Z"/>
            <path class="cls-2" d="M806.72,503.07l-9.7,9.7-9.7-9.7,9.7-9.7,9.7,9.7ZM797.02,509.2l6.13-6.13-6.13-6.13-6.13,6.13,6.13,6.13Z"/>
          </g>
          <g>
            <polygon class="cls-2" points="807.24 521.39 810.81 521.39 815.65 516.56 820.48 521.39 824.05 521.39 815.65 512.99 807.24 521.39"/>
            <polygon class="cls-2" points="770.52 521.39 774.08 521.39 778.92 516.56 783.75 521.39 787.32 521.39 778.92 512.99 770.52 521.39"/>
            <polygon class="cls-2" points="842.92 521.39 846.48 521.39 851.32 516.56 856.15 521.39 859.72 521.39 851.32 512.99 842.92 521.39"/>
            <polyline class="cls-2" points="888.05 516.56 892.88 521.39 896.45 521.39 888.05 512.99 879.64 521.39 883.21 521.39"/>
            <polygon class="cls-2" points="915.31 521.39 918.88 521.39 923.72 516.56 928.55 521.39 932.12 521.39 923.72 512.99 915.31 521.39"/>
            <polygon class="cls-2" points="951.78 521.39 955.35 521.39 960.18 516.56 965.02 521.39 968.58 521.39 960.18 512.99 951.78 521.39"/>
            <polygon class="cls-2" points="987.45 521.39 991.02 521.39 995.85 516.56 1000.69 521.39 1004.25 521.39 995.85 512.99 987.45 521.39"/>
            <polygon class="cls-2" points="1024.18 521.39 1027.75 521.39 1032.58 516.56 1037.41 521.39 1040.98 521.39 1032.58 512.99 1024.18 521.39"/>
            <polygon class="cls-2" points="1059.85 521.39 1063.42 521.39 1068.25 516.56 1073.09 521.39 1076.65 521.39 1068.25 512.99 1059.85 521.39"/>
            <polygon class="cls-2" points="1096.58 521.39 1100.15 521.39 1104.98 516.56 1109.81 521.39 1113.38 521.39 1104.98 512.99 1096.58 521.39"/>
            <polygon class="cls-2" points="1132.25 521.39 1135.82 521.39 1140.65 516.56 1145.48 521.39 1149.05 521.39 1140.65 512.99 1132.25 521.39"/>
            <polygon class="cls-2" points="1168.98 521.39 1172.55 521.39 1177.38 516.56 1182.21 521.39 1185.78 521.39 1177.38 512.99 1168.98 521.39"/>
            <polygon class="cls-2" points="1204.65 521.39 1208.22 521.39 1213.05 516.56 1217.88 521.39 1221.45 521.39 1213.05 512.99 1204.65 521.39"/>
            <polygon class="cls-2" points="1241.38 521.39 1244.95 521.39 1249.78 516.56 1254.61 521.39 1258.18 521.39 1249.78 512.99 1241.38 521.39"/>
          </g>
          <g>
            <polygon class="cls-2" points="807.24 484.82 810.81 484.82 815.65 489.66 820.48 484.82 824.05 484.82 815.65 493.22 807.24 484.82"/>
            <polygon class="cls-2" points="770.52 484.82 774.08 484.82 778.92 489.66 783.75 484.82 787.32 484.82 778.92 493.22 770.52 484.82"/>
            <polygon class="cls-2" points="842.92 484.82 846.48 484.82 851.32 489.66 856.15 484.82 859.72 484.82 851.32 493.22 842.92 484.82"/>
            <polygon class="cls-2" points="879.64 484.82 883.21 484.82 888.05 489.66 892.88 484.82 896.45 484.82 888.05 493.22 879.64 484.82"/>
            <polygon class="cls-2" points="915.31 484.82 918.88 484.82 923.72 489.66 928.55 484.82 932.12 484.82 923.72 493.22 915.31 484.82"/>
            <polyline class="cls-2" points="965.02 484.82 968.58 484.82 960.18 493.22 951.78 484.82 955.35 484.82 960.18 489.66"/>
            <polygon class="cls-2" points="987.45 484.82 991.02 484.82 995.85 489.66 1000.69 484.82 1004.25 484.82 995.85 493.22 987.45 484.82"/>
            <polygon class="cls-2" points="1024.18 484.82 1027.75 484.82 1032.58 489.66 1037.41 484.82 1040.98 484.82 1032.58 493.22 1024.18 484.82"/>
            <polygon class="cls-2" points="1059.85 484.82 1063.42 484.82 1068.25 489.66 1073.09 484.82 1076.65 484.82 1068.25 493.22 1059.85 484.82"/>
            <polygon class="cls-2" points="1096.58 484.82 1100.15 484.82 1104.98 489.66 1109.81 484.82 1113.38 484.82 1104.98 493.22 1096.58 484.82"/>
            <polygon class="cls-2" points="1132.25 484.82 1135.82 484.82 1140.65 489.66 1145.48 484.82 1149.05 484.82 1140.65 493.22 1132.25 484.82"/>
            <polygon class="cls-2" points="1168.98 484.82 1172.55 484.82 1177.38 489.66 1182.21 484.82 1185.78 484.82 1177.38 493.22 1168.98 484.82"/>
            <polygon class="cls-2" points="1204.65 484.82 1208.22 484.82 1213.05 489.66 1217.88 484.82 1221.45 484.82 1213.05 493.22 1204.65 484.82"/>
            <polygon class="cls-2" points="1241.38 484.82 1244.95 484.82 1249.78 489.66 1254.61 484.82 1258.18 484.82 1249.78 493.22 1241.38 484.82"/>
          </g>
          <g>
            <path class="cls-5" d="M778.92,503.07l-18.1,18.1-18.1-18.1,18.1-18.1,18.1,18.1ZM760.82,517.6l14.53-14.53-14.53-14.53-14.53,14.53,14.53,14.53Z"/>
            <path class="cls-2" d="M770.52,503.07l-9.7,9.7-9.7-9.7,9.7-9.7,9.7,9.7ZM760.82,509.2l6.13-6.13-6.13-6.13-6.13,6.13,6.13,6.13Z"/>
          </g>
        </g>
      </g>
      <g>
        <g>
          <path class="cls-5" d="M1756.69,503.07l-18.1,18.1-18.1-18.1,18.1-18.1,18.1,18.1ZM1738.59,517.6l14.53-14.53-14.53-14.53-14.53,14.53,14.53,14.53Z"/>
          <path class="cls-2" d="M1748.29,503.07l-9.7,9.7-9.7-9.7,9.7-9.7,9.7,9.7ZM1738.59,509.2l6.13-6.13-6.13-6.13-6.13,6.13,6.13,6.13Z"/>
        </g>
        <g>
          <path class="cls-5" d="M1720.49,503.07l-18.1,18.1-18.1-18.1,18.1-18.1,18.1,18.1ZM1702.39,517.6l14.53-14.53-14.53-14.53-14.53,14.53,14.53,14.53Z"/>
          <path class="cls-2" d="M1712.09,503.07l-9.7,9.7-9.7-9.7,9.7-9.7,9.7,9.7ZM1702.39,509.2l6.13-6.13-6.13-6.13-6.13,6.13,6.13,6.13Z"/>
        </g>
        <g>
          <path class="cls-5" d="M1684.29,503.07l-18.1,18.1-18.1-18.1,18.1-18.1,18.1,18.1ZM1666.19,517.6l14.53-14.53-14.53-14.53-14.53,14.53,14.53,14.53Z"/>
          <path class="cls-2" d="M1675.89,503.07l-9.7,9.7-9.7-9.7,9.7-9.7,9.7,9.7ZM1666.19,509.2l6.13-6.13-6.13-6.13-6.13,6.13,6.13,6.13Z"/>
        </g>
        <g>
          <path class="cls-5" d="M1648.09,503.07l-18.1,18.1-18.1-18.1,18.1-18.1,18.1,18.1ZM1629.99,517.6l14.53-14.53-14.53-14.53-14.53,14.53,14.53,14.53Z"/>
          <path class="cls-2" d="M1639.69,503.07l-9.7,9.7-9.7-9.7,9.7-9.7,9.7,9.7ZM1629.99,509.2l6.13-6.13-6.13-6.13-6.13,6.13,6.13,6.13Z"/>
        </g>
        <g>
          <path class="cls-5" d="M1611.89,503.07l-18.1,18.1-18.1-18.1,18.1-18.1,18.1,18.1ZM1593.79,517.6l14.53-14.53-14.53-14.53-14.53,14.53,14.53,14.53Z"/>
          <path class="cls-2" d="M1603.49,503.07l-9.7,9.7-9.7-9.7,9.7-9.7,9.7,9.7ZM1593.79,509.2l6.13-6.13-6.13-6.13-6.13,6.13,6.13,6.13Z"/>
        </g>
        <g>
          <path class="cls-5" d="M1575.69,503.07l-18.1,18.1-18.1-18.1,18.1-18.1,18.1,18.1ZM1557.59,517.6l14.53-14.53-14.53-14.53-14.53,14.53,14.53,14.53Z"/>
          <path class="cls-2" d="M1567.29,503.07l-9.7,9.7-9.7-9.7,9.7-9.7,9.7,9.7ZM1557.59,509.2l6.13-6.13-6.13-6.13-6.13,6.13,6.13,6.13Z"/>
        </g>
        <g>
          <path class="cls-5" d="M1539.49,503.07l-18.1,18.1-18.1-18.1,18.1-18.1,18.1,18.1ZM1521.39,517.6l14.53-14.53-14.53-14.53-14.53,14.53,14.53,14.53Z"/>
          <path class="cls-2" d="M1531.09,503.07l-9.7,9.7-9.7-9.7,9.7-9.7,9.7,9.7ZM1521.39,509.2l6.13-6.13-6.13-6.13-6.13,6.13,6.13,6.13Z"/>
        </g>
        <g>
          <path class="cls-5" d="M1503.29,503.07l-18.1,18.1-18.1-18.1,18.1-18.1,18.1,18.1ZM1485.19,517.6l14.53-14.53-14.53-14.53-14.53,14.53,14.53,14.53Z"/>
          <path class="cls-2" d="M1494.89,503.07l-9.7,9.7-9.7-9.7,9.7-9.7,9.7,9.7ZM1485.19,509.2l6.13-6.13-6.13-6.13-6.13,6.13,6.13,6.13Z"/>
        </g>
        <g>
          <path class="cls-5" d="M1467.09,503.07l-18.1,18.1-18.1-18.1,18.1-18.1,18.1,18.1ZM1448.99,517.6l14.53-14.53-14.53-14.53-14.53,14.53,14.53,14.53Z"/>
          <path class="cls-2" d="M1458.69,503.07l-9.7,9.7-9.7-9.7,9.7-9.7,9.7,9.7ZM1448.99,509.2l6.13-6.13-6.13-6.13-6.13,6.13,6.13,6.13Z"/>
        </g>
        <g>
          <path class="cls-5" d="M1430.89,503.07l-18.1,18.1-18.1-18.1,18.1-18.1,18.1,18.1ZM1412.79,517.6l14.53-14.53-14.53-14.53-14.53,14.53,14.53,14.53Z"/>
          <path class="cls-2" d="M1422.49,503.07l-9.7,9.7-9.7-9.7,9.7-9.7,9.7,9.7ZM1412.79,509.2l6.13-6.13-6.13-6.13-6.13,6.13,6.13,6.13Z"/>
        </g>
        <g>
          <path class="cls-5" d="M1394.69,503.07l-18.1,18.1-18.1-18.1,18.1-18.1,18.1,18.1ZM1376.59,517.6l14.53-14.53-14.53-14.53-14.53,14.53,14.53,14.53Z"/>
          <path class="cls-2" d="M1386.29,503.07l-9.7,9.7-9.7-9.7,9.7-9.7,9.7,9.7ZM1376.59,509.2l6.13-6.13-6.13-6.13-6.13,6.13,6.13,6.13Z"/>
        </g>
        <g>
          <path class="cls-5" d="M1358.49,503.07l-18.1,18.1-18.1-18.1,18.1-18.1,18.1,18.1ZM1340.39,517.6l14.53-14.53-14.53-14.53-14.53,14.53,14.53,14.53Z"/>
          <path class="cls-2" d="M1350.09,503.07l-9.7,9.7-9.7-9.7,9.7-9.7,9.7,9.7ZM1340.39,509.2l6.13-6.13-6.13-6.13-6.13,6.13,6.13,6.13Z"/>
        </g>
        <g>
          <path class="cls-5" d="M1322.29,503.07l-18.1,18.1-18.1-18.1,18.1-18.1,18.1,18.1ZM1304.19,517.6l14.53-14.53-14.53-14.53-14.53,14.53,14.53,14.53Z"/>
          <path class="cls-2" d="M1313.89,503.07l-9.7,9.7-9.7-9.7,9.7-9.7,9.7,9.7ZM1304.19,509.2l6.13-6.13-6.13-6.13-6.13,6.13,6.13,6.13Z"/>
        </g>
        <g>
          <polygon class="cls-2" points="1314.42 521.39 1317.99 521.39 1322.82 516.56 1327.66 521.39 1331.22 521.39 1322.82 512.99 1314.42 521.39"/>
          <polygon class="cls-2" points="1277.69 521.39 1281.26 521.39 1286.09 516.56 1290.93 521.39 1294.5 521.39 1286.09 512.99 1277.69 521.39"/>
          <polygon class="cls-2" points="1241.49 521.39 1245.06 521.39 1249.89 516.56 1254.73 521.39 1258.3 521.39 1249.89 512.99 1241.49 521.39"/>
          <polygon class="cls-2" points="1350.09 521.39 1353.66 521.39 1358.49 516.56 1363.33 521.39 1366.89 521.39 1358.49 512.99 1350.09 521.39"/>
          <polyline class="cls-2" points="1395.22 516.56 1400.06 521.39 1403.62 521.39 1395.22 512.99 1386.82 521.39 1390.39 521.39"/>
          <polygon class="cls-2" points="1422.49 521.39 1426.06 521.39 1430.89 516.56 1435.73 521.39 1439.29 521.39 1430.89 512.99 1422.49 521.39"/>
          <polygon class="cls-2" points="1458.95 521.39 1462.52 521.39 1467.36 516.56 1472.19 521.39 1475.76 521.39 1467.36 512.99 1458.95 521.39"/>
          <polygon class="cls-2" points="1494.62 521.39 1498.19 521.39 1503.03 516.56 1507.86 521.39 1511.43 521.39 1503.03 512.99 1494.62 521.39"/>
          <polygon class="cls-2" points="1531.35 521.39 1534.92 521.39 1539.76 516.56 1544.59 521.39 1548.16 521.39 1539.76 512.99 1531.35 521.39"/>
          <polygon class="cls-2" points="1567.02 521.39 1570.59 521.39 1575.43 516.56 1580.26 521.39 1583.83 521.39 1575.43 512.99 1567.02 521.39"/>
          <polygon class="cls-2" points="1603.75 521.39 1607.32 521.39 1612.16 516.56 1616.99 521.39 1620.56 521.39 1612.16 512.99 1603.75 521.39"/>
          <polygon class="cls-2" points="1639.42 521.39 1642.99 521.39 1647.83 516.56 1652.66 521.39 1656.23 521.39 1647.83 512.99 1639.42 521.39"/>
          <polygon class="cls-2" points="1676.15 521.39 1679.72 521.39 1684.56 516.56 1689.39 521.39 1692.96 521.39 1684.56 512.99 1676.15 521.39"/>
          <polygon class="cls-2" points="1711.82 521.39 1715.39 521.39 1720.23 516.56 1725.06 521.39 1728.63 521.39 1720.23 512.99 1711.82 521.39"/>
        </g>
        <g>
          <polygon class="cls-2" points="1314.42 484.82 1317.99 484.82 1322.82 489.66 1327.66 484.82 1331.22 484.82 1322.82 493.22 1314.42 484.82"/>
          <polygon class="cls-2" points="1277.69 484.82 1281.26 484.82 1286.09 489.66 1290.93 484.82 1294.5 484.82 1286.09 493.22 1277.69 484.82"/>
          <polygon class="cls-2" points="1241.49 484.82 1245.06 484.82 1249.89 489.66 1254.73 484.82 1258.3 484.82 1249.89 493.22 1241.49 484.82"/>
          <polygon class="cls-2" points="1350.09 484.82 1353.66 484.82 1358.49 489.66 1363.33 484.82 1366.89 484.82 1358.49 493.22 1350.09 484.82"/>
          <polygon class="cls-2" points="1386.82 484.82 1390.39 484.82 1395.22 489.66 1400.06 484.82 1403.62 484.82 1395.22 493.22 1386.82 484.82"/>
          <polygon class="cls-2" points="1422.49 484.82 1426.06 484.82 1430.89 489.66 1435.73 484.82 1439.29 484.82 1430.89 493.22 1422.49 484.82"/>
          <polyline class="cls-2" points="1472.19 484.82 1475.76 484.82 1467.36 493.22 1458.95 484.82 1462.52 484.82 1467.36 489.66"/>
          <polygon class="cls-2" points="1494.62 484.82 1498.19 484.82 1503.03 489.66 1507.86 484.82 1511.43 484.82 1503.03 493.22 1494.62 484.82"/>
          <polygon class="cls-2" points="1531.35 484.82 1534.92 484.82 1539.76 489.66 1544.59 484.82 1548.16 484.82 1539.76 493.22 1531.35 484.82"/>
          <polygon class="cls-2" points="1567.02 484.82 1570.59 484.82 1575.43 489.66 1580.26 484.82 1583.83 484.82 1575.43 493.22 1567.02 484.82"/>
          <polygon class="cls-2" points="1603.75 484.82 1607.32 484.82 1612.16 489.66 1616.99 484.82 1620.56 484.82 1612.16 493.22 1603.75 484.82"/>
          <polygon class="cls-2" points="1639.42 484.82 1642.99 484.82 1647.83 489.66 1652.66 484.82 1656.23 484.82 1647.83 493.22 1639.42 484.82"/>
          <polygon class="cls-2" points="1676.15 484.82 1679.72 484.82 1684.56 489.66 1689.39 484.82 1692.96 484.82 1684.56 493.22 1676.15 484.82"/>
          <polygon class="cls-2" points="1711.82 484.82 1715.39 484.82 1720.23 489.66 1725.06 484.82 1728.63 484.82 1720.23 493.22 1711.82 484.82"/>
        </g>
        <g>
          <path class="cls-5" d="M1286.09,503.07l-18.1,18.1-18.1-18.1,18.1-18.1,18.1,18.1ZM1267.99,517.6l14.53-14.53-14.53-14.53-14.53,14.53,14.53,14.53Z"/>
          <path class="cls-2" d="M1277.69,503.07l-9.7,9.7-9.7-9.7,9.7-9.7,9.7,9.7ZM1267.99,509.2l6.13-6.13-6.13-6.13-6.13,6.13,6.13,6.13Z"/>
        </g>
      </g>
    </g>
  </g>
</svg>