<?xml version="1.0" encoding="UTF-8"?>
<svg id="Capa_1" data-name="Capa 1" xmlns="http://www.w3.org/2000/svg" xmlns:xlink="http://www.w3.org/1999/xlink" viewBox="0 0 1920 1080">
  <defs>
    <style>
      .cls-1 {
        fill: #fff;
      }

      .cls-2 {
        fill: none;
      }

      .cls-3 {
        fill: #3c3c3b;
      }

      .cls-4 {
        clip-path: url(#clippath);
      }
    </style>
    <clipPath id="clippath">
      <rect class="cls-2" x="163.17" y="320.87" width="1587.37" height="155.17"/>
    </clipPath>
  </defs>
  <rect class="cls-3" width="1920" height="1080"/>
  <g>
    <g class="cls-4">
      <g>
        <path class="cls-1" d="M1513.06,414.27c-10.22,1.9-20.7,5.53-27.46,13.43-4.19,4.9-6.52,10.91-8.06,17.23-.61-5.47-1.77-10.82-4.33-15.65-5.19-9.82-15.6-16.13-26.47-18.43-10.86-2.31-22.18-1.05-33.04,1.26,5.21,1.64,8.94,6.36,10.99,11.41,2.05,5.06,2.72,10.55,3.83,15.9,1.11,5.34,2.77,10.78,6.39,14.88,5.12,5.79,13.43,7.91,21.14,7.32,6.29-.48,12.32-2.52,18.22-4.83,0,.08,0,.16,0,.24.06,2.99.91,5.89,1.6,8.8,3.54,14.92,2.83,30.82-2.03,45.37,2.53,2.46,5.86,5.12,9.2,3.98,3.71-1.26,4.42-6.12,4.49-10.04.18-9.68.35-19.41-.91-29.01-.98-7.43-2.87-14.82-6.13-21.54,5.74-2.02,12.52-1.52,18.74-.72,8.25,1.06,17.28,2.21,24.35-2.17,4.25-2.63,7.21-7,8.95-11.68,1.97-5.3,2.51-10.99,3.71-16.51,1.2-5.52,3.23-11.14,7.43-14.92-9.86,3.28-20.39,3.81-30.6,5.71ZM1458.97,448.2c-6.25.98-12.84-.21-18.32-3.39,5.12.21,10.24.43,15.37.64-1.31-1.34-2.53-2.76-3.65-4.22-.76-.98-1.49-1.99-2.2-3.01-.04,0-.08.02-.12.02-5.22.66-10.67-.8-14.85-3.99,4.3.31,8.6.62,12.9.94-3.76-5.59-7.36-11.3-12.36-15.77,5.42,1.87,8.99,6.59,12.46,11.32-.35-3.89-.7-7.78-1.05-11.67,1.79,1.14,3.99,12.72,4.16,15.82.08.1.16.21.25.32,2.58,3.21,5.54,6.05,8.71,8.68-.63-1.72-1.04-3.54-1.24-5.36-.44-3.99-.02-8.02.4-12.02.99,4.92,1.97,9.84,2.95,14.76.33,1.66.65,3.33.89,5,3.84,2.92,7.9,5.6,11.93,8.24-6,.35-11.54-2.35-16.23-6.3ZM1515.74,435.24c-2.44,1.52-5.02,2.77-7.65,3.92,5.16-.13,9.81-1.1,15.68-2.96-2.19,2.84-5.75,4.37-9.31,4.85-3.33.45-6.71.08-10.05-.34-1.43.59-2.85,1.18-4.27,1.79-2.02.87-4.02,1.8-5.99,2.78,7.61,1.17,15.36,1.41,23.03.72-7.36,2.14-15.2,4.28-22.55,2.13-1.04-.3-2.17-.85-2.86-1.65-4.79,2.49-9.43,5.28-13.88,8.36,1.85-2.52,4.03-4.67,6.43-6.56,4.18-5.88,8.36-11.76,12.54-17.64-2.02,5.29-4.67,10.55-8.39,14.73,3.88-2.44,8.13-4.47,12.43-6.44,3.86-4.42,6.98-9.49,9.17-14.94.55,3.37-.77,6.84-2.84,9.56-.39.51-1.5,2.21-2.47,3.6,8.26-3.81,16.32-7.86,21.87-14.8-1.67,5.49-6.01,9.83-10.89,12.88Z"/>
        <path class="cls-1" d="M821.62,414.27c-10.22,1.9-20.7,5.53-27.46,13.43-4.19,4.9-6.52,10.91-8.06,17.23-.61-5.47-1.77-10.82-4.33-15.65-5.19-9.82-15.6-16.13-26.47-18.43-10.86-2.31-22.18-1.05-33.04,1.26,5.21,1.64,8.94,6.36,10.99,11.41,2.05,5.06,2.72,10.55,3.83,15.9,1.11,5.34,2.77,10.78,6.39,14.88,5.12,5.79,13.43,7.91,21.14,7.32,6.29-.48,12.32-2.52,18.22-4.83,0,.08,0,.16,0,.24.06,2.99.91,5.89,1.6,8.8,3.54,14.92,2.83,30.82-2.03,45.37,2.53,2.46,5.86,5.12,9.2,3.98,3.71-1.26,4.42-6.12,4.49-10.04.18-9.68.35-19.41-.91-29.01-.98-7.43-2.87-14.82-6.13-21.54,5.74-2.02,12.52-1.52,18.74-.72,8.25,1.06,17.28,2.21,24.35-2.17,4.25-2.63,7.21-7,8.95-11.68,1.97-5.3,2.51-10.99,3.71-16.51,1.2-5.52,3.23-11.14,7.43-14.92-9.86,3.28-20.39,3.81-30.6,5.71ZM767.52,448.2c-6.25.98-12.84-.21-18.32-3.39,5.12.21,10.24.43,15.37.64-1.31-1.34-2.53-2.76-3.65-4.22-.76-.98-1.49-1.99-2.2-3.01-.04,0-.08.02-.12.02-5.22.66-10.67-.8-14.85-3.99,4.3.31,8.6.62,12.9.94-3.76-5.59-7.36-11.3-12.36-15.77,5.42,1.87,8.99,6.59,12.46,11.32-.35-3.89-.7-7.78-1.05-11.67,1.79,1.14,3.99,12.72,4.16,15.82.08.1.16.21.25.32,2.58,3.21,5.54,6.05,8.71,8.68-.63-1.72-1.04-3.54-1.24-5.36-.44-3.99-.02-8.02.4-12.02.99,4.92,1.97,9.84,2.95,14.76.33,1.66.65,3.33.89,5,3.84,2.92,7.9,5.6,11.93,8.24-6,.35-11.54-2.35-16.23-6.3ZM824.3,435.24c-2.44,1.52-5.02,2.77-7.65,3.92,5.16-.13,9.81-1.1,15.68-2.96-2.19,2.84-5.75,4.37-9.31,4.85-3.33.45-6.71.08-10.05-.34-1.43.59-2.85,1.18-4.27,1.79-2.02.87-4.02,1.8-5.99,2.78,7.61,1.17,15.36,1.41,23.03.72-7.36,2.14-15.2,4.28-22.55,2.13-1.04-.3-2.17-.85-2.86-1.65-4.79,2.49-9.43,5.28-13.88,8.36,1.85-2.52,4.03-4.67,6.43-6.56,4.18-5.88,8.36-11.76,12.54-17.64-2.02,5.29-4.67,10.55-8.39,14.73,3.88-2.44,8.13-4.47,12.43-6.44,3.86-4.42,6.98-9.49,9.17-14.94.55,3.37-.77,6.84-2.84,9.56-.39.51-1.5,2.21-2.47,3.6,8.26-3.81,16.32-7.86,21.87-14.8-1.67,5.49-6.01,9.83-10.89,12.88Z"/>
        <path class="cls-1" d="M475.9,414.27c-10.22,1.9-20.7,5.53-27.46,13.43-4.19,4.9-6.52,10.91-8.06,17.23-.61-5.47-1.77-10.82-4.33-15.65-5.19-9.82-15.6-16.13-26.47-18.43-10.86-2.31-22.18-1.05-33.04,1.26,5.21,1.64,8.94,6.36,10.99,11.41,2.05,5.06,2.72,10.55,3.83,15.9,1.11,5.34,2.77,10.78,6.39,14.88,5.12,5.79,13.43,7.91,21.14,7.32,6.29-.48,12.32-2.52,18.22-4.83,0,.08,0,.16,0,.24.06,2.99.91,5.89,1.6,8.8,3.54,14.92,2.83,30.82-2.03,45.37,2.53,2.46,5.86,5.12,9.2,3.98,3.71-1.26,4.42-6.12,4.49-10.04.18-9.68.35-19.41-.91-29.01-.98-7.43-2.87-14.82-6.13-21.54,5.74-2.02,12.52-1.52,18.74-.72,8.25,1.06,17.28,2.21,24.35-2.17,4.25-2.63,7.21-7,8.95-11.68,1.97-5.3,2.51-10.99,3.71-16.51,1.2-5.52,3.23-11.14,7.43-14.92-9.86,3.28-20.39,3.81-30.6,5.71ZM421.8,448.2c-6.25.98-12.84-.21-18.32-3.39,5.12.21,10.24.43,15.37.64-1.31-1.34-2.53-2.76-3.65-4.22-.76-.98-1.49-1.99-2.2-3.01-.04,0-.08.02-.12.02-5.22.66-10.67-.8-14.85-3.99,4.3.31,8.6.62,12.9.94-3.76-5.59-7.36-11.3-12.36-15.77,5.42,1.87,8.99,6.59,12.46,11.32-.35-3.89-.7-7.78-1.05-11.67,1.79,1.14,3.99,12.72,4.16,15.82.08.1.16.21.25.32,2.58,3.21,5.54,6.05,8.71,8.68-.63-1.72-1.04-3.54-1.24-5.36-.44-3.99-.02-8.02.4-12.02.99,4.92,1.97,9.84,2.95,14.76.33,1.66.65,3.33.89,5,3.84,2.92,7.9,5.6,11.93,8.24-6,.35-11.54-2.35-16.23-6.3ZM478.58,435.24c-2.44,1.52-5.02,2.77-7.65,3.92,5.16-.13,9.81-1.1,15.68-2.96-2.19,2.84-5.75,4.37-9.31,4.85-3.33.45-6.71.08-10.05-.34-1.43.59-2.85,1.18-4.27,1.79-2.02.87-4.02,1.8-5.99,2.78,7.61,1.17,15.36,1.41,23.03.72-7.36,2.14-15.2,4.28-22.55,2.13-1.04-.3-2.17-.85-2.86-1.65-4.79,2.49-9.43,5.28-13.88,8.36,1.85-2.52,4.03-4.67,6.43-6.56,4.18-5.88,8.36-11.76,12.54-17.64-2.02,5.29-4.67,10.55-8.39,14.73,3.88-2.44,8.13-4.47,12.43-6.44,3.86-4.42,6.98-9.49,9.17-14.94.55,3.37-.77,6.84-2.84,9.56-.39.51-1.5,2.21-2.47,3.6,8.26-3.81,16.32-7.86,21.87-14.8-1.67,5.49-6.01,9.83-10.89,12.88Z"/>
        <path class="cls-1" d="M1167.34,414.27c-10.22,1.9-20.7,5.53-27.46,13.43-4.19,4.9-6.52,10.91-8.06,17.23-.61-5.47-1.77-10.82-4.33-15.65-5.19-9.82-15.6-16.13-26.47-18.43-10.86-2.31-22.18-1.05-33.04,1.26,5.21,1.64,8.94,6.36,10.99,11.41,2.05,5.06,2.72,10.55,3.83,15.9,1.11,5.34,2.77,10.78,6.39,14.88,5.12,5.79,13.43,7.91,21.14,7.32,6.29-.48,12.32-2.52,18.22-4.83,0,.08,0,.16,0,.24.06,2.99.91,5.89,1.6,8.8,3.54,14.92,2.83,30.82-2.03,45.37,2.53,2.46,5.86,5.12,9.2,3.98,3.71-1.26,4.42-6.12,4.49-10.04.18-9.68.35-19.41-.91-29.01-.98-7.43-2.87-14.82-6.13-21.54,5.74-2.02,12.52-1.52,18.74-.72,8.25,1.06,17.28,2.21,24.35-2.17,4.25-2.63,7.21-7,8.95-11.68,1.97-5.3,2.51-10.99,3.71-16.51,1.2-5.52,3.23-11.14,7.43-14.92-9.86,3.28-20.39,3.81-30.6,5.71ZM1113.24,448.2c-6.25.98-12.84-.21-18.32-3.39,5.12.21,10.24.43,15.37.64-1.31-1.34-2.53-2.76-3.65-4.22-.76-.98-1.49-1.99-2.2-3.01-.04,0-.08.02-.12.02-5.22.66-10.67-.8-14.85-3.99,4.3.31,8.6.62,12.9.94-3.76-5.59-7.36-11.3-12.36-15.77,5.42,1.87,8.99,6.59,12.46,11.32-.35-3.89-.7-7.78-1.05-11.67,1.79,1.14,3.99,12.72,4.16,15.82.08.1.16.21.25.32,2.58,3.21,5.54,6.05,8.71,8.68-.63-1.72-1.04-3.54-1.24-5.36-.44-3.99-.02-8.02.4-12.02.99,4.92,1.97,9.84,2.95,14.76.33,1.66.65,3.33.89,5,3.84,2.92,7.9,5.6,11.93,8.24-6,.35-11.54-2.35-16.23-6.3ZM1170.02,435.24c-2.44,1.52-5.02,2.77-7.65,3.92,5.16-.13,9.81-1.1,15.68-2.96-2.19,2.84-5.75,4.37-9.31,4.85-3.33.45-6.71.08-10.05-.34-1.43.59-2.85,1.18-4.27,1.79-2.02.87-4.02,1.8-5.99,2.78,7.61,1.17,15.36,1.41,23.03.72-7.36,2.14-15.2,4.28-22.55,2.13-1.04-.3-2.17-.85-2.86-1.65-4.79,2.49-9.43,5.28-13.88,8.36,1.85-2.52,4.03-4.67,6.43-6.56,4.18-5.88,8.36-11.76,12.54-17.64-2.02,5.29-4.67,10.55-8.39,14.73,3.88-2.44,8.13-4.47,12.43-6.44,3.86-4.42,6.98-9.49,9.17-14.94.55,3.37-.77,6.84-2.84,9.56-.39.51-1.5,2.21-2.47,3.6,8.26-3.81,16.32-7.86,21.87-14.8-1.67,5.49-6.01,9.83-10.89,12.88Z"/>
        <path class="cls-1" d="M1030.9,400.86c-11.7-.72-23.62,2.92-32.93,10.06-8.48,6.5-14.7,15.85-17.51,26.15-4.99,2.73-9.68,6.11-14.01,9.77-4.04,3.41-7.91,7.13-10.67,11.65-.44-10.64-1.29-23.91-1.84-38.21,4.92-6.16,10.07-12.14,15.43-17.92,3.59-.21,7.51.66,11.16.87,12.37.71,24.01-7.09,31.11-17.25,7.09-10.16,10.4-22.42,13.21-34.48-11.93-.56-24.53-.98-35.03,4.68-8.33,4.49-14.39,12.4-18.36,20.98-3.22,6.95-5.19,14.39-6.92,21.87-1.51,1.25-3.01,2.49-4.51,3.74-2.19,1.82-4.4,3.71-6.45,5.72-.29-12.84-.2-26.13.73-38.8,9.65.57,19.49-2.98,26.52-9.63,7.31-6.93,11.44-17.1,11.03-27.17-7.27,5.82-16.73,8.26-24.27,13.72-5.76,4.17-10.21,10.08-12.73,16.73.04-.38.08-.75.12-1.13,1.89-6.92,3.58-18.26-2.13-26.71-5.04-7.45-14.17-11.32-23.08-12.53.95,6.23,1.9,12.45,2.85,18.68.61,4,1.17,8.05,2.66,11.81,3.8,9.58,15.91,14.31,17.44,14.87-2.63,11.65-4.06,23.8-4.92,36.01-.77-1.46-1.64-2.87-2.55-4.26-2.83-4.33-5.99-8.45-9.41-12.33,1.66-9.64,2.36-19.55-1.76-28.25-4.09-8.65-12.43-14.64-21.3-18.23-8.86-3.58-18.41-5.1-27.74-7.16-.3,10.77-.45,21.73,2.45,32.11,2.9,10.38,9.3,20.28,19.02,24.94,8.26,3.96,17.8,3.74,26.98,3.29,4.69,7.25,9.22,14.6,13.61,22.04-.38,8.25-.59,16.47-.83,24.5-.13,4.29-.24,8.21-.34,11.83-4.57-4.19-11.21-9.92-16.09-13.29-.3-6.87-.97-13.73-3.01-20.27-2.5-8.01-7.28-15.59-14.48-19.91-15.14-9.07-35.49-1.38-51.74-8.28.75,8.83,2.09,17.68,5.23,25.97,3.14,8.28,8.2,16.01,15.34,21.25,6.82,4.99,15.24,7.5,23.67,8.14,7.45.56,14.92-.27,22.26-1.7,6.42,5.88,12.61,12.19,18.57,18.43-.52,23.37-.32,32.45-.67,52.25,2.86-.33,14.28-.19,17.14,0-3.06-16-4.86-32.15-5.83-47.22,7.5-9.71,16.27-18.45,26-25.92,7.17,5.75,15.59,10.04,24.66,11.36,10.18,1.48,21.17-1.09,28.75-8.05,12.55-11.51,13.23-31.42,23.9-44.68-8.87,3.91-19.04.54-28.72-.06ZM975.7,393.66c.17-.17.39-.32.64-.47,3.77-6.69,6.26-14.1,7.26-21.72-.24,4.35.1,8.75-.77,13.02-.4,1.95-1.13,3.9-2.18,5.6,2.76-2.13,5.48-4.44,8.14-6.86.72-1.78,1.39-3.84,1.73-5.13,1.48-5.84,2.45-9.55,3.63-15.65.42,6.14-.18,9.8-.77,14.02-.16,1.13-.38,2.15-.68,3.08,7.04-6.85,13.54-14.31,19.16-21.08-2.86,6.65-8.5,14.23-15.05,21.12,5.25-1.29,10-3.13,15.21-6.87-4.53,6.22-10.43,8.73-17.79,9.5-3.39,3.34-6.95,6.46-10.45,9.14,2.89-.3,6-.36,8.44-.19,3.19.22,8.11-.17,10.65-1.89-2.65,3.69-7.19,5.84-15.13,4.99-1.46-.16-4.64-.32-7.37-.43-.16.11-.32.22-.47.33-3.27,2.22-7.11,3.46-11.06,3.66h-.05c2.33-1.22,4.64-2.63,6.93-4.18ZM965.48,360.09c2.1-4.04,3.64-7.35,4.96-12.91.48,4.41-.95,8-2.19,10.54,5.56-4.92,10.67-10.33,15.22-16.2-3.04,6.92-7.8,13.05-13.66,17.82.73-.27,1.47-.54,2.2-.81,2.93-1.07,5.97-2.21,8.17-4.42-2.31,4.49-7.51,7.26-12.51,6.88-3.56,2.59-7.47,4.7-11.61,6.2,3.26-2.21,6.4-4.59,9.43-7.11ZM950.96,362.55c-.66-2.53-1.43-5.05-2.29-7.55-4.33-2.58-10.53-8.26-11.8-10.91,3.92,3.01,7.16,5.5,10.88,8.37-2.53-6.86-5.65-13.55-8.93-20.01.46.7,3.66,4.12,5.82,8.52,1.83,3.73,3.88,7.43,5.2,11.22.76-4.59.95-9.28.55-13.92,1.6,3.95,1.41,11.58.1,16.05.7,2.66.97,5.39.47,8.23ZM925.2,383.37c-4.87.1-13.97-.08-16.37-.65-2.64-.63-7.34-2.09-10.08-4.87,7.5,2.19,15.41,2.94,23.2,2.26-1.68-1.75-3.4-3.64-5.1-5.6-4.59-.22-9.76-.62-11.48-1.09-2.62-.72-7.26-2.37-9.9-5.24,6.01,2,12.33,3.01,18.66,3.12-1.24-1.5-2.46-3.02-3.64-4.55-6.75-1.36-13.11-4.62-18.08-9.38,5.01,1.77,10.01,3.54,15.02,5.31-4.4-6.03-8.08-11.93-10.07-16.45,3.23,3.4,7.58,8.4,12.14,13.88-.13-.96-.19-1.93-.19-2.89.01-4.07.18-8.27,1.13-12.17.43,5.91.85,11.83,1.28,17.75,1.54,1.88,3.09,3.79,4.61,5.7-.03-.41-.05-.85-.05-1.31,0-4.07-.63-11.32,1.21-14.93.47,6.49.93,12.98,1.4,19.47,1.81,2.31,3.56,4.57,5.17,6.71.01-.17.02-.35.04-.51.62-6.23,1.24-12.47,1.87-18.71,1.73,7,1.63,14.45-.27,21.41,2.29,3.09,4.24,5.85,5.63,8.01-1.88-1.39-3.95-3.19-6.12-5.27ZM925.26,440.87c-2.07-.39-4.03-1.14-5.84-2.22-.97-.58-1.97-1.19-2.99-1.84-9.55,2.75-20,2.24-29.23-1.44,8.44.21,16,.8,25.64-.88-2.89-1.9-5.87-3.95-8.76-5.98-4.31.26-8.64.46-12.93.03-4.63-.46-9.27-1.71-13.17-4.27,6.9.83,13.88,1.65,20.78.79.14-.02.28-.04.42-.05-2.22-1.6-4.31-3.13-6.15-4.5-1.45-1.08-2.9-2.18-4.32-3.32-6.76.86-13.94.39-19.57-3.37,6.59,1.47,10.86,1.16,16.36.66-4.2-3.72-7.94-7.88-10.52-12.83,4.66,3.87,8.92,7.24,12.89,10.28-.69-3.02-1.66-8.31-1.04-11.49,1.34,4.58,2.68,9.17,4.03,13.75,3.16,2.38,6.15,4.57,9.01,6.67-1.49-7.25-1.94-12.51-.66-17.12,1.38,7.49,1.43,12.52,3.97,19.53,3.57,2.61,6.97,5.11,10.34,7.73-1.18-7.06-2-14.21-.82-21.24.22,8.05,2.8,16.57,4.89,24.47,2.54,2.07,5.1,4.24,7.71,6.61h-.03ZM1024.56,425.01c5.37-.79,10.27-.16,17.35-1.09-6.89,3.72-15.22,4.26-22.64,4.21-2.21,1.24-4.45,2.41-6.69,3.51,6.41,2.61,12.64,4.09,19.96,6.28-10.22.5-16.07-1.37-22.94-4.87-2.87,1.32-5.71,2.49-8.46,3.49,3.01,1.07,5.75,3.02,8.43,4.85,3.57,2.45,8.45,3.65,11.83,4.76-8.68.54-17.52-2.56-23.98-8.37-3.99,1.1-8.19,1.17-12.24.23h-.07c3.76-.81,7.59-1.92,11.44-3.29,3.56-5.59,6.18-11.79,7.68-18.25.62,4.82-.45,8.03-1.43,11.91-.43,1.7-1.18,3.4-2.23,4.82,2.63-1.04,5.26-2.19,7.88-3.43,2.71-6.39,4.32-13.24,4.74-20.17,1.48,4.82.95,8.28.63,12.42-.16,2.08-.77,4.23-1.82,6.02,1.17-.58,2.34-1.18,3.5-1.8,3.9-5.09,7.32-10.55,10.19-16.29.07,3.84-1.65,8.65-3.52,12.01-.18.33-.38.64-.57.94,8.45-4.81,16.53-10.1,23.73-15.04-4.78,5.87-12.34,11.89-20.76,17.12Z"/>
        <path class="cls-1" d="M685.18,400.86c-11.7-.72-23.62,2.92-32.93,10.06-8.48,6.5-14.7,15.85-17.51,26.15-4.99,2.73-9.68,6.11-14.01,9.77-4.04,3.41-7.91,7.13-10.67,11.65-.44-10.64-1.29-23.91-1.84-38.21,4.92-6.16,10.07-12.14,15.43-17.92,3.59-.21,7.51.66,11.16.87,12.37.71,24.01-7.09,31.11-17.25,7.09-10.16,10.4-22.42,13.21-34.48-11.93-.56-24.53-.98-35.03,4.68-8.33,4.49-14.39,12.4-18.36,20.98-3.22,6.95-5.19,14.39-6.92,21.87-1.51,1.25-3.01,2.49-4.51,3.74-2.19,1.82-4.4,3.71-6.45,5.72-.29-12.84-.2-26.13.73-38.8,9.65.57,19.49-2.98,26.52-9.63,7.31-6.93,11.44-17.1,11.03-27.17-7.27,5.82-16.73,8.26-24.27,13.72-5.76,4.17-10.21,10.08-12.73,16.73.04-.38.08-.75.12-1.13,1.89-6.92,3.58-18.26-2.13-26.71-5.04-7.45-14.17-11.32-23.08-12.53.95,6.23,1.9,12.45,2.85,18.68.61,4,1.17,8.05,2.66,11.81,3.8,9.58,15.91,14.31,17.44,14.87-2.63,11.65-4.06,23.8-4.92,36.01-.77-1.46-1.64-2.87-2.55-4.26-2.83-4.33-5.99-8.45-9.41-12.33,1.66-9.64,2.36-19.55-1.76-28.25-4.09-8.65-12.43-14.64-21.3-18.23-8.86-3.58-18.41-5.1-27.74-7.16-.3,10.77-.45,21.73,2.45,32.11,2.9,10.38,9.3,20.28,19.02,24.94,8.26,3.96,17.8,3.74,26.98,3.29,4.69,7.25,9.22,14.6,13.61,22.04-.38,8.25-.59,16.47-.83,24.5-.13,4.29-.24,8.21-.34,11.83-4.57-4.19-11.21-9.92-16.09-13.29-.3-6.87-.97-13.73-3.01-20.27-2.5-8.01-7.28-15.59-14.48-19.91-15.14-9.07-35.49-1.38-51.74-8.28.75,8.83,2.09,17.68,5.23,25.97,3.14,8.28,8.2,16.01,15.34,21.25,6.82,4.99,15.24,7.5,23.67,8.14,7.45.56,14.92-.27,22.26-1.7,6.42,5.88,12.61,12.19,18.57,18.43-.52,23.37-.32,32.45-.67,52.25,2.86-.33,14.28-.19,17.14,0-3.06-16-4.86-32.15-5.83-47.22,7.5-9.71,16.27-18.45,26-25.92,7.17,5.75,15.59,10.04,24.66,11.36,10.18,1.48,21.17-1.09,28.75-8.05,12.55-11.51,13.23-31.42,23.9-44.68-8.87,3.91-19.04.54-28.72-.06ZM629.98,393.66c.17-.17.39-.32.64-.47,3.77-6.69,6.26-14.1,7.26-21.72-.24,4.35.1,8.75-.77,13.02-.4,1.95-1.13,3.9-2.18,5.6,2.76-2.13,5.48-4.44,8.14-6.86.72-1.78,1.39-3.84,1.73-5.13,1.48-5.84,2.45-9.55,3.63-15.65.42,6.14-.18,9.8-.77,14.02-.16,1.13-.38,2.15-.68,3.08,7.04-6.85,13.54-14.31,19.16-21.08-2.86,6.65-8.5,14.23-15.05,21.12,5.25-1.29,10-3.13,15.21-6.87-4.53,6.22-10.43,8.73-17.79,9.5-3.39,3.34-6.95,6.46-10.45,9.14,2.89-.3,6-.36,8.44-.19,3.19.22,8.11-.17,10.65-1.89-2.65,3.69-7.19,5.84-15.13,4.99-1.46-.16-4.64-.32-7.37-.43-.16.11-.32.22-.47.33-3.27,2.22-7.11,3.46-11.06,3.66h-.05c2.33-1.22,4.64-2.63,6.93-4.18ZM619.76,360.09c2.1-4.04,3.64-7.35,4.96-12.91.48,4.41-.95,8-2.19,10.54,5.56-4.92,10.67-10.33,15.22-16.2-3.04,6.92-7.8,13.05-13.66,17.82.73-.27,1.47-.54,2.2-.81,2.93-1.07,5.97-2.21,8.17-4.42-2.31,4.49-7.51,7.26-12.51,6.88-3.56,2.59-7.47,4.7-11.61,6.2,3.26-2.21,6.4-4.59,9.43-7.11ZM605.24,362.55c-.66-2.53-1.43-5.05-2.29-7.55-4.33-2.58-10.53-8.26-11.8-10.91,3.92,3.01,7.16,5.5,10.88,8.37-2.53-6.86-5.65-13.55-8.93-20.01.46.7,3.66,4.12,5.82,8.52,1.83,3.73,3.88,7.43,5.2,11.22.76-4.59.95-9.28.55-13.92,1.6,3.95,1.41,11.58.1,16.05.7,2.66.97,5.39.47,8.23ZM579.47,383.37c-4.87.1-13.97-.08-16.37-.65-2.64-.63-7.34-2.09-10.08-4.87,7.5,2.19,15.41,2.94,23.2,2.26-1.68-1.75-3.4-3.64-5.1-5.6-4.59-.22-9.76-.62-11.48-1.09-2.62-.72-7.26-2.37-9.9-5.24,6.01,2,12.33,3.01,18.66,3.12-1.24-1.5-2.46-3.02-3.64-4.55-6.75-1.36-13.11-4.62-18.08-9.38,5.01,1.77,10.01,3.54,15.02,5.31-4.4-6.03-8.08-11.93-10.07-16.45,3.23,3.4,7.58,8.4,12.14,13.88-.13-.96-.19-1.93-.19-2.89.01-4.07.18-8.27,1.13-12.17.43,5.91.85,11.83,1.28,17.75,1.54,1.88,3.09,3.79,4.61,5.7-.03-.41-.05-.85-.05-1.31,0-4.07-.63-11.32,1.21-14.93.47,6.49.93,12.98,1.4,19.47,1.81,2.31,3.56,4.57,5.17,6.71.01-.17.02-.35.04-.51.62-6.23,1.24-12.47,1.87-18.71,1.73,7,1.63,14.45-.27,21.41,2.29,3.09,4.24,5.85,5.63,8.01-1.88-1.39-3.95-3.19-6.12-5.27ZM579.54,440.87c-2.07-.39-4.03-1.14-5.84-2.22-.97-.58-1.97-1.19-2.99-1.84-9.55,2.75-20,2.24-29.23-1.44,8.44.21,16,.8,25.64-.88-2.89-1.9-5.87-3.95-8.76-5.98-4.31.26-8.64.46-12.93.03-4.63-.46-9.27-1.71-13.17-4.27,6.9.83,13.88,1.65,20.78.79.14-.02.28-.04.42-.05-2.22-1.6-4.31-3.13-6.15-4.5-1.45-1.08-2.9-2.18-4.32-3.32-6.76.86-13.94.39-19.57-3.37,6.59,1.47,10.86,1.16,16.36.66-4.2-3.72-7.94-7.88-10.52-12.83,4.66,3.87,8.92,7.24,12.89,10.28-.69-3.02-1.66-8.31-1.04-11.49,1.34,4.58,2.68,9.17,4.03,13.75,3.16,2.38,6.15,4.57,9.01,6.67-1.49-7.25-1.94-12.51-.66-17.12,1.38,7.49,1.43,12.52,3.97,19.53,3.57,2.61,6.97,5.11,10.34,7.73-1.18-7.06-2-14.21-.82-21.24.22,8.05,2.8,16.57,4.89,24.47,2.54,2.07,5.1,4.24,7.71,6.61h-.03ZM678.84,425.01c5.37-.79,10.27-.16,17.35-1.09-6.89,3.72-15.22,4.26-22.64,4.21-2.21,1.24-4.45,2.41-6.69,3.51,6.41,2.61,12.64,4.09,19.96,6.28-10.22.5-16.07-1.37-22.94-4.87-2.87,1.32-5.71,2.49-8.46,3.49,3.01,1.07,5.75,3.02,8.43,4.85,3.57,2.45,8.45,3.65,11.83,4.76-8.68.54-17.52-2.56-23.98-8.37-3.99,1.1-8.19,1.17-12.24.23h-.07c3.76-.81,7.59-1.92,11.44-3.29,3.56-5.59,6.18-11.79,7.68-18.25.62,4.82-.45,8.03-1.43,11.91-.43,1.7-1.18,3.4-2.23,4.82,2.63-1.04,5.26-2.19,7.88-3.43,2.71-6.39,4.32-13.24,4.74-20.17,1.48,4.82.95,8.28.63,12.42-.16,2.08-.77,4.23-1.82,6.02,1.17-.58,2.34-1.18,3.5-1.8,3.9-5.09,7.32-10.55,10.19-16.29.07,3.84-1.65,8.65-3.52,12.01-.18.33-.38.64-.57.94,8.45-4.81,16.53-10.1,23.73-15.04-4.78,5.87-12.34,11.89-20.76,17.12Z"/>
        <path class="cls-1" d="M1376.62,400.86c-11.7-.72-23.62,2.92-32.93,10.06-8.48,6.5-14.7,15.85-17.51,26.15-4.99,2.73-9.68,6.11-14.01,9.77-4.04,3.41-7.91,7.13-10.67,11.65-.44-10.64-1.29-23.91-1.84-38.21,4.92-6.16,10.07-12.14,15.43-17.92,3.59-.21,7.51.66,11.16.87,12.37.71,24.01-7.09,31.11-17.25,7.09-10.16,10.4-22.42,13.21-34.48-11.93-.56-24.53-.98-35.03,4.68-8.33,4.49-14.39,12.4-18.36,20.98-3.22,6.95-5.19,14.39-6.92,21.87-1.51,1.25-3.01,2.49-4.51,3.74-2.19,1.82-4.4,3.71-6.45,5.72-.29-12.84-.2-26.13.73-38.8,9.65.57,19.49-2.98,26.52-9.63,7.31-6.93,11.44-17.1,11.03-27.17-7.27,5.82-16.73,8.26-24.27,13.72-5.76,4.17-10.21,10.08-12.73,16.73.04-.38.08-.75.12-1.13,1.89-6.92,3.58-18.26-2.13-26.71-5.04-7.45-14.17-11.32-23.08-12.53.95,6.23,1.9,12.45,2.85,18.68.61,4,1.17,8.05,2.66,11.81,3.8,9.58,15.91,14.31,17.44,14.87-2.63,11.65-4.06,23.8-4.92,36.01-.77-1.46-1.64-2.87-2.55-4.26-2.83-4.33-5.99-8.45-9.41-12.33,1.66-9.64,2.36-19.55-1.76-28.25-4.09-8.65-12.43-14.64-21.3-18.23-8.86-3.58-18.41-5.1-27.74-7.16-.3,10.77-.45,21.73,2.45,32.11,2.9,10.38,9.3,20.28,19.02,24.94,8.26,3.96,17.8,3.74,26.98,3.29,4.69,7.25,9.22,14.6,13.61,22.04-.38,8.25-.59,16.47-.83,24.5-.13,4.29-.24,8.21-.34,11.83-4.57-4.19-11.21-9.92-16.09-13.29-.3-6.87-.97-13.73-3.01-20.27-2.5-8.01-7.28-15.59-14.48-19.91-15.14-9.07-35.49-1.38-51.74-8.28.75,8.83,2.09,17.68,5.23,25.97,3.14,8.28,8.2,16.01,15.34,21.25,6.82,4.99,15.24,7.5,23.67,8.14,7.45.56,14.92-.27,22.26-1.7,6.42,5.88,12.61,12.19,18.57,18.43-.52,23.37-.32,32.45-.67,52.25,2.86-.33,14.28-.19,17.14,0-3.06-16-4.86-32.15-5.83-47.22,7.5-9.71,16.27-18.45,26-25.92,7.17,5.75,15.59,10.04,24.66,11.36,10.18,1.48,21.17-1.09,28.75-8.05,12.55-11.51,13.23-31.42,23.9-44.68-8.87,3.91-19.04.54-28.72-.06ZM1321.42,393.66c.17-.17.39-.32.64-.47,3.77-6.69,6.26-14.1,7.26-21.72-.24,4.35.1,8.75-.77,13.02-.4,1.95-1.13,3.9-2.18,5.6,2.76-2.13,5.48-4.44,8.14-6.86.72-1.78,1.39-3.84,1.73-5.13,1.48-5.84,2.45-9.55,3.63-15.65.42,6.14-.18,9.8-.77,14.02-.16,1.13-.38,2.15-.68,3.08,7.04-6.85,13.54-14.31,19.16-21.08-2.86,6.65-8.5,14.23-15.05,21.12,5.25-1.29,10-3.13,15.21-6.87-4.53,6.22-10.43,8.73-17.79,9.5-3.39,3.34-6.95,6.46-10.45,9.14,2.89-.3,6-.36,8.44-.19,3.19.22,8.11-.17,10.65-1.89-2.65,3.69-7.19,5.84-15.13,4.99-1.46-.16-4.64-.32-7.37-.43-.16.11-.32.22-.47.33-3.27,2.22-7.11,3.46-11.06,3.66h-.05c2.33-1.22,4.64-2.63,6.93-4.18ZM1311.2,360.09c2.1-4.04,3.64-7.35,4.96-12.91.48,4.41-.95,8-2.19,10.54,5.56-4.92,10.67-10.33,15.22-16.2-3.04,6.92-7.8,13.05-13.66,17.82.73-.27,1.47-.54,2.2-.81,2.93-1.07,5.97-2.21,8.17-4.42-2.31,4.49-7.51,7.26-12.51,6.88-3.56,2.59-7.47,4.7-11.61,6.2,3.26-2.21,6.4-4.59,9.43-7.11ZM1296.68,362.55c-.66-2.53-1.43-5.05-2.29-7.55-4.33-2.58-10.53-8.26-11.8-10.91,3.92,3.01,7.16,5.5,10.88,8.37-2.53-6.86-5.65-13.55-8.93-20.01.46.7,3.66,4.12,5.82,8.52,1.83,3.73,3.88,7.43,5.2,11.22.76-4.59.95-9.28.55-13.92,1.6,3.95,1.41,11.58.1,16.05.7,2.66.97,5.39.47,8.23ZM1270.92,383.37c-4.87.1-13.97-.08-16.37-.65-2.64-.63-7.34-2.09-10.08-4.87,7.5,2.19,15.41,2.94,23.2,2.26-1.68-1.75-3.4-3.64-5.1-5.6-4.59-.22-9.76-.62-11.48-1.09-2.62-.72-7.26-2.37-9.9-5.24,6.01,2,12.33,3.01,18.66,3.12-1.24-1.5-2.46-3.02-3.64-4.55-6.75-1.36-13.11-4.62-18.08-9.38,5.01,1.77,10.01,3.54,15.02,5.31-4.4-6.03-8.08-11.93-10.07-16.45,3.23,3.4,7.58,8.4,12.14,13.88-.13-.96-.19-1.93-.19-2.89.01-4.07.18-8.27,1.13-12.17.43,5.91.85,11.83,1.28,17.75,1.54,1.88,3.09,3.79,4.61,5.7-.03-.41-.05-.85-.05-1.31,0-4.07-.63-11.32,1.21-14.93.47,6.49.93,12.98,1.4,19.47,1.81,2.31,3.56,4.57,5.17,6.71.01-.17.02-.35.04-.51.62-6.23,1.24-12.47,1.87-18.71,1.73,7,1.63,14.45-.27,21.41,2.29,3.09,4.24,5.85,5.63,8.01-1.88-1.39-3.95-3.19-6.12-5.27ZM1270.98,440.87c-2.07-.39-4.03-1.14-5.84-2.22-.97-.58-1.97-1.19-2.99-1.84-9.55,2.75-20,2.24-29.23-1.44,8.44.21,16,.8,25.64-.88-2.89-1.9-5.87-3.95-8.76-5.98-4.31.26-8.64.46-12.93.03-4.63-.46-9.27-1.71-13.17-4.27,6.9.83,13.88,1.65,20.78.79.14-.02.28-.04.42-.05-2.22-1.6-4.31-3.13-6.15-4.5-1.45-1.08-2.9-2.18-4.32-3.32-6.76.86-13.94.39-19.57-3.37,6.59,1.47,10.86,1.16,16.36.66-4.2-3.72-7.94-7.88-10.52-12.83,4.66,3.87,8.92,7.24,12.89,10.28-.69-3.02-1.66-8.31-1.04-11.49,1.34,4.58,2.68,9.17,4.03,13.75,3.16,2.38,6.15,4.57,9.01,6.67-1.49-7.25-1.94-12.51-.66-17.12,1.38,7.49,1.43,12.52,3.97,19.53,3.57,2.61,6.97,5.11,10.34,7.73-1.18-7.06-2-14.21-.82-21.24.22,8.05,2.8,16.57,4.89,24.47,2.54,2.07,5.1,4.24,7.71,6.61h-.03ZM1370.28,425.01c5.37-.79,10.27-.16,17.35-1.09-6.89,3.72-15.22,4.26-22.64,4.21-2.21,1.24-4.45,2.41-6.69,3.51,6.41,2.61,12.64,4.09,19.96,6.28-10.22.5-16.07-1.37-22.94-4.87-2.87,1.32-5.71,2.49-8.46,3.49,3.01,1.07,5.75,3.02,8.43,4.85,3.57,2.45,8.45,3.65,11.83,4.76-8.68.54-17.52-2.56-23.98-8.37-3.99,1.1-8.19,1.17-12.24.23h-.07c3.76-.81,7.59-1.92,11.44-3.29,3.56-5.59,6.18-11.79,7.68-18.25.62,4.82-.45,8.03-1.43,11.91-.43,1.7-1.18,3.4-2.23,4.82,2.63-1.04,5.26-2.19,7.88-3.43,2.71-6.39,4.32-13.24,4.74-20.17,1.48,4.82.95,8.28.63,12.42-.16,2.08-.77,4.23-1.82,6.02,1.17-.58,2.34-1.18,3.5-1.8,3.9-5.09,7.32-10.55,10.19-16.29.07,3.84-1.65,8.65-3.52,12.01-.18.33-.38.64-.57.94,8.45-4.81,16.53-10.1,23.73-15.04-4.78,5.87-12.34,11.89-20.76,17.12Z"/>
        <path class="cls-1" d="M1722.34,400.86c-11.7-.72-23.62,2.92-32.93,10.06-8.48,6.5-14.7,15.85-17.51,26.15-4.99,2.73-9.68,6.11-14.01,9.77-4.04,3.41-7.91,7.13-10.67,11.65-.44-10.64-1.29-23.91-1.84-38.21,4.92-6.16,10.07-12.14,15.43-17.92,3.59-.21,7.51.66,11.16.87,12.37.71,24.01-7.09,31.11-17.25,7.09-10.16,10.4-22.42,13.21-34.48-11.93-.56-24.53-.98-35.03,4.68-8.33,4.49-14.39,12.4-18.36,20.98-3.22,6.95-5.19,14.39-6.92,21.87-1.51,1.25-3.01,2.49-4.51,3.74-2.19,1.82-4.4,3.71-6.45,5.72-.29-12.84-.2-26.13.73-38.8,9.65.57,19.49-2.98,26.52-9.63,7.31-6.93,11.44-17.1,11.03-27.17-7.27,5.82-16.73,8.26-24.27,13.72-5.76,4.17-10.21,10.08-12.73,16.73.04-.38.08-.75.12-1.13,1.89-6.92,3.58-18.26-2.13-26.71-5.04-7.45-14.17-11.32-23.08-12.53.95,6.23,1.9,12.45,2.85,18.68.61,4,1.17,8.05,2.66,11.81,3.8,9.58,15.91,14.31,17.44,14.87-2.63,11.65-4.06,23.8-4.92,36.01-.77-1.46-1.64-2.87-2.55-4.26-2.83-4.33-5.99-8.45-9.41-12.33,1.66-9.64,2.36-19.55-1.76-28.25-4.09-8.65-12.43-14.64-21.3-18.23-8.86-3.58-18.41-5.1-27.74-7.16-.3,10.77-.45,21.73,2.45,32.11,2.9,10.38,9.3,20.28,19.02,24.94,8.26,3.96,17.8,3.74,26.98,3.29,4.69,7.25,9.22,14.6,13.61,22.04-.38,8.25-.59,16.47-.83,24.5-.13,4.29-.24,8.21-.34,11.83-4.57-4.19-11.21-9.92-16.09-13.29-.3-6.87-.97-13.73-3.01-20.27-2.5-8.01-7.28-15.59-14.48-19.91-15.14-9.07-35.49-1.38-51.74-8.28.75,8.83,2.09,17.68,5.23,25.97,3.14,8.28,8.2,16.01,15.34,21.25,6.82,4.99,15.24,7.5,23.67,8.14,7.45.56,14.92-.27,22.26-1.7,6.42,5.88,12.61,12.19,18.57,18.43-.52,23.37-.32,32.45-.67,52.25,2.86-.33,14.28-.19,17.14,0-3.06-16-4.86-32.15-5.83-47.22,7.5-9.71,16.27-18.45,26-25.92,7.17,5.75,15.59,10.04,24.66,11.36,10.18,1.48,21.17-1.09,28.75-8.05,12.55-11.51,13.23-31.42,23.9-44.68-8.87,3.91-19.04.54-28.72-.06ZM1667.14,393.66c.17-.17.39-.32.64-.47,3.77-6.69,6.26-14.1,7.26-21.72-.24,4.35.1,8.75-.77,13.02-.4,1.95-1.13,3.9-2.18,5.6,2.76-2.13,5.48-4.44,8.14-6.86.72-1.78,1.39-3.84,1.73-5.13,1.48-5.84,2.45-9.55,3.63-15.65.42,6.14-.18,9.8-.77,14.02-.16,1.13-.38,2.15-.68,3.08,7.04-6.85,13.54-14.31,19.16-21.08-2.86,6.65-8.5,14.23-15.05,21.12,5.25-1.29,10-3.13,15.21-6.87-4.53,6.22-10.43,8.73-17.79,9.5-3.39,3.34-6.95,6.46-10.45,9.14,2.89-.3,6-.36,8.44-.19,3.19.22,8.11-.17,10.65-1.89-2.65,3.69-7.19,5.84-15.13,4.99-1.46-.16-4.64-.32-7.37-.43-.16.11-.32.22-.47.33-3.27,2.22-7.11,3.46-11.06,3.66h-.05c2.33-1.22,4.64-2.63,6.93-4.18ZM1656.92,360.09c2.1-4.04,3.64-7.35,4.96-12.91.48,4.41-.95,8-2.19,10.54,5.56-4.92,10.67-10.33,15.22-16.2-3.04,6.92-7.8,13.05-13.66,17.82.73-.27,1.47-.54,2.2-.81,2.93-1.07,5.97-2.21,8.17-4.42-2.31,4.49-7.51,7.26-12.51,6.88-3.56,2.59-7.47,4.7-11.61,6.2,3.26-2.21,6.4-4.59,9.43-7.11ZM1642.4,362.55c-.66-2.53-1.43-5.05-2.29-7.55-4.33-2.58-10.53-8.26-11.8-10.91,3.92,3.01,7.16,5.5,10.88,8.37-2.53-6.86-5.65-13.55-8.93-20.01.46.7,3.66,4.12,5.82,8.52,1.83,3.73,3.88,7.43,5.2,11.22.76-4.59.95-9.28.55-13.92,1.6,3.95,1.41,11.58.1,16.05.7,2.66.97,5.39.47,8.23ZM1616.64,383.37c-4.87.1-13.97-.08-16.37-.65-2.64-.63-7.34-2.09-10.08-4.87,7.5,2.19,15.41,2.94,23.2,2.26-1.68-1.75-3.4-3.64-5.1-5.6-4.59-.22-9.76-.62-11.48-1.09-2.62-.72-7.26-2.37-9.9-5.24,6.01,2,12.33,3.01,18.66,3.12-1.24-1.5-2.46-3.02-3.64-4.55-6.75-1.36-13.11-4.62-18.08-9.38,5.01,1.77,10.01,3.54,15.02,5.31-4.4-6.03-8.08-11.93-10.07-16.45,3.23,3.4,7.58,8.4,12.14,13.88-.13-.96-.19-1.93-.19-2.89.01-4.07.18-8.27,1.13-12.17.43,5.91.85,11.83,1.28,17.75,1.54,1.88,3.09,3.79,4.61,5.7-.03-.41-.05-.85-.05-1.31,0-4.07-.63-11.32,1.21-14.93.47,6.49.93,12.98,1.4,19.47,1.81,2.31,3.56,4.57,5.17,6.71.01-.17.02-.35.04-.51.62-6.23,1.24-12.47,1.87-18.71,1.73,7,1.63,14.45-.27,21.41,2.29,3.09,4.24,5.85,5.63,8.01-1.88-1.39-3.95-3.19-6.12-5.27ZM1616.7,440.87c-2.07-.39-4.03-1.14-5.84-2.22-.97-.58-1.97-1.19-2.99-1.84-9.55,2.75-20,2.24-29.23-1.44,8.44.21,16,.8,25.64-.88-2.89-1.9-5.87-3.95-8.76-5.98-4.31.26-8.64.46-12.93.03-4.63-.46-9.27-1.71-13.17-4.27,6.9.83,13.88,1.65,20.78.79.14-.02.28-.04.42-.05-2.22-1.6-4.31-3.13-6.15-4.5-1.45-1.08-2.9-2.18-4.32-3.32-6.76.86-13.94.39-19.57-3.37,6.59,1.47,10.86,1.16,16.36.66-4.2-3.72-7.94-7.88-10.52-12.83,4.66,3.87,8.92,7.24,12.89,10.28-.69-3.02-1.66-8.31-1.04-11.49,1.34,4.58,2.68,9.17,4.03,13.75,3.16,2.38,6.15,4.57,9.01,6.67-1.49-7.25-1.94-12.51-.66-17.12,1.38,7.49,1.43,12.52,3.97,19.53,3.57,2.61,6.97,5.11,10.34,7.73-1.18-7.06-2-14.21-.82-21.24.22,8.05,2.8,16.57,4.89,24.47,2.54,2.07,5.1,4.24,7.71,6.61h-.03ZM1716.01,425.01c5.37-.79,10.27-.16,17.35-1.09-6.89,3.72-15.22,4.26-22.64,4.21-2.21,1.24-4.45,2.41-6.69,3.51,6.41,2.61,12.64,4.09,19.96,6.28-10.22.5-16.07-1.37-22.94-4.87-2.87,1.32-5.71,2.49-8.46,3.49,3.01,1.07,5.75,3.02,8.43,4.85,3.57,2.45,8.45,3.65,11.83,4.76-8.68.54-17.52-2.56-23.98-8.37-3.99,1.1-8.19,1.17-12.24.23h-.07c3.76-.81,7.59-1.92,11.44-3.29,3.56-5.59,6.18-11.79,7.68-18.25.62,4.82-.45,8.03-1.43,11.91-.43,1.7-1.18,3.4-2.23,4.82,2.63-1.04,5.26-2.19,7.88-3.43,2.71-6.39,4.32-13.24,4.74-20.17,1.48,4.82.95,8.28.63,12.42-.16,2.08-.77,4.23-1.82,6.02,1.17-.58,2.34-1.18,3.5-1.8,3.9-5.09,7.32-10.55,10.19-16.29.07,3.84-1.65,8.65-3.52,12.01-.18.33-.38.64-.57.94,8.45-4.81,16.53-10.1,23.73-15.04-4.78,5.87-12.34,11.89-20.76,17.12Z"/>
        <path class="cls-1" d="M339.46,400.86c-11.7-.72-23.62,2.92-32.93,10.06-8.48,6.5-14.7,15.85-17.51,26.15-4.99,2.73-9.68,6.11-14.01,9.77-4.04,3.41-7.91,7.13-10.67,11.65-.44-10.64-1.29-23.91-1.84-38.21,4.92-6.16,10.07-12.14,15.43-17.92,3.59-.21,7.51.66,11.16.87,12.37.71,24.01-7.09,31.11-17.25,7.09-10.16,10.4-22.42,13.21-34.48-11.93-.56-24.53-.98-35.03,4.68-8.33,4.49-14.39,12.4-18.36,20.98-3.22,6.95-5.19,14.39-6.92,21.87-1.51,1.25-3.01,2.49-4.51,3.74-2.19,1.82-4.4,3.71-6.45,5.72-.29-12.84-.2-26.13.73-38.8,9.65.57,19.49-2.98,26.52-9.63,7.31-6.93,11.44-17.1,11.03-27.17-7.27,5.82-16.73,8.26-24.27,13.72-5.76,4.17-10.21,10.08-12.73,16.73.04-.38.08-.75.12-1.13,1.89-6.92,3.58-18.26-2.13-26.71-5.04-7.45-14.17-11.32-23.08-12.53.95,6.23,1.9,12.45,2.85,18.68.61,4,1.17,8.05,2.66,11.81,3.8,9.58,15.91,14.31,17.44,14.87-2.63,11.65-4.06,23.8-4.92,36.01-.77-1.46-1.64-2.87-2.55-4.26-2.83-4.33-5.99-8.45-9.41-12.33,1.66-9.64,2.36-19.55-1.76-28.25-4.09-8.65-12.43-14.64-21.3-18.23-8.86-3.58-18.41-5.1-27.74-7.16-.3,10.77-.45,21.73,2.45,32.11,2.9,10.38,9.3,20.28,19.02,24.94,8.26,3.96,17.8,3.74,26.98,3.29,4.69,7.25,9.22,14.6,13.61,22.04-.38,8.25-.59,16.47-.83,24.5-.13,4.29-.24,8.21-.34,11.83-4.57-4.19-11.21-9.92-16.09-13.29-.3-6.87-.97-13.73-3.01-20.27-2.5-8.01-7.28-15.59-14.48-19.91-15.14-9.07-35.49-1.38-51.74-8.28.75,8.83,2.09,17.68,5.23,25.97,3.14,8.28,8.2,16.01,15.34,21.25,6.82,4.99,15.24,7.5,23.67,8.14,7.45.56,14.92-.27,22.26-1.7,6.42,5.88,12.61,12.19,18.57,18.43-.52,23.37-.32,32.45-.67,52.25,2.86-.33,14.28-.19,17.14,0-3.06-16-4.86-32.15-5.83-47.22,7.5-9.71,16.27-18.45,26-25.92,7.17,5.75,15.59,10.04,24.66,11.36,10.18,1.48,21.17-1.09,28.75-8.05,12.55-11.51,13.23-31.42,23.9-44.68-8.87,3.91-19.04.54-28.72-.06ZM284.26,393.66c.17-.17.39-.32.64-.47,3.77-6.69,6.26-14.1,7.26-21.72-.24,4.35.1,8.75-.77,13.02-.4,1.95-1.13,3.9-2.18,5.6,2.76-2.13,5.48-4.44,8.14-6.86.72-1.78,1.39-3.84,1.73-5.13,1.48-5.84,2.45-9.55,3.63-15.65.42,6.14-.18,9.8-.77,14.02-.16,1.13-.38,2.15-.68,3.08,7.04-6.85,13.54-14.31,19.16-21.08-2.86,6.65-8.5,14.23-15.05,21.12,5.25-1.29,10-3.13,15.21-6.87-4.53,6.22-10.43,8.73-17.79,9.5-3.39,3.34-6.95,6.46-10.45,9.14,2.89-.3,6-.36,8.44-.19,3.19.22,8.11-.17,10.65-1.89-2.65,3.69-7.19,5.84-15.13,4.99-1.46-.16-4.64-.32-7.37-.43-.16.11-.32.22-.47.33-3.27,2.22-7.11,3.46-11.06,3.66h-.05c2.33-1.22,4.64-2.63,6.93-4.18ZM274.04,360.09c2.1-4.04,3.64-7.35,4.96-12.91.48,4.41-.95,8-2.19,10.54,5.56-4.92,10.67-10.33,15.22-16.2-3.04,6.92-7.8,13.05-13.66,17.82.73-.27,1.47-.54,2.2-.81,2.93-1.07,5.97-2.21,8.17-4.42-2.31,4.49-7.51,7.26-12.51,6.88-3.56,2.59-7.47,4.7-11.61,6.2,3.26-2.21,6.4-4.59,9.43-7.11ZM259.52,362.55c-.66-2.53-1.43-5.05-2.29-7.55-4.33-2.58-10.53-8.26-11.8-10.91,3.92,3.01,7.16,5.5,10.88,8.37-2.53-6.86-5.65-13.55-8.93-20.01.46.7,3.66,4.12,5.82,8.52,1.83,3.73,3.88,7.43,5.2,11.22.76-4.59.95-9.28.55-13.92,1.6,3.95,1.41,11.58.1,16.05.7,2.66.97,5.39.47,8.23ZM233.75,383.37c-4.87.1-13.97-.08-16.37-.65-2.64-.63-7.34-2.09-10.08-4.87,7.5,2.19,15.41,2.94,23.2,2.26-1.68-1.75-3.4-3.64-5.1-5.6-4.59-.22-9.76-.62-11.48-1.09-2.62-.72-7.26-2.37-9.9-5.24,6.01,2,12.33,3.01,18.66,3.12-1.24-1.5-2.46-3.02-3.64-4.55-6.75-1.36-13.11-4.62-18.08-9.38,5.01,1.77,10.01,3.54,15.02,5.31-4.4-6.03-8.08-11.93-10.07-16.45,3.23,3.4,7.58,8.4,12.14,13.88-.13-.96-.19-1.93-.19-2.89.01-4.07.18-8.27,1.13-12.17.43,5.91.85,11.83,1.28,17.75,1.54,1.88,3.09,3.79,4.61,5.7-.03-.41-.05-.85-.05-1.31,0-4.07-.63-11.32,1.21-14.93.47,6.49.93,12.98,1.4,19.47,1.81,2.31,3.56,4.57,5.17,6.71.01-.17.02-.35.04-.51.62-6.23,1.24-12.47,1.87-18.71,1.73,7,1.63,14.45-.27,21.41,2.29,3.09,4.24,5.85,5.63,8.01-1.88-1.39-3.95-3.19-6.12-5.27ZM233.82,440.87c-2.07-.39-4.03-1.14-5.84-2.22-.97-.58-1.97-1.19-2.99-1.84-9.55,2.75-20,2.24-29.23-1.44,8.44.21,16,.8,25.64-.88-2.89-1.9-5.87-3.95-8.76-5.98-4.31.26-8.64.46-12.93.03-4.63-.46-9.27-1.71-13.17-4.27,6.9.83,13.88,1.65,20.78.79.14-.02.28-.04.42-.05-2.22-1.6-4.31-3.13-6.15-4.5-1.45-1.08-2.9-2.18-4.32-3.32-6.76.86-13.94.39-19.57-3.37,6.59,1.47,10.86,1.16,16.36.66-4.2-3.72-7.94-7.88-10.52-12.83,4.66,3.87,8.92,7.24,12.89,10.28-.69-3.02-1.66-8.31-1.04-11.49,1.34,4.58,2.68,9.17,4.03,13.75,3.16,2.38,6.15,4.57,9.01,6.67-1.49-7.25-1.94-12.51-.66-17.12,1.38,7.49,1.43,12.52,3.97,19.53,3.57,2.61,6.97,5.11,10.34,7.73-1.18-7.06-2-14.21-.82-21.24.22,8.05,2.8,16.57,4.89,24.47,2.54,2.07,5.1,4.24,7.71,6.61h-.03ZM333.12,425.01c5.37-.79,10.27-.16,17.35-1.09-6.89,3.72-15.22,4.26-22.64,4.21-2.21,1.24-4.45,2.41-6.69,3.51,6.41,2.61,12.64,4.09,19.96,6.28-10.22.5-16.07-1.37-22.94-4.87-2.87,1.32-5.71,2.49-8.46,3.49,3.01,1.07,5.75,3.02,8.43,4.85,3.57,2.45,8.45,3.65,11.83,4.76-8.68.54-17.52-2.56-23.98-8.37-3.99,1.1-8.19,1.17-12.24.23h-.07c3.76-.81,7.59-1.92,11.44-3.29,3.56-5.59,6.18-11.79,7.68-18.25.62,4.82-.45,8.03-1.43,11.91-.43,1.7-1.18,3.4-2.23,4.82,2.63-1.04,5.26-2.19,7.88-3.43,2.71-6.39,4.32-13.24,4.74-20.17,1.48,4.82.95,8.28.63,12.42-.16,2.08-.77,4.23-1.82,6.02,1.17-.58,2.34-1.18,3.5-1.8,3.9-5.09,7.32-10.55,10.19-16.29.07,3.84-1.65,8.65-3.52,12.01-.18.33-.38.64-.57.94,8.45-4.81,16.53-10.1,23.73-15.04-4.78,5.87-12.34,11.89-20.76,17.12Z"/>
      </g>
    </g>
    <g>
      <path class="cls-1" d="M253.04,759.13c-48.5,0-90.34-38.11-90.34-98.86s44.5-101.26,98.33-101.26c33.58,0,73.55,14.66,73.55,49.03,0,21.85-17.05,33.31-32.51,33.31s-29.31-10.66-25.85-32.24c2.4-16.52-4-33.58-19.72-33.58s-36.77,17.59-36.77,62.36,20.25,71.15,55.96,71.15c15.99,0,36.24-5.6,44.77-25.32,2.66-6.4,5.6-8.26,8.79-7.46s6.93,4.53,4,19.45c-7.2,34.11-37.31,63.42-80.21,63.42Z"/>
      <path class="cls-1" d="M367.09,713.29v-108.46c0-8.53-2.93-18.92-7.46-27.71-4.26-9.86-2.13-15.19,7.46-15.46h58.63c9.59.27,11.73,5.6,7.46,15.46-4.53,8.79-7.46,19.19-7.46,27.71v108.46c0,8.53,2.93,18.92,7.46,27.71,4.26,9.86,2.13,15.19-7.46,15.46h-58.63c-9.59-.27-11.72-5.6-7.46-15.46,4.53-8.79,7.46-19.19,7.46-27.71Z"/>
      <path class="cls-1" d="M675.94,561.67c9.86.27,11.99,5.6,7.46,15.46-4.26,8.79-7.46,19.19-7.46,27.71v108.46c0,8.53,3.2,18.92,7.46,27.71,4.53,9.86,2.4,15.19-7.46,15.46h-58.36c-9.59-.27-11.99-5.6-7.46-15.46,4.53-8.79,7.46-19.19,7.46-27.71v-100.46l-45.57,130.31c-3.46,9.33-10.66,13.32-20.79,13.32s-17.05-3.46-20.25-12.52l-42.1-119.65v89c0,8.53,8.53,18.92,13.06,27.71,4.53,9.86,2.13,15.19-7.46,15.46h-27.98c-9.59-.27-11.73-5.6-7.46-15.46,4.53-8.79,13.06-19.19,13.06-27.71v-108.46c0-8.53-8.53-18.92-13.06-27.71-4.26-9.86-2.13-15.19,7.46-15.46h48.5c8.26,0,15.46,5.33,18.39,13.06l39.71,114.85,39.97-114.85c2.93-7.73,10.13-13.06,18.39-13.06h44.5Z"/>
      <path class="cls-1" d="M718.84,713.29v-108.46c0-8.53-2.93-18.92-7.46-27.71-4.26-9.86-2.13-15.19,7.46-15.46h58.63c9.59.27,11.73,5.6,7.46,15.46-4.53,8.79-7.46,19.19-7.46,27.71v108.46c0,8.53,2.93,18.92,7.46,27.71,4.26,9.86,2.13,15.19-7.46,15.46h-58.63c-9.59-.27-11.72-5.6-7.46-15.46,4.53-8.79,7.46-19.19,7.46-27.71Z"/>
      <path class="cls-1" d="M878.72,739.68h27.45c32.51,0,33.04-30.11,46.1-36.51,1.33-.53,2.4-.8,3.73-.8,4,0,7.19,3.2,7.19,10.66v35.97c0,4.26-2.93,7.46-7.46,7.46h-135.37c-9.86,0-12.26-5.6-7.46-15.46,4-8.79,7.46-19.19,7.46-27.71v-108.46c0-8.53-3.46-18.92-7.46-27.71-4.8-9.86-2.4-15.46,7.46-15.46h135.37c4.53,0,7.46,3.2,7.46,7.46v35.97c0,7.46-3.2,10.66-7.19,10.66-1.33,0-2.4-.27-3.73-.8-13.06-6.4-13.59-36.51-46.1-36.51h-27.45v72.22h22.38c8.53,0,18.92-6.13,26.11-11.72,4.8-3.73,7.99-5.33,10.13-5.33,2.93,0,4,3.2,4,8.79v33.31c0,5.6-1.07,8.79-4,8.79-2.13,0-5.33-1.6-10.13-5.33-7.19-5.6-17.59-11.72-26.11-11.72h-22.38v72.22Z"/>
      <path class="cls-1" d="M1099.9,756.46c-8.53,0-16.52-5.06-19.99-12.52l-62.09-129.24v98.6c0,8.53,8.53,18.92,13.06,27.71,4.53,9.86,2.13,15.19-7.46,15.46h-27.98c-9.59-.27-11.72-5.6-7.46-15.46,4.53-8.79,13.06-19.19,13.06-27.71v-108.46c0-8.53-8.53-18.92-13.06-27.71-3.73-8.79-2.4-15.46,4.8-15.46h50.63c8.26,0,16.52,5.06,19.99,12.52l67.15,139.64v-108.99c0-8.53-8.79-18.92-13.06-27.71-4.53-9.86-2.4-15.19,7.46-15.46h27.71c9.86.27,11.99,5.6,7.46,15.46-4.26,8.79-13.06,19.19-13.06,27.71v137.77c0,8.26-5.6,13.86-13.86,13.86h-33.31Z"/>
      <path class="cls-1" d="M1233.94,578.45c-32.51,0-32.78,27.45-45.83,33.84-1.33.53-2.66.8-4,.8-4,0-7.2-3.2-7.2-10.66v-33.31c0-4.26,3.2-7.46,7.46-7.46h168.68c4.26,0,7.46,3.2,7.46,7.46v33.31c0,7.46-3.2,10.66-7.2,10.66-1.33,0-2.66-.27-4-.8-13.06-6.39-13.32-33.84-45.83-33.84h-5.6v134.84c0,8.53,3.46,18.92,7.46,27.71,4.8,9.86,2.4,15.46-7.46,15.46h-58.36c-9.86,0-12.26-5.6-7.46-15.46,4-8.79,7.46-19.19,7.46-27.71v-134.84h-5.6Z"/>
      <path class="cls-1" d="M1475.63,559c54.36,0,98.86,38.11,98.86,100.2s-44.5,99.93-98.86,99.93-99.4-38.11-99.4-99.93,44.5-100.2,99.4-100.2ZM1475.63,742.61c21.59,0,39.17-17.59,39.17-83.41s-17.59-83.67-39.17-83.67-39.71,17.59-39.71,83.67,17.85,83.41,39.71,83.41Z"/>
      <path class="cls-1" d="M1708.8,721.82c0-28.51-112.19-40.51-112.19-102.33,0-32.78,31.44-60.49,77.01-60.49,30.65,0,77.55,12.52,77.55,44.77,0,17.32-13.59,31.71-30.65,31.71-14.66,0-25.32-10.39-25.32-30.11,0-17.05-8.26-29.85-21.05-29.85-13.86,0-21.85,14.92-21.85,25.58,0,39.71,104.99,36.51,104.99,100.2,0,34.11-29.85,57.83-79.14,57.83-42.9,0-82.08-17.85-82.08-45.84,0-16.52,13.59-30.91,30.91-30.91,14.39,0,25.32,10.39,25.32,25.58,0,9.59-4.26,34.64,23.45,34.64,16.79,0,33.04-9.86,33.04-20.79Z"/>
    </g>
    <g>
      <rect class="cls-1" x="162.91" y="467.99" width="1594.39" height="14.2"/>
      <rect class="cls-1" x="162.91" y="526.02" width="1594.39" height="14.2"/>
      <g>
        <g>
          <g>
            <g>
              <path class="cls-1" d="M742.72,504.12l-18.1,18.1-18.1-18.1,18.1-18.1,18.1,18.1ZM724.62,518.65l14.53-14.53-14.53-14.53-14.53,14.53,14.53,14.53Z"/>
              <path class="cls-1" d="M734.32,504.12l-9.7,9.7-9.7-9.7,9.7-9.7,9.7,9.7ZM724.62,510.24l6.13-6.13-6.13-6.13-6.13,6.13,6.13,6.13Z"/>
            </g>
            <g>
              <path class="cls-1" d="M706.52,504.12l-18.1,18.1-18.1-18.1,18.1-18.1,18.1,18.1ZM688.42,518.65l14.53-14.53-14.53-14.53-14.53,14.53,14.53,14.53Z"/>
              <path class="cls-1" d="M698.12,504.12l-9.7,9.7-9.7-9.7,9.7-9.7,9.7,9.7ZM688.42,510.24l6.13-6.13-6.13-6.13-6.13,6.13,6.13,6.13Z"/>
            </g>
            <g>
              <path class="cls-1" d="M670.32,504.12l-18.1,18.1-18.1-18.1,18.1-18.1,18.1,18.1ZM652.22,518.65l14.53-14.53-14.53-14.53-14.53,14.53,14.53,14.53Z"/>
              <path class="cls-1" d="M661.92,504.12l-9.7,9.7-9.7-9.7,9.7-9.7,9.7,9.7ZM652.22,510.24l6.13-6.13-6.13-6.13-6.13,6.13,6.13,6.13Z"/>
            </g>
            <g>
              <path class="cls-1" d="M634.12,504.12l-18.1,18.1-18.1-18.1,18.1-18.1,18.1,18.1ZM616.02,518.65l14.53-14.53-14.53-14.53-14.53,14.53,14.53,14.53Z"/>
              <path class="cls-1" d="M625.72,504.12l-9.7,9.7-9.7-9.7,9.7-9.7,9.7,9.7ZM616.02,510.24l6.13-6.13-6.13-6.13-6.13,6.13,6.13,6.13Z"/>
            </g>
            <g>
              <path class="cls-1" d="M597.92,504.12l-18.1,18.1-18.1-18.1,18.1-18.1,18.1,18.1ZM579.82,518.65l14.53-14.53-14.53-14.53-14.53,14.53,14.53,14.53Z"/>
              <path class="cls-1" d="M589.52,504.12l-9.7,9.7-9.7-9.7,9.7-9.7,9.7,9.7ZM579.82,510.24l6.13-6.13-6.13-6.13-6.13,6.13,6.13,6.13Z"/>
            </g>
            <g>
              <path class="cls-1" d="M561.72,504.12l-18.1,18.1-18.1-18.1,18.1-18.1,18.1,18.1ZM543.62,518.65l14.53-14.53-14.53-14.53-14.53,14.53,14.53,14.53Z"/>
              <path class="cls-1" d="M553.32,504.12l-9.7,9.7-9.7-9.7,9.7-9.7,9.7,9.7ZM543.62,510.24l6.13-6.13-6.13-6.13-6.13,6.13,6.13,6.13Z"/>
            </g>
            <g>
              <path class="cls-1" d="M525.52,504.12l-18.1,18.1-18.1-18.1,18.1-18.1,18.1,18.1ZM507.42,518.65l14.53-14.53-14.53-14.53-14.53,14.53,14.53,14.53Z"/>
              <path class="cls-1" d="M517.12,504.12l-9.7,9.7-9.7-9.7,9.7-9.7,9.7,9.7ZM507.42,510.24l6.13-6.13-6.13-6.13-6.13,6.13,6.13,6.13Z"/>
            </g>
            <g>
              <path class="cls-1" d="M489.32,504.12l-18.1,18.1-18.1-18.1,18.1-18.1,18.1,18.1ZM471.22,518.65l14.53-14.53-14.53-14.53-14.53,14.53,14.53,14.53Z"/>
              <path class="cls-1" d="M480.92,504.12l-9.7,9.7-9.7-9.7,9.7-9.7,9.7,9.7ZM471.22,510.24l6.13-6.13-6.13-6.13-6.13,6.13,6.13,6.13Z"/>
            </g>
            <g>
              <path class="cls-1" d="M453.12,504.12l-18.1,18.1-18.1-18.1,18.1-18.1,18.1,18.1ZM435.02,518.65l14.53-14.53-14.53-14.53-14.53,14.53,14.53,14.53Z"/>
              <path class="cls-1" d="M444.72,504.12l-9.7,9.7-9.7-9.7,9.7-9.7,9.7,9.7ZM435.02,510.24l6.13-6.13-6.13-6.13-6.13,6.13,6.13,6.13Z"/>
            </g>
            <g>
              <path class="cls-1" d="M416.92,504.12l-18.1,18.1-18.1-18.1,18.1-18.1,18.1,18.1ZM398.82,518.65l14.53-14.53-14.53-14.53-14.53,14.53,14.53,14.53Z"/>
              <path class="cls-1" d="M408.52,504.12l-9.7,9.7-9.7-9.7,9.7-9.7,9.7,9.7ZM398.82,510.24l6.13-6.13-6.13-6.13-6.13,6.13,6.13,6.13Z"/>
            </g>
            <g>
              <path class="cls-1" d="M380.72,504.12l-18.1,18.1-18.1-18.1,18.1-18.1,18.1,18.1ZM362.62,518.65l14.53-14.53-14.53-14.53-14.53,14.53,14.53,14.53Z"/>
              <path class="cls-1" d="M372.32,504.12l-9.7,9.7-9.7-9.7,9.7-9.7,9.7,9.7ZM362.62,510.24l6.13-6.13-6.13-6.13-6.13,6.13,6.13,6.13Z"/>
            </g>
            <g>
              <path class="cls-1" d="M344.52,504.12l-18.1,18.1-18.1-18.1,18.1-18.1,18.1,18.1ZM326.42,518.65l14.53-14.53-14.53-14.53-14.53,14.53,14.53,14.53Z"/>
              <path class="cls-1" d="M336.12,504.12l-9.7,9.7-9.7-9.7,9.7-9.7,9.7,9.7ZM326.42,510.24l6.13-6.13-6.13-6.13-6.13,6.13,6.13,6.13Z"/>
            </g>
            <g>
              <path class="cls-1" d="M308.32,504.12l-18.1,18.1-18.1-18.1,18.1-18.1,18.1,18.1ZM290.22,518.65l14.53-14.53-14.53-14.53-14.53,14.53,14.53,14.53Z"/>
              <path class="cls-1" d="M299.92,504.12l-9.7,9.7-9.7-9.7,9.7-9.7,9.7,9.7ZM290.22,510.24l6.13-6.13-6.13-6.13-6.13,6.13,6.13,6.13Z"/>
            </g>
            <g>
              <path class="cls-1" d="M272.12,504.12l-18.1,18.1-18.1-18.1,18.1-18.1,18.1,18.1ZM254.02,518.65l14.53-14.53-14.53-14.53-14.53,14.53,14.53,14.53Z"/>
              <path class="cls-1" d="M263.72,504.12l-9.7,9.7-9.7-9.7,9.7-9.7,9.7,9.7ZM254.02,510.24l6.13-6.13-6.13-6.13-6.13,6.13,6.13,6.13Z"/>
            </g>
            <g>
              <path class="cls-1" d="M235.92,504.12l-18.1,18.1-18.1-18.1,18.1-18.1,18.1,18.1ZM217.82,518.65l14.53-14.53-14.53-14.53-14.53,14.53,14.53,14.53Z"/>
              <path class="cls-1" d="M227.52,504.12l-9.7,9.7-9.7-9.7,9.7-9.7,9.7,9.7ZM217.82,510.24l6.13-6.13-6.13-6.13-6.13,6.13,6.13,6.13Z"/>
            </g>
            <g>
              <polygon class="cls-1" points="228.05 522.44 231.62 522.44 236.45 517.61 241.28 522.44 244.85 522.44 236.45 514.04 228.05 522.44"/>
              <polygon class="cls-1" points="191.32 522.44 194.89 522.44 199.72 517.61 204.55 522.44 208.12 522.44 199.72 514.04 191.32 522.44"/>
              <polygon class="cls-1" points="263.72 522.44 267.29 522.44 272.12 517.61 276.95 522.44 280.52 522.44 272.12 514.04 263.72 522.44"/>
              <polyline class="cls-1" points="308.85 517.61 313.68 522.44 317.25 522.44 308.85 514.04 300.45 522.44 304.02 522.44"/>
              <polygon class="cls-1" points="336.12 522.44 339.69 522.44 344.52 517.61 349.35 522.44 352.92 522.44 344.52 514.04 336.12 522.44"/>
              <polygon class="cls-1" points="372.58 522.44 376.15 522.44 380.98 517.61 385.82 522.44 389.39 522.44 380.98 514.04 372.58 522.44"/>
              <polygon class="cls-1" points="408.25 522.44 411.82 522.44 416.65 517.61 421.49 522.44 425.06 522.44 416.65 514.04 408.25 522.44"/>
              <polygon class="cls-1" points="444.98 522.44 448.55 522.44 453.38 517.61 458.22 522.44 461.79 522.44 453.38 514.04 444.98 522.44"/>
              <polygon class="cls-1" points="480.65 522.44 484.22 522.44 489.05 517.61 493.89 522.44 497.46 522.44 489.05 514.04 480.65 522.44"/>
              <polygon class="cls-1" points="517.38 522.44 520.95 522.44 525.78 517.61 530.62 522.44 534.19 522.44 525.78 514.04 517.38 522.44"/>
              <polygon class="cls-1" points="553.05 522.44 556.62 522.44 561.45 517.61 566.29 522.44 569.86 522.44 561.45 514.04 553.05 522.44"/>
              <polygon class="cls-1" points="589.78 522.44 593.35 522.44 598.18 517.61 603.02 522.44 606.59 522.44 598.18 514.04 589.78 522.44"/>
              <polygon class="cls-1" points="625.45 522.44 629.02 522.44 633.85 517.61 638.69 522.44 642.26 522.44 633.85 514.04 625.45 522.44"/>
              <polygon class="cls-1" points="662.18 522.44 665.75 522.44 670.58 517.61 675.42 522.44 678.99 522.44 670.58 514.04 662.18 522.44"/>
              <polygon class="cls-1" points="697.85 522.44 701.42 522.44 706.25 517.61 711.09 522.44 714.66 522.44 706.25 514.04 697.85 522.44"/>
              <polygon class="cls-1" points="734.58 522.44 738.15 522.44 742.98 517.61 747.82 522.44 751.38 522.44 742.98 514.04 734.58 522.44"/>
            </g>
            <g>
              <polygon class="cls-1" points="228.05 485.87 231.62 485.87 236.45 490.7 241.28 485.87 244.85 485.87 236.45 494.27 228.05 485.87"/>
              <polygon class="cls-1" points="191.32 485.87 194.89 485.87 199.72 490.7 204.55 485.87 208.12 485.87 199.72 494.27 191.32 485.87"/>
              <polygon class="cls-1" points="263.72 485.87 267.29 485.87 272.12 490.7 276.95 485.87 280.52 485.87 272.12 494.27 263.72 485.87"/>
              <polygon class="cls-1" points="300.45 485.87 304.02 485.87 308.85 490.7 313.68 485.87 317.25 485.87 308.85 494.27 300.45 485.87"/>
              <polygon class="cls-1" points="336.12 485.87 339.69 485.87 344.52 490.7 349.35 485.87 352.92 485.87 344.52 494.27 336.12 485.87"/>
              <polyline class="cls-1" points="385.82 485.87 389.39 485.87 380.98 494.27 372.58 485.87 376.15 485.87 380.98 490.7"/>
              <polygon class="cls-1" points="408.25 485.87 411.82 485.87 416.65 490.7 421.49 485.87 425.06 485.87 416.65 494.27 408.25 485.87"/>
              <polygon class="cls-1" points="444.98 485.87 448.55 485.87 453.38 490.7 458.22 485.87 461.79 485.87 453.38 494.27 444.98 485.87"/>
              <polygon class="cls-1" points="480.65 485.87 484.22 485.87 489.05 490.7 493.89 485.87 497.46 485.87 489.05 494.27 480.65 485.87"/>
              <polygon class="cls-1" points="517.38 485.87 520.95 485.87 525.78 490.7 530.62 485.87 534.19 485.87 525.78 494.27 517.38 485.87"/>
              <polygon class="cls-1" points="553.05 485.87 556.62 485.87 561.45 490.7 566.29 485.87 569.86 485.87 561.45 494.27 553.05 485.87"/>
              <polygon class="cls-1" points="589.78 485.87 593.35 485.87 598.18 490.7 603.02 485.87 606.59 485.87 598.18 494.27 589.78 485.87"/>
              <polygon class="cls-1" points="625.45 485.87 629.02 485.87 633.85 490.7 638.69 485.87 642.26 485.87 633.85 494.27 625.45 485.87"/>
              <polygon class="cls-1" points="662.18 485.87 665.75 485.87 670.58 490.7 675.42 485.87 678.99 485.87 670.58 494.27 662.18 485.87"/>
              <polygon class="cls-1" points="697.85 485.87 701.42 485.87 706.25 490.7 711.09 485.87 714.66 485.87 706.25 494.27 697.85 485.87"/>
              <polygon class="cls-1" points="734.58 485.87 738.15 485.87 742.98 490.7 747.82 485.87 751.38 485.87 742.98 494.27 734.58 485.87"/>
            </g>
            <g>
              <path class="cls-1" d="M199.72,504.12l-18.1,18.1-18.1-18.1,18.1-18.1,18.1,18.1ZM181.62,518.65l14.53-14.53-14.53-14.53-14.53,14.53,14.53,14.53Z"/>
              <path class="cls-1" d="M191.32,504.12l-9.7,9.7-9.7-9.7,9.7-9.7,9.7,9.7ZM181.62,510.24l6.13-6.13-6.13-6.13-6.13,6.13,6.13,6.13Z"/>
            </g>
            <g>
              <path class="cls-1" d="M778.92,504.12l-18.1,18.1-18.1-18.1,18.1-18.1,18.1,18.1ZM760.82,518.65l14.53-14.53-14.53-14.53-14.53,14.53,14.53,14.53Z"/>
              <path class="cls-1" d="M770.52,504.12l-9.7,9.7-9.7-9.7,9.7-9.7,9.7,9.7ZM760.82,510.24l6.13-6.13-6.13-6.13-6.13,6.13,6.13,6.13Z"/>
            </g>
          </g>
          <g>
            <g>
              <path class="cls-1" d="M1249.52,504.12l-18.1,18.1-18.1-18.1,18.1-18.1,18.1,18.1ZM1231.42,518.65l14.53-14.53-14.53-14.53-14.53,14.53,14.53,14.53Z"/>
              <path class="cls-1" d="M1241.11,504.12l-9.7,9.7-9.7-9.7,9.7-9.7,9.7,9.7ZM1231.42,510.24l6.13-6.13-6.13-6.13-6.13,6.13,6.13,6.13Z"/>
            </g>
            <g>
              <path class="cls-1" d="M1213.32,504.12l-18.1,18.1-18.1-18.1,18.1-18.1,18.1,18.1ZM1195.22,518.65l14.53-14.53-14.53-14.53-14.53,14.53,14.53,14.53Z"/>
              <path class="cls-1" d="M1204.91,504.12l-9.7,9.7-9.7-9.7,9.7-9.7,9.7,9.7ZM1195.22,510.24l6.13-6.13-6.13-6.13-6.13,6.13,6.13,6.13Z"/>
            </g>
            <g>
              <path class="cls-1" d="M1177.12,504.12l-18.1,18.1-18.1-18.1,18.1-18.1,18.1,18.1ZM1159.02,518.65l14.53-14.53-14.53-14.53-14.53,14.53,14.53,14.53Z"/>
              <path class="cls-1" d="M1168.71,504.12l-9.7,9.7-9.7-9.7,9.7-9.7,9.7,9.7ZM1159.02,510.24l6.13-6.13-6.13-6.13-6.13,6.13,6.13,6.13Z"/>
            </g>
            <g>
              <path class="cls-1" d="M1140.92,504.12l-18.1,18.1-18.1-18.1,18.1-18.1,18.1,18.1ZM1122.82,518.65l14.53-14.53-14.53-14.53-14.53,14.53,14.53,14.53Z"/>
              <path class="cls-1" d="M1132.51,504.12l-9.7,9.7-9.7-9.7,9.7-9.7,9.7,9.7ZM1122.82,510.24l6.13-6.13-6.13-6.13-6.13,6.13,6.13,6.13Z"/>
            </g>
            <g>
              <path class="cls-1" d="M1104.72,504.12l-18.1,18.1-18.1-18.1,18.1-18.1,18.1,18.1ZM1086.62,518.65l14.53-14.53-14.53-14.53-14.53,14.53,14.53,14.53Z"/>
              <path class="cls-1" d="M1096.31,504.12l-9.7,9.7-9.7-9.7,9.7-9.7,9.7,9.7ZM1086.62,510.24l6.13-6.13-6.13-6.13-6.13,6.13,6.13,6.13Z"/>
            </g>
            <g>
              <path class="cls-1" d="M1068.52,504.12l-18.1,18.1-18.1-18.1,18.1-18.1,18.1,18.1ZM1050.42,518.65l14.53-14.53-14.53-14.53-14.53,14.53,14.53,14.53Z"/>
              <path class="cls-1" d="M1060.11,504.12l-9.7,9.7-9.7-9.7,9.7-9.7,9.7,9.7ZM1050.42,510.24l6.13-6.13-6.13-6.13-6.13,6.13,6.13,6.13Z"/>
            </g>
            <g>
              <path class="cls-1" d="M1032.32,504.12l-18.1,18.1-18.1-18.1,18.1-18.1,18.1,18.1ZM1014.22,518.65l14.53-14.53-14.53-14.53-14.53,14.53,14.53,14.53Z"/>
              <path class="cls-1" d="M1023.91,504.12l-9.7,9.7-9.7-9.7,9.7-9.7,9.7,9.7ZM1014.22,510.24l6.13-6.13-6.13-6.13-6.13,6.13,6.13,6.13Z"/>
            </g>
            <g>
              <path class="cls-1" d="M996.12,504.12l-18.1,18.1-18.1-18.1,18.1-18.1,18.1,18.1ZM978.02,518.65l14.53-14.53-14.53-14.53-14.53,14.53,14.53,14.53Z"/>
              <path class="cls-1" d="M987.71,504.12l-9.7,9.7-9.7-9.7,9.7-9.7,9.7,9.7ZM978.02,510.24l6.13-6.13-6.13-6.13-6.13,6.13,6.13,6.13Z"/>
            </g>
            <g>
              <path class="cls-1" d="M959.92,504.12l-18.1,18.1-18.1-18.1,18.1-18.1,18.1,18.1ZM941.82,518.65l14.53-14.53-14.53-14.53-14.53,14.53,14.53,14.53Z"/>
              <path class="cls-1" d="M951.51,504.12l-9.7,9.7-9.7-9.7,9.7-9.7,9.7,9.7ZM941.82,510.24l6.13-6.13-6.13-6.13-6.13,6.13,6.13,6.13Z"/>
            </g>
            <g>
              <path class="cls-1" d="M923.72,504.12l-18.1,18.1-18.1-18.1,18.1-18.1,18.1,18.1ZM905.62,518.65l14.53-14.53-14.53-14.53-14.53,14.53,14.53,14.53Z"/>
              <path class="cls-1" d="M915.31,504.12l-9.7,9.7-9.7-9.7,9.7-9.7,9.7,9.7ZM905.62,510.24l6.13-6.13-6.13-6.13-6.13,6.13,6.13,6.13Z"/>
            </g>
            <g>
              <path class="cls-1" d="M887.52,504.12l-18.1,18.1-18.1-18.1,18.1-18.1,18.1,18.1ZM869.42,518.65l14.53-14.53-14.53-14.53-14.53,14.53,14.53,14.53Z"/>
              <path class="cls-1" d="M879.11,504.12l-9.7,9.7-9.7-9.7,9.7-9.7,9.7,9.7ZM869.42,510.24l6.13-6.13-6.13-6.13-6.13,6.13,6.13,6.13Z"/>
            </g>
            <g>
              <path class="cls-1" d="M851.32,504.12l-18.1,18.1-18.1-18.1,18.1-18.1,18.1,18.1ZM833.22,518.65l14.53-14.53-14.53-14.53-14.53,14.53,14.53,14.53Z"/>
              <path class="cls-1" d="M842.92,504.12l-9.7,9.7-9.7-9.7,9.7-9.7,9.7,9.7ZM833.22,510.24l6.13-6.13-6.13-6.13-6.13,6.13,6.13,6.13Z"/>
            </g>
            <g>
              <path class="cls-1" d="M815.12,504.12l-18.1,18.1-18.1-18.1,18.1-18.1,18.1,18.1ZM797.02,518.65l14.53-14.53-14.53-14.53-14.53,14.53,14.53,14.53Z"/>
              <path class="cls-1" d="M806.72,504.12l-9.7,9.7-9.7-9.7,9.7-9.7,9.7,9.7ZM797.02,510.24l6.13-6.13-6.13-6.13-6.13,6.13,6.13,6.13Z"/>
            </g>
            <g>
              <polygon class="cls-1" points="807.24 522.44 810.81 522.44 815.65 517.61 820.48 522.44 824.05 522.44 815.65 514.04 807.24 522.44"/>
              <polygon class="cls-1" points="770.52 522.44 774.08 522.44 778.92 517.61 783.75 522.44 787.32 522.44 778.92 514.04 770.52 522.44"/>
              <polygon class="cls-1" points="842.92 522.44 846.48 522.44 851.32 517.61 856.15 522.44 859.72 522.44 851.32 514.04 842.92 522.44"/>
              <polyline class="cls-1" points="888.05 517.61 892.88 522.44 896.45 522.44 888.05 514.04 879.64 522.44 883.21 522.44"/>
              <polygon class="cls-1" points="915.31 522.44 918.88 522.44 923.72 517.61 928.55 522.44 932.12 522.44 923.72 514.04 915.31 522.44"/>
              <polygon class="cls-1" points="951.78 522.44 955.35 522.44 960.18 517.61 965.02 522.44 968.58 522.44 960.18 514.04 951.78 522.44"/>
              <polygon class="cls-1" points="987.45 522.44 991.02 522.44 995.85 517.61 1000.69 522.44 1004.25 522.44 995.85 514.04 987.45 522.44"/>
              <polygon class="cls-1" points="1024.18 522.44 1027.75 522.44 1032.58 517.61 1037.41 522.44 1040.98 522.44 1032.58 514.04 1024.18 522.44"/>
              <polygon class="cls-1" points="1059.85 522.44 1063.42 522.44 1068.25 517.61 1073.09 522.44 1076.65 522.44 1068.25 514.04 1059.85 522.44"/>
              <polygon class="cls-1" points="1096.58 522.44 1100.15 522.44 1104.98 517.61 1109.81 522.44 1113.38 522.44 1104.98 514.04 1096.58 522.44"/>
              <polygon class="cls-1" points="1132.25 522.44 1135.82 522.44 1140.65 517.61 1145.48 522.44 1149.05 522.44 1140.65 514.04 1132.25 522.44"/>
              <polygon class="cls-1" points="1168.98 522.44 1172.55 522.44 1177.38 517.61 1182.21 522.44 1185.78 522.44 1177.38 514.04 1168.98 522.44"/>
              <polygon class="cls-1" points="1204.65 522.44 1208.22 522.44 1213.05 517.61 1217.88 522.44 1221.45 522.44 1213.05 514.04 1204.65 522.44"/>
              <polygon class="cls-1" points="1241.38 522.44 1244.95 522.44 1249.78 517.61 1254.61 522.44 1258.18 522.44 1249.78 514.04 1241.38 522.44"/>
            </g>
            <g>
              <polygon class="cls-1" points="807.24 485.87 810.81 485.87 815.65 490.7 820.48 485.87 824.05 485.87 815.65 494.27 807.24 485.87"/>
              <polygon class="cls-1" points="770.52 485.87 774.08 485.87 778.92 490.7 783.75 485.87 787.32 485.87 778.92 494.27 770.52 485.87"/>
              <polygon class="cls-1" points="842.92 485.87 846.48 485.87 851.32 490.7 856.15 485.87 859.72 485.87 851.32 494.27 842.92 485.87"/>
              <polygon class="cls-1" points="879.64 485.87 883.21 485.87 888.05 490.7 892.88 485.87 896.45 485.87 888.05 494.27 879.64 485.87"/>
              <polygon class="cls-1" points="915.31 485.87 918.88 485.87 923.72 490.7 928.55 485.87 932.12 485.87 923.72 494.27 915.31 485.87"/>
              <polyline class="cls-1" points="965.02 485.87 968.58 485.87 960.18 494.27 951.78 485.87 955.35 485.87 960.18 490.7"/>
              <polygon class="cls-1" points="987.45 485.87 991.02 485.87 995.85 490.7 1000.69 485.87 1004.25 485.87 995.85 494.27 987.45 485.87"/>
              <polygon class="cls-1" points="1024.18 485.87 1027.75 485.87 1032.58 490.7 1037.41 485.87 1040.98 485.87 1032.58 494.27 1024.18 485.87"/>
              <polygon class="cls-1" points="1059.85 485.87 1063.42 485.87 1068.25 490.7 1073.09 485.87 1076.65 485.87 1068.25 494.27 1059.85 485.87"/>
              <polygon class="cls-1" points="1096.58 485.87 1100.15 485.87 1104.98 490.7 1109.81 485.87 1113.38 485.87 1104.98 494.27 1096.58 485.87"/>
              <polygon class="cls-1" points="1132.25 485.87 1135.82 485.87 1140.65 490.7 1145.48 485.87 1149.05 485.87 1140.65 494.27 1132.25 485.87"/>
              <polygon class="cls-1" points="1168.98 485.87 1172.55 485.87 1177.38 490.7 1182.21 485.87 1185.78 485.87 1177.38 494.27 1168.98 485.87"/>
              <polygon class="cls-1" points="1204.65 485.87 1208.22 485.87 1213.05 490.7 1217.88 485.87 1221.45 485.87 1213.05 494.27 1204.65 485.87"/>
              <polygon class="cls-1" points="1241.38 485.87 1244.95 485.87 1249.78 490.7 1254.61 485.87 1258.18 485.87 1249.78 494.27 1241.38 485.87"/>
            </g>
            <g>
              <path class="cls-1" d="M778.92,504.12l-18.1,18.1-18.1-18.1,18.1-18.1,18.1,18.1ZM760.82,518.65l14.53-14.53-14.53-14.53-14.53,14.53,14.53,14.53Z"/>
              <path class="cls-1" d="M770.52,504.12l-9.7,9.7-9.7-9.7,9.7-9.7,9.7,9.7ZM760.82,510.24l6.13-6.13-6.13-6.13-6.13,6.13,6.13,6.13Z"/>
            </g>
          </g>
        </g>
        <g>
          <g>
            <path class="cls-1" d="M1756.69,504.12l-18.1,18.1-18.1-18.1,18.1-18.1,18.1,18.1ZM1738.59,518.65l14.53-14.53-14.53-14.53-14.53,14.53,14.53,14.53Z"/>
            <path class="cls-1" d="M1748.29,504.12l-9.7,9.7-9.7-9.7,9.7-9.7,9.7,9.7ZM1738.59,510.24l6.13-6.13-6.13-6.13-6.13,6.13,6.13,6.13Z"/>
          </g>
          <g>
            <path class="cls-1" d="M1720.49,504.12l-18.1,18.1-18.1-18.1,18.1-18.1,18.1,18.1ZM1702.39,518.65l14.53-14.53-14.53-14.53-14.53,14.53,14.53,14.53Z"/>
            <path class="cls-1" d="M1712.09,504.12l-9.7,9.7-9.7-9.7,9.7-9.7,9.7,9.7ZM1702.39,510.24l6.13-6.13-6.13-6.13-6.13,6.13,6.13,6.13Z"/>
          </g>
          <g>
            <path class="cls-1" d="M1684.29,504.12l-18.1,18.1-18.1-18.1,18.1-18.1,18.1,18.1ZM1666.19,518.65l14.53-14.53-14.53-14.53-14.53,14.53,14.53,14.53Z"/>
            <path class="cls-1" d="M1675.89,504.12l-9.7,9.7-9.7-9.7,9.7-9.7,9.7,9.7ZM1666.19,510.24l6.13-6.13-6.13-6.13-6.13,6.13,6.13,6.13Z"/>
          </g>
          <g>
            <path class="cls-1" d="M1648.09,504.12l-18.1,18.1-18.1-18.1,18.1-18.1,18.1,18.1ZM1629.99,518.65l14.53-14.53-14.53-14.53-14.53,14.53,14.53,14.53Z"/>
            <path class="cls-1" d="M1639.69,504.12l-9.7,9.7-9.7-9.7,9.7-9.7,9.7,9.7ZM1629.99,510.24l6.13-6.13-6.13-6.13-6.13,6.13,6.13,6.13Z"/>
          </g>
          <g>
            <path class="cls-1" d="M1611.89,504.12l-18.1,18.1-18.1-18.1,18.1-18.1,18.1,18.1ZM1593.79,518.65l14.53-14.53-14.53-14.53-14.53,14.53,14.53,14.53Z"/>
            <path class="cls-1" d="M1603.49,504.12l-9.7,9.7-9.7-9.7,9.7-9.7,9.7,9.7ZM1593.79,510.24l6.13-6.13-6.13-6.13-6.13,6.13,6.13,6.13Z"/>
          </g>
          <g>
            <path class="cls-1" d="M1575.69,504.12l-18.1,18.1-18.1-18.1,18.1-18.1,18.1,18.1ZM1557.59,518.65l14.53-14.53-14.53-14.53-14.53,14.53,14.53,14.53Z"/>
            <path class="cls-1" d="M1567.29,504.12l-9.7,9.7-9.7-9.7,9.7-9.7,9.7,9.7ZM1557.59,510.24l6.13-6.13-6.13-6.13-6.13,6.13,6.13,6.13Z"/>
          </g>
          <g>
            <path class="cls-1" d="M1539.49,504.12l-18.1,18.1-18.1-18.1,18.1-18.1,18.1,18.1ZM1521.39,518.65l14.53-14.53-14.53-14.53-14.53,14.53,14.53,14.53Z"/>
            <path class="cls-1" d="M1531.09,504.12l-9.7,9.7-9.7-9.7,9.7-9.7,9.7,9.7ZM1521.39,510.24l6.13-6.13-6.13-6.13-6.13,6.13,6.13,6.13Z"/>
          </g>
          <g>
            <path class="cls-1" d="M1503.29,504.12l-18.1,18.1-18.1-18.1,18.1-18.1,18.1,18.1ZM1485.19,518.65l14.53-14.53-14.53-14.53-14.53,14.53,14.53,14.53Z"/>
            <path class="cls-1" d="M1494.89,504.12l-9.7,9.7-9.7-9.7,9.7-9.7,9.7,9.7ZM1485.19,510.24l6.13-6.13-6.13-6.13-6.13,6.13,6.13,6.13Z"/>
          </g>
          <g>
            <path class="cls-1" d="M1467.09,504.12l-18.1,18.1-18.1-18.1,18.1-18.1,18.1,18.1ZM1448.99,518.65l14.53-14.53-14.53-14.53-14.53,14.53,14.53,14.53Z"/>
            <path class="cls-1" d="M1458.69,504.12l-9.7,9.7-9.7-9.7,9.7-9.7,9.7,9.7ZM1448.99,510.24l6.13-6.13-6.13-6.13-6.13,6.13,6.13,6.13Z"/>
          </g>
          <g>
            <path class="cls-1" d="M1430.89,504.12l-18.1,18.1-18.1-18.1,18.1-18.1,18.1,18.1ZM1412.79,518.65l14.53-14.53-14.53-14.53-14.53,14.53,14.53,14.53Z"/>
            <path class="cls-1" d="M1422.49,504.12l-9.7,9.7-9.7-9.7,9.7-9.7,9.7,9.7ZM1412.79,510.24l6.13-6.13-6.13-6.13-6.13,6.13,6.13,6.13Z"/>
          </g>
          <g>
            <path class="cls-1" d="M1394.69,504.12l-18.1,18.1-18.1-18.1,18.1-18.1,18.1,18.1ZM1376.59,518.65l14.53-14.53-14.53-14.53-14.53,14.53,14.53,14.53Z"/>
            <path class="cls-1" d="M1386.29,504.12l-9.7,9.7-9.7-9.7,9.7-9.7,9.7,9.7ZM1376.59,510.24l6.13-6.13-6.13-6.13-6.13,6.13,6.13,6.13Z"/>
          </g>
          <g>
            <path class="cls-1" d="M1358.49,504.12l-18.1,18.1-18.1-18.1,18.1-18.1,18.1,18.1ZM1340.39,518.65l14.53-14.53-14.53-14.53-14.53,14.53,14.53,14.53Z"/>
            <path class="cls-1" d="M1350.09,504.12l-9.7,9.7-9.7-9.7,9.7-9.7,9.7,9.7ZM1340.39,510.24l6.13-6.13-6.13-6.13-6.13,6.13,6.13,6.13Z"/>
          </g>
          <g>
            <path class="cls-1" d="M1322.29,504.12l-18.1,18.1-18.1-18.1,18.1-18.1,18.1,18.1ZM1304.19,518.65l14.53-14.53-14.53-14.53-14.53,14.53,14.53,14.53Z"/>
            <path class="cls-1" d="M1313.89,504.12l-9.7,9.7-9.7-9.7,9.7-9.7,9.7,9.7ZM1304.19,510.24l6.13-6.13-6.13-6.13-6.13,6.13,6.13,6.13Z"/>
          </g>
          <g>
            <polygon class="cls-1" points="1314.42 522.44 1317.99 522.44 1322.82 517.61 1327.66 522.44 1331.22 522.44 1322.82 514.04 1314.42 522.44"/>
            <polygon class="cls-1" points="1277.69 522.44 1281.26 522.44 1286.09 517.61 1290.93 522.44 1294.5 522.44 1286.09 514.04 1277.69 522.44"/>
            <polygon class="cls-1" points="1241.49 522.44 1245.06 522.44 1249.89 517.61 1254.73 522.44 1258.3 522.44 1249.89 514.04 1241.49 522.44"/>
            <polygon class="cls-1" points="1350.09 522.44 1353.66 522.44 1358.49 517.61 1363.33 522.44 1366.89 522.44 1358.49 514.04 1350.09 522.44"/>
            <polyline class="cls-1" points="1395.22 517.61 1400.06 522.44 1403.62 522.44 1395.22 514.04 1386.82 522.44 1390.39 522.44"/>
            <polygon class="cls-1" points="1422.49 522.44 1426.06 522.44 1430.89 517.61 1435.73 522.44 1439.29 522.44 1430.89 514.04 1422.49 522.44"/>
            <polygon class="cls-1" points="1458.95 522.44 1462.52 522.44 1467.36 517.61 1472.19 522.44 1475.76 522.44 1467.36 514.04 1458.95 522.44"/>
            <polygon class="cls-1" points="1494.62 522.44 1498.19 522.44 1503.03 517.61 1507.86 522.44 1511.43 522.44 1503.03 514.04 1494.62 522.44"/>
            <polygon class="cls-1" points="1531.35 522.44 1534.92 522.44 1539.76 517.61 1544.59 522.44 1548.16 522.44 1539.76 514.04 1531.35 522.44"/>
            <polygon class="cls-1" points="1567.02 522.44 1570.59 522.44 1575.43 517.61 1580.26 522.44 1583.83 522.44 1575.43 514.04 1567.02 522.44"/>
            <polygon class="cls-1" points="1603.75 522.44 1607.32 522.44 1612.16 517.61 1616.99 522.44 1620.56 522.44 1612.16 514.04 1603.75 522.44"/>
            <polygon class="cls-1" points="1639.42 522.44 1642.99 522.44 1647.83 517.61 1652.66 522.44 1656.23 522.44 1647.83 514.04 1639.42 522.44"/>
            <polygon class="cls-1" points="1676.15 522.44 1679.72 522.44 1684.56 517.61 1689.39 522.44 1692.96 522.44 1684.56 514.04 1676.15 522.44"/>
            <polygon class="cls-1" points="1711.82 522.44 1715.39 522.44 1720.23 517.61 1725.06 522.44 1728.63 522.44 1720.23 514.04 1711.82 522.44"/>
          </g>
          <g>
            <polygon class="cls-1" points="1314.42 485.87 1317.99 485.87 1322.82 490.7 1327.66 485.87 1331.22 485.87 1322.82 494.27 1314.42 485.87"/>
            <polygon class="cls-1" points="1277.69 485.87 1281.26 485.87 1286.09 490.7 1290.93 485.87 1294.5 485.87 1286.09 494.27 1277.69 485.87"/>
            <polygon class="cls-1" points="1241.49 485.87 1245.06 485.87 1249.89 490.7 1254.73 485.87 1258.3 485.87 1249.89 494.27 1241.49 485.87"/>
            <polygon class="cls-1" points="1350.09 485.87 1353.66 485.87 1358.49 490.7 1363.33 485.87 1366.89 485.87 1358.49 494.27 1350.09 485.87"/>
            <polygon class="cls-1" points="1386.82 485.87 1390.39 485.87 1395.22 490.7 1400.06 485.87 1403.62 485.87 1395.22 494.27 1386.82 485.87"/>
            <polygon class="cls-1" points="1422.49 485.87 1426.06 485.87 1430.89 490.7 1435.73 485.87 1439.29 485.87 1430.89 494.27 1422.49 485.87"/>
            <polyline class="cls-1" points="1472.19 485.87 1475.76 485.87 1467.36 494.27 1458.95 485.87 1462.52 485.87 1467.36 490.7"/>
            <polygon class="cls-1" points="1494.62 485.87 1498.19 485.87 1503.03 490.7 1507.86 485.87 1511.43 485.87 1503.03 494.27 1494.62 485.87"/>
            <polygon class="cls-1" points="1531.35 485.87 1534.92 485.87 1539.76 490.7 1544.59 485.87 1548.16 485.87 1539.76 494.27 1531.35 485.87"/>
            <polygon class="cls-1" points="1567.02 485.87 1570.59 485.87 1575.43 490.7 1580.26 485.87 1583.83 485.87 1575.43 494.27 1567.02 485.87"/>
            <polygon class="cls-1" points="1603.75 485.87 1607.32 485.87 1612.16 490.7 1616.99 485.87 1620.56 485.87 1612.16 494.27 1603.75 485.87"/>
            <polygon class="cls-1" points="1639.42 485.87 1642.99 485.87 1647.83 490.7 1652.66 485.87 1656.23 485.87 1647.83 494.27 1639.42 485.87"/>
            <polygon class="cls-1" points="1676.15 485.87 1679.72 485.87 1684.56 490.7 1689.39 485.87 1692.96 485.87 1684.56 494.27 1676.15 485.87"/>
            <polygon class="cls-1" points="1711.82 485.87 1715.39 485.87 1720.23 490.7 1725.06 485.87 1728.63 485.87 1720.23 494.27 1711.82 485.87"/>
          </g>
          <g>
            <path class="cls-1" d="M1286.09,504.12l-18.1,18.1-18.1-18.1,18.1-18.1,18.1,18.1ZM1267.99,518.65l14.53-14.53-14.53-14.53-14.53,14.53,14.53,14.53Z"/>
            <path class="cls-1" d="M1277.69,504.12l-9.7,9.7-9.7-9.7,9.7-9.7,9.7,9.7ZM1267.99,510.24l6.13-6.13-6.13-6.13-6.13,6.13,6.13,6.13Z"/>
          </g>
        </g>
      </g>
    </g>
  </g>
</svg>