<?xml version="1.0" encoding="UTF-8"?>
<svg id="Capa_1" data-name="Capa 1" xmlns="http://www.w3.org/2000/svg" viewBox="0 0 1920 70">
  <defs>
    <style>
      .cls-1 {
        fill: #fff;
      }

      .cls-2 {
        fill: #603813;
      }

      .cls-3 {
        fill: #fcd300;
      }
    </style>
  </defs>
  <g>
    <g>
      <polygon class="cls-2" points="48.02 35.15 33.38 25.42 18.74 35.15 33.38 44.89 48.02 35.15"/>
      <path class="cls-2" d="M10.22,35.15h0s4.26,2.83,4.26,2.83l18.9,12.57,23.16-15.4-23.16-15.4-18.9,12.57-4.26,2.83h0ZM33.38,25.42l14.64,9.73-14.64,9.73-14.64-9.73,14.64-9.73Z"/>
      <g>
        <polyline class="cls-2" points=".19 28.48 4.45 31.32 8.71 28.48 31.62 13.26 23.09 13.26 4.45 25.65"/>
        <polyline class="cls-2" points="4.45 44.66 23.09 57.05 31.62 57.05 8.71 41.83 4.45 38.99 .19 41.83"/>
      </g>
    </g>
    <path class="cls-2" d="M25.25,35.15h0l1.5,1,6.64,4.41,8.14-5.41-8.14-5.41-6.64,4.41-1.5,1h0Z"/>
    <g>
      <polygon class="cls-1" points="18.74 35.15 33.38 44.89 48.02 35.15 33.38 25.42 18.74 35.15"/>
      <polygon class="cls-2" points="105.89 35.15 91.25 25.42 76.61 35.15 91.25 44.89 105.89 35.15"/>
      <rect class="cls-2" x="56.55" y="35.15" width="0" height="0" transform="translate(-9.74 28.82) rotate(-26.41)"/>
      <path class="cls-2" d="M56.55,35.15h0l-4.26-2.83-18.9-12.57-23.16,15.4,23.16,15.4,18.9-12.57,4.26-2.83h0ZM33.38,44.89l-14.64-9.73,14.64-9.73,14.64,9.73-14.64,9.73Z"/>
      <rect class="cls-2" x="68.09" y="35.15" width="0" height="0" transform="translate(-8.53 33.96) rotate(-26.41)"/>
      <path class="cls-2" d="M68.09,35.15h0s4.26,2.83,4.26,2.83l18.9,12.57,23.16-15.4-23.16-15.4-18.9,12.57-4.26,2.83h0ZM91.25,25.42l14.64,9.73-14.64,9.73-14.64-9.73,14.64-9.73Z"/>
      <g>
        <polygon class="cls-2" points="62.32 31.32 66.58 28.48 89.49 13.26 80.96 13.26 62.32 25.65 43.67 13.26 35.15 13.26 58.06 28.48 62.32 31.32"/>
        <polygon class="cls-2" points="62.32 38.99 58.06 41.83 35.15 57.05 43.67 57.05 62.32 44.66 80.96 57.05 89.49 57.05 66.58 41.83 62.32 38.99"/>
      </g>
    </g>
    <path class="cls-3" d="M25.25,35.15h0l1.5,1,6.64,4.41,8.14-5.41-8.14-5.41-6.64,4.41-1.5,1h0Z"/>
    <path class="cls-2" d="M83.12,35.15h0l1.5,1,6.64,4.41,8.14-5.41-8.14-5.41-6.64,4.41-1.5,1h0Z"/>
    <g>
      <polygon class="cls-1" points="76.61 35.15 91.25 44.89 105.89 35.15 91.25 25.42 76.61 35.15"/>
      <polygon class="cls-2" points="163.76 35.15 149.13 25.42 134.49 35.15 149.13 44.89 163.76 35.15"/>
      <rect class="cls-2" x="114.42" y="35.15" width="0" height="0" transform="translate(-3.69 54.56) rotate(-26.41)"/>
      <path class="cls-2" d="M114.42,35.15h0l-4.26-2.83-18.9-12.57-23.16,15.4,23.16,15.4,18.9-12.57,4.26-2.83h0ZM91.25,44.89l-14.64-9.73,14.64-9.73,14.64,9.73-14.64,9.73Z"/>
      <rect class="cls-2" x="125.96" y="35.15" width="0" height="0" transform="translate(-2.49 59.7) rotate(-26.41)"/>
      <path class="cls-2" d="M125.96,35.15h0s4.26,2.83,4.26,2.83l18.9,12.57,23.16-15.4-23.16-15.4-18.9,12.57-4.26,2.83h0ZM149.13,25.42l14.64,9.73-14.64,9.73-14.64-9.73,14.64-9.73Z"/>
      <g>
        <polygon class="cls-2" points="120.19 31.32 124.45 28.48 147.36 13.26 138.83 13.26 120.19 25.65 101.54 13.26 93.02 13.26 115.93 28.48 120.19 31.32"/>
        <polygon class="cls-2" points="120.19 38.99 115.93 41.83 93.02 57.05 101.54 57.05 120.19 44.66 138.84 57.05 147.36 57.05 124.45 41.83 120.19 38.99"/>
      </g>
    </g>
    <path class="cls-3" d="M83.12,35.15h0l1.5,1,6.64,4.41,8.14-5.41-8.14-5.41-6.64,4.41-1.5,1h0Z"/>
    <path class="cls-2" d="M140.99,35.15h0l1.5,1,6.64,4.41,8.14-5.41-8.14-5.41-6.64,4.41-1.5,1h0Z"/>
    <g>
      <polygon class="cls-1" points="134.49 35.15 149.13 44.89 163.77 35.15 149.13 25.42 134.49 35.15"/>
      <polygon class="cls-2" points="221.64 35.15 207 25.42 192.36 35.15 207 44.89 221.64 35.15"/>
      <rect class="cls-2" x="172.29" y="35.15" width="0" height="0" transform="translate(2.02 79.06) rotate(-25.99)"/>
      <path class="cls-2" d="M172.29,35.15h0l-4.26-2.83-18.9-12.57-23.16,15.4,23.16,15.4,18.9-12.57,4.26-2.83h0ZM149.13,44.89l-14.64-9.73,14.64-9.73,14.64,9.73-14.64,9.73Z"/>
      <rect class="cls-2" x="183.83" y="35.15" width="0" height="0" transform="translate(3.17 84.05) rotate(-25.97)"/>
      <path class="cls-2" d="M183.83,35.15h0s4.26,2.83,4.26,2.83l18.9,12.57,23.16-15.4-23.16-15.4-18.9,12.57-4.26,2.83h0ZM207,25.42l14.64,9.73-14.64,9.73-14.64-9.73,14.64-9.73Z"/>
      <g>
        <polygon class="cls-2" points="178.06 31.32 182.32 28.48 205.23 13.26 196.71 13.26 178.06 25.65 159.42 13.26 150.89 13.26 173.8 28.48 178.06 31.32"/>
        <polygon class="cls-2" points="178.06 38.99 173.8 41.83 150.89 57.05 159.42 57.05 178.06 44.66 196.71 57.05 205.23 57.05 182.32 41.83 178.06 38.99"/>
      </g>
    </g>
    <path class="cls-3" d="M140.99,35.15h0l1.5,1,6.64,4.41,8.14-5.41-8.14-5.41-6.64,4.41-1.5,1h0Z"/>
    <path class="cls-2" d="M198.86,35.15h0l1.5,1,6.64,4.41,8.14-5.41-8.14-5.41-6.64,4.41-1.5,1h0Z"/>
    <g>
      <polygon class="cls-1" points="192.36 35.15 207 44.89 221.64 35.15 207 25.42 192.36 35.15"/>
      <polygon class="cls-2" points="279.51 35.15 264.87 25.42 250.23 35.15 264.87 44.89 279.51 35.15"/>
      <rect class="cls-2" x="230.16" y="35.15" width="0" height="0" transform="translate(8.39 106.05) rotate(-26.41)"/>
      <path class="cls-2" d="M230.16,35.15h0l-4.26-2.83-18.9-12.57-23.16,15.4,23.16,15.4,18.9-12.57,4.26-2.83h0ZM207,44.89l-14.64-9.73,14.64-9.73,14.64,9.73-14.64,9.73Z"/>
      <rect class="cls-2" x="241.7" y="35.15" width="0" height="0" transform="translate(9.59 111.18) rotate(-26.41)"/>
      <path class="cls-2" d="M241.7,35.15h0s4.26,2.83,4.26,2.83l18.9,12.57,23.16-15.4-23.16-15.4-18.9,12.57-4.26,2.83h0ZM264.87,25.42l14.64,9.73-14.64,9.73-14.64-9.73,14.64-9.73Z"/>
      <g>
        <polygon class="cls-2" points="235.93 31.32 240.19 28.48 263.1 13.26 254.58 13.26 235.93 25.65 217.29 13.26 208.76 13.26 231.67 28.48 235.93 31.32"/>
        <polygon class="cls-2" points="235.93 38.99 231.67 41.83 208.76 57.05 217.29 57.05 235.93 44.66 254.58 57.05 263.1 57.05 240.19 41.83 235.93 38.99"/>
      </g>
    </g>
    <path class="cls-3" d="M198.86,35.15h0l1.5,1,6.64,4.41,8.14-5.41-8.14-5.41-6.64,4.41-1.5,1h0Z"/>
    <path class="cls-2" d="M256.73,35.15h0l1.5,1,6.64,4.41,8.14-5.41-8.14-5.41-6.64,4.41-1.5,1h0Z"/>
    <g>
      <polygon class="cls-1" points="250.23 35.15 264.87 44.89 279.51 35.15 264.87 25.42 250.23 35.15"/>
      <polygon class="cls-2" points="337.38 35.15 322.74 25.42 308.1 35.15 322.74 44.89 337.38 35.15"/>
      <rect class="cls-2" x="288.03" y="35.15" width="0" height="0" transform="translate(13.37 128.74) rotate(-25.77)"/>
      <path class="cls-2" d="M288.03,35.15h0l-4.26-2.83-18.9-12.57-23.16,15.4,23.16,15.4,18.9-12.57,4.26-2.83h0ZM264.87,44.89l-14.64-9.73,14.64-9.73,14.64,9.73-14.64,9.73Z"/>
      <rect class="cls-2" x="299.57" y="35.15" width="0" height="0" transform="translate(62.26 221.33) rotate(-44.81)"/>
      <path class="cls-2" d="M299.57,35.15h0s4.26,2.83,4.26,2.83l18.9,12.57,23.16-15.4-23.16-15.4-18.9,12.57-4.26,2.83h0ZM322.74,25.42l14.64,9.73-14.64,9.73-14.64-9.73,14.64-9.73Z"/>
      <g>
        <polygon class="cls-2" points="293.8 31.32 298.06 28.48 320.97 13.26 312.45 13.26 293.8 25.65 275.16 13.26 266.63 13.26 289.54 28.48 293.8 31.32"/>
        <polygon class="cls-2" points="293.8 38.99 289.54 41.83 266.63 57.05 275.16 57.05 293.8 44.66 312.45 57.05 320.97 57.05 298.06 41.83 293.8 38.99"/>
      </g>
    </g>
    <path class="cls-3" d="M256.73,35.15h0l1.5,1,6.64,4.41,8.14-5.41-8.14-5.41-6.64,4.41-1.5,1h0Z"/>
    <path class="cls-2" d="M314.6,35.15h0l1.5,1,6.64,4.41,8.14-5.41-8.14-5.41-6.64,4.41-1.5,1h0Z"/>
    <g>
      <polygon class="cls-1" points="308.1 35.15 322.74 44.89 337.38 35.15 322.74 25.42 308.1 35.15"/>
      <polygon class="cls-2" points="395.25 35.15 380.61 25.42 365.97 35.15 380.61 44.89 395.25 35.15"/>
      <rect class="cls-2" x="345.9" y="35.15" width="0" height="0" transform="translate(20.47 157.53) rotate(-26.41)"/>
      <path class="cls-2" d="M345.9,35.15h0l-4.26-2.83-18.9-12.57-23.16,15.4,23.16,15.4,18.9-12.57,4.26-2.83h0ZM322.74,44.89l-14.64-9.73,14.64-9.73,14.64,9.73-14.64,9.73Z"/>
      <rect class="cls-2" x="357.44" y="35.15" width="0" height="0" transform="translate(79.07 262.11) rotate(-44.81)"/>
      <path class="cls-2" d="M357.44,35.15h0s4.26,2.83,4.26,2.83l18.9,12.57,23.16-15.4-23.16-15.4-18.9,12.57-4.26,2.83h0ZM380.61,25.42l14.64,9.73-14.64,9.73-14.64-9.73,14.64-9.73Z"/>
      <g>
        <polygon class="cls-2" points="351.67 31.32 355.93 28.48 378.84 13.26 370.32 13.26 351.67 25.65 333.03 13.26 324.5 13.26 347.41 28.48 351.67 31.32"/>
        <polygon class="cls-2" points="351.67 38.99 347.41 41.83 324.5 57.05 333.03 57.05 351.67 44.66 370.32 57.05 378.84 57.05 355.93 41.83 351.67 38.99"/>
      </g>
    </g>
    <path class="cls-3" d="M314.6,35.15h0l1.5,1,6.64,4.41,8.14-5.41-8.14-5.41-6.64,4.41-1.5,1h0Z"/>
    <path class="cls-2" d="M372.47,35.15h0l1.5,1,6.64,4.41,8.14-5.41-8.14-5.41-6.64,4.41-1.5,1h0Z"/>
    <g>
      <polygon class="cls-1" points="365.97 35.15 380.61 44.89 395.25 35.15 380.61 25.42 365.97 35.15"/>
      <polygon class="cls-2" points="453.12 35.15 438.48 25.42 423.84 35.15 438.48 44.89 453.12 35.15"/>
      <rect class="cls-2" x="403.77" y="35.15" width="0" height="0" transform="translate(24.35 177.66) rotate(-25.56)"/>
      <path class="cls-2" d="M403.77,35.15h0l-4.26-2.83-18.9-12.57-23.16,15.4,23.16,15.4,18.9-12.57,4.26-2.83h0ZM380.61,44.89l-14.64-9.73,14.64-9.73,14.64,9.73-14.64,9.73Z"/>
      <rect class="cls-2" x="415.31" y="35.15" width="0" height="0" transform="translate(95.88 302.89) rotate(-44.81)"/>
      <path class="cls-2" d="M415.32,35.15h0s4.26,2.83,4.26,2.83l18.9,12.57,23.16-15.4-23.16-15.4-18.9,12.57-4.26,2.83h0ZM438.48,25.42l14.64,9.73-14.64,9.73-14.64-9.73,14.64-9.73Z"/>
      <g>
        <polygon class="cls-2" points="409.54 31.32 413.8 28.48 436.71 13.26 428.19 13.26 409.54 25.65 390.9 13.26 382.37 13.26 405.28 28.48 409.54 31.32"/>
        <polygon class="cls-2" points="409.54 38.99 405.28 41.83 382.37 57.05 390.9 57.05 409.54 44.66 428.19 57.05 436.71 57.05 413.8 41.83 409.54 38.99"/>
      </g>
    </g>
    <path class="cls-3" d="M372.47,35.15h0l1.5,1,6.64,4.41,8.14-5.41-8.14-5.41-6.64,4.41-1.5,1h0Z"/>
    <path class="cls-2" d="M430.34,35.15h0l1.5,1,6.64,4.41,8.14-5.41-8.14-5.41-6.64,4.41-1.5,1h0Z"/>
    <g>
      <polygon class="cls-1" points="423.84 35.15 438.48 44.89 453.12 35.15 438.48 25.42 423.84 35.15"/>
      <polygon class="cls-2" points="510.99 35.15 496.35 25.42 481.71 35.15 496.35 44.89 510.99 35.15"/>
      <rect class="cls-2" x="461.64" y="35.15" width="0" height="0" transform="translate(109.34 335.54) rotate(-44.81)"/>
      <path class="cls-2" d="M461.64,35.15h0l-4.26-2.83-18.9-12.57-23.16,15.4,23.16,15.4,18.9-12.57,4.26-2.83h0ZM438.48,44.89l-14.64-9.73,14.64-9.73,14.64,9.73-14.64,9.73Z"/>
      <rect class="cls-2" x="473.19" y="35.15" width="0" height="0" transform="translate(112.69 343.68) rotate(-44.81)"/>
      <path class="cls-2" d="M473.19,35.15h0s4.26,2.83,4.26,2.83l18.9,12.57,23.16-15.4-23.16-15.4-18.9,12.57-4.26,2.83h0ZM496.35,25.42l14.64,9.73-14.64,9.73-14.64-9.73,14.64-9.73Z"/>
      <g>
        <polygon class="cls-2" points="467.41 31.32 471.67 28.48 494.58 13.26 486.06 13.26 467.41 25.65 448.77 13.26 440.25 13.26 463.15 28.48 467.41 31.32"/>
        <polygon class="cls-2" points="467.41 38.99 463.15 41.83 440.25 57.05 448.77 57.05 467.41 44.66 486.06 57.05 494.58 57.05 471.67 41.83 467.41 38.99"/>
      </g>
    </g>
    <path class="cls-3" d="M430.34,35.15h0l1.5,1,6.64,4.41,8.14-5.41-8.14-5.41-6.64,4.41-1.5,1h0Z"/>
    <path class="cls-2" d="M488.21,35.15h0l1.5,1,6.64,4.41,8.14-5.41-8.14-5.41-6.64,4.41-1.5,1h0Z"/>
    <g>
      <polygon class="cls-1" points="481.71 35.15 496.35 44.89 510.99 35.15 496.35 25.42 481.71 35.15"/>
      <polygon class="cls-2" points="568.86 35.15 554.22 25.42 539.58 35.15 554.22 44.89 568.86 35.15"/>
      <rect class="cls-2" x="519.51" y="35.15" width="0" height="0" transform="translate(126.15 376.32) rotate(-44.81)"/>
      <path class="cls-2" d="M519.51,35.15h0l-4.26-2.83-18.9-12.57-23.16,15.4,23.16,15.4,18.9-12.57,4.26-2.83h0ZM496.35,44.89l-14.64-9.73,14.64-9.73,14.64,9.73-14.64,9.73Z"/>
      <rect class="cls-2" x="531.06" y="35.15" width="0" height="0" transform="translate(39.79 239.89) rotate(-26.41)"/>
      <path class="cls-2" d="M531.06,35.15h0s4.26,2.83,4.26,2.83l18.9,12.57,23.16-15.4-23.16-15.4-18.9,12.57-4.26,2.83h0ZM554.22,25.42l14.64,9.73-14.64,9.73-14.64-9.73,14.64-9.73Z"/>
      <g>
        <polygon class="cls-2" points="525.28 31.32 529.54 28.48 552.45 13.26 543.93 13.26 525.28 25.65 506.64 13.26 498.12 13.26 521.02 28.48 525.28 31.32"/>
        <polygon class="cls-2" points="525.28 38.99 521.02 41.83 498.12 57.05 506.64 57.05 525.28 44.66 543.93 57.05 552.45 57.05 529.54 41.83 525.28 38.99"/>
      </g>
    </g>
    <path class="cls-3" d="M488.21,35.15h0l1.5,1,6.64,4.41,8.14-5.41-8.14-5.41-6.64,4.41-1.5,1h0Z"/>
    <path class="cls-2" d="M546.08,35.15h0l1.5,1,6.64,4.41,8.14-5.41-8.14-5.41-6.64,4.41-1.5,1h0Z"/>
    <g>
      <polygon class="cls-1" points="539.58 35.15 554.22 44.89 568.86 35.15 554.22 25.42 539.58 35.15"/>
      <polygon class="cls-2" points="626.73 35.15 612.09 25.42 597.45 35.15 612.09 44.89 626.73 35.15"/>
      <rect class="cls-2" x="577.38" y="35.15" width="0" height="0" transform="translate(142.96 417.11) rotate(-44.81)"/>
      <path class="cls-2" d="M577.38,35.15h0l-4.26-2.83-18.9-12.57-23.16,15.4,23.16,15.4,18.9-12.57,4.26-2.83h0ZM554.22,44.89l-14.64-9.73,14.64-9.73,14.64,9.73-14.64,9.73Z"/>
      <rect class="cls-2" x="588.93" y="35.15" width="0" height="0" transform="translate(45.83 265.63) rotate(-26.41)"/>
      <path class="cls-2" d="M588.93,35.15h0s4.26,2.83,4.26,2.83l18.9,12.57,23.16-15.4-23.16-15.4-18.9,12.57-4.26,2.83h0ZM612.09,25.42l14.64,9.73-14.64,9.73-14.64-9.73,14.64-9.73Z"/>
      <g>
        <polygon class="cls-2" points="583.15 31.32 587.42 28.48 610.32 13.26 601.8 13.26 583.15 25.65 564.51 13.26 555.99 13.26 578.89 28.48 583.15 31.32"/>
        <polygon class="cls-2" points="583.15 38.99 578.89 41.83 555.99 57.05 564.51 57.05 583.15 44.66 601.8 57.05 610.32 57.05 587.42 41.83 583.15 38.99"/>
      </g>
    </g>
    <path class="cls-3" d="M546.08,35.15h0l1.5,1,6.64,4.41,8.14-5.41-8.14-5.41-6.64,4.41-1.5,1h0Z"/>
    <path class="cls-2" d="M603.95,35.15h0l1.5,1,6.64,4.41,8.14-5.41-8.14-5.41-6.64,4.41-1.5,1h0Z"/>
    <g>
      <polygon class="cls-1" points="597.45 35.15 612.09 44.89 626.73 35.15 612.09 25.42 597.45 35.15"/>
      <polygon class="cls-2" points="684.6 35.15 669.96 25.42 655.32 35.15 669.96 44.89 684.6 35.15"/>
      <rect class="cls-2" x="635.25" y="35.15" width="0" height="0" transform="translate(159.78 457.89) rotate(-44.81)"/>
      <path class="cls-2" d="M635.25,35.15h0l-4.26-2.83-18.9-12.57-23.16,15.4,23.16,15.4,18.9-12.57,4.26-2.83h0ZM612.09,44.89l-14.64-9.73,14.64-9.73,14.64,9.73-14.64,9.73Z"/>
      <rect class="cls-2" x="646.8" y="35.15" width="0" height="0" transform="translate(51.87 291.37) rotate(-26.41)"/>
      <path class="cls-2" d="M646.8,35.15h0s4.26,2.83,4.26,2.83l18.9,12.57,23.16-15.4-23.16-15.4-18.9,12.57-4.26,2.83h0ZM669.96,25.42l14.64,9.73-14.64,9.73-14.64-9.73,14.64-9.73Z"/>
      <g>
        <polygon class="cls-2" points="641.02 31.32 645.29 28.48 668.19 13.26 659.67 13.26 641.02 25.65 622.38 13.26 613.86 13.26 636.76 28.48 641.02 31.32"/>
        <polygon class="cls-2" points="641.02 38.99 636.76 41.83 613.86 57.05 622.38 57.05 641.02 44.66 659.67 57.05 668.19 57.05 645.29 41.83 641.02 38.99"/>
      </g>
    </g>
    <path class="cls-3" d="M603.95,35.15h0l1.5,1,6.64,4.41,8.14-5.41-8.14-5.41-6.64,4.41-1.5,1h0Z"/>
    <path class="cls-2" d="M661.82,35.15h0l1.5,1,6.64,4.41,8.14-5.41-8.14-5.41-6.64,4.41-1.5,1h0Z"/>
    <g>
      <polygon class="cls-1" points="655.32 35.15 669.96 44.89 684.6 35.15 669.96 25.42 655.32 35.15"/>
      <polygon class="cls-2" points="742.47 35.15 727.83 25.42 713.19 35.15 727.83 44.89 742.47 35.15"/>
      <rect class="cls-2" x="693.12" y="35.15" width="0" height="0" transform="translate(56.71 311.97) rotate(-26.41)"/>
      <path class="cls-2" d="M693.12,35.15h0l-4.26-2.83-18.9-12.57-23.16,15.4,23.16,15.4,18.9-12.57,4.26-2.83h0ZM669.96,44.89l-14.64-9.73,14.64-9.73,14.64,9.73-14.64,9.73Z"/>
      <rect class="cls-2" x="704.67" y="35.15" width="0" height="0" transform="translate(57.91 317.11) rotate(-26.41)"/>
      <path class="cls-2" d="M704.67,35.15h0s4.26,2.83,4.26,2.83l18.9,12.57,23.16-15.4-23.16-15.4-18.9,12.57-4.26,2.83h0ZM727.83,25.42l14.64,9.73-14.64,9.73-14.64-9.73,14.64-9.73Z"/>
      <g>
        <polygon class="cls-2" points="698.9 31.32 703.16 28.48 726.06 13.26 717.54 13.26 698.9 25.65 680.25 13.26 671.73 13.26 694.63 28.48 698.9 31.32"/>
        <polygon class="cls-2" points="698.9 38.99 694.63 41.83 671.73 57.05 680.25 57.05 698.9 44.66 717.54 57.05 726.06 57.05 703.16 41.83 698.9 38.99"/>
      </g>
    </g>
    <path class="cls-3" d="M661.82,35.15h0l1.5,1,6.64,4.41,8.14-5.41-8.14-5.41-6.64,4.41-1.5,1h0Z"/>
    <g>
      <polygon class="cls-1" points="713.19 35.15 727.83 44.89 742.47 35.15 727.83 25.42 713.19 35.15"/>
      <polygon class="cls-2" points="800.34 35.15 785.7 25.42 771.06 35.15 785.7 44.89 800.34 35.15"/>
      <rect class="cls-2" x="750.99" y="35.15" width="0" height="0" transform="translate(193.4 539.45) rotate(-44.81)"/>
      <path class="cls-2" d="M750.99,35.15h0l-4.26-2.83-18.9-12.57-23.16,15.4,23.16,15.4,18.9-12.57,4.26-2.83h0ZM727.83,44.89l-14.64-9.73,14.64-9.73,14.64,9.73-14.64,9.73Z"/>
      <rect class="cls-2" x="762.54" y="35.15" width="0" height="0" transform="translate(63.95 342.85) rotate(-26.41)"/>
      <path class="cls-2" d="M762.54,35.15h0s4.26,2.83,4.26,2.83l18.9,12.57,23.16-15.4-23.16-15.4-18.9,12.57-4.26,2.83h0ZM785.7,25.42l14.64,9.73-14.64,9.73-14.64-9.73,14.64-9.73Z"/>
      <g>
        <polygon class="cls-2" points="756.77 31.32 761.03 28.48 783.93 13.26 775.41 13.26 756.77 25.65 738.12 13.26 729.6 13.26 752.5 28.48 756.77 31.32"/>
        <polygon class="cls-2" points="756.77 38.99 752.5 41.83 729.6 57.05 738.12 57.05 756.77 44.66 775.41 57.05 783.93 57.05 761.03 41.83 756.77 38.99"/>
      </g>
    </g>
    <path class="cls-3" d="M719.69,35.15h0l1.5,1,6.64,4.41,8.14-5.41-8.14-5.41-6.64,4.41-1.5,1h0Z"/>
    <path class="cls-2" d="M777.56,35.15h0l1.5,1,6.64,4.41,8.14-5.41-8.14-5.41-6.64,4.41-1.5,1h0Z"/>
    <g>
      <polygon class="cls-1" points="771.06 35.15 785.7 44.89 800.34 35.15 785.7 25.42 771.06 35.15"/>
      <polygon class="cls-2" points="858.21 35.15 843.57 25.42 828.93 35.15 843.57 44.89 858.21 35.15"/>
      <rect class="cls-2" x="808.86" y="35.15" width="0" height="0" transform="translate(210.21 580.24) rotate(-44.81)"/>
      <path class="cls-2" d="M808.86,35.15h0l-4.26-2.83-18.9-12.57-23.16,15.4,23.16,15.4,18.9-12.57,4.26-2.83h0ZM785.7,44.89l-14.64-9.73,14.64-9.73,14.64,9.73-14.64,9.73Z"/>
      <rect class="cls-2" x="820.41" y="35.15" width="0" height="0" transform="translate(80.77 391.87) rotate(-28.2)"/>
      <path class="cls-2" d="M820.41,35.15h0s4.26,2.83,4.26,2.83l18.9,12.57,23.16-15.4-23.16-15.4-18.9,12.57-4.26,2.83h0ZM843.57,25.42l14.64,9.73-14.64,9.73-14.64-9.73,14.64-9.73Z"/>
      <g>
        <polygon class="cls-2" points="814.64 31.32 818.9 28.48 841.8 13.26 833.28 13.26 814.64 25.65 795.99 13.26 787.47 13.26 810.37 28.48 814.64 31.32"/>
        <polygon class="cls-2" points="814.64 38.99 810.37 41.83 787.47 57.05 795.99 57.05 814.64 44.66 833.28 57.05 841.8 57.05 818.9 41.83 814.64 38.99"/>
      </g>
    </g>
    <path class="cls-3" d="M777.56,35.15h0l1.5,1,6.64,4.41,8.14-5.41-8.14-5.41-6.64,4.41-1.5,1h0Z"/>
    <g>
      <polygon class="cls-1" points="828.93 35.15 843.57 44.89 858.21 35.15 843.57 25.42 828.93 35.15"/>
      <path class="cls-2" d="M866.73,35.15h0l-4.26-2.83-18.9-12.57-23.16,15.4,23.16,15.4,18.9-12.57,4.26-2.83h0ZM843.57,44.89l-14.64-9.73,14.64-9.73,14.64,9.73-14.64,9.73Z"/>
    </g>
    <path class="cls-3" d="M835.43,35.15h0l1.5,1,6.64,4.41,8.14-5.41-8.14-5.41-6.64,4.41-1.5,1h0Z"/>
  </g>
  <g>
    <g>
      <polygon class="cls-2" points="916.01 34.84 901.37 25.11 886.73 34.84 901.37 44.58 916.01 34.84"/>
      <path class="cls-2" d="M878.21,34.84h0s4.26,2.83,4.26,2.83l18.9,12.57,23.16-15.4-23.16-15.4-18.9,12.57-4.26,2.83h0ZM901.37,25.11l14.64,9.73-14.64,9.73-14.64-9.73,14.64-9.73Z"/>
      <g>
        <polygon class="cls-2" points="872.44 31.01 876.7 28.17 899.61 12.95 891.08 12.95 872.44 25.34 853.79 12.95 845.27 12.95 868.18 28.17 872.44 31.01"/>
        <polygon class="cls-2" points="872.44 38.68 868.18 41.52 845.27 56.74 853.79 56.74 872.44 44.35 891.08 56.74 899.61 56.74 876.7 41.52 872.44 38.68"/>
      </g>
    </g>
    <path class="cls-2" d="M893.24,34.85h0l1.5,1,6.64,4.41,8.14-5.41-8.14-5.41-6.64,4.41-1.5,1h0Z"/>
    <g>
      <polygon class="cls-1" points="886.73 34.84 901.37 44.58 916.01 34.84 901.37 25.11 886.73 34.84"/>
      <polygon class="cls-2" points="973.88 34.84 959.24 25.11 944.6 34.84 959.24 44.58 973.88 34.84"/>
      <rect class="cls-2" x="924.54" y="34.84" width="0" height="0" transform="translate(81 414.88) rotate(-26.41)"/>
      <path class="cls-2" d="M924.54,34.84h0l-4.26-2.83-18.9-12.57-23.16,15.4,23.16,15.4,18.9-12.57,4.26-2.83h0ZM901.37,44.58l-14.64-9.73,14.64-9.73,14.64,9.73-14.64,9.73Z"/>
      <rect class="cls-2" x="936.08" y="34.84" width="0" height="0" transform="translate(82.2 420.01) rotate(-26.41)"/>
      <path class="cls-2" d="M936.08,34.84h0s4.26,2.83,4.26,2.83l18.9,12.57,23.16-15.4-23.16-15.4-18.9,12.57-4.26,2.83h0ZM959.24,25.11l14.64,9.73-14.64,9.73-14.64-9.73,14.64-9.73Z"/>
      <g>
        <polygon class="cls-2" points="930.31 31.01 934.57 28.17 957.48 12.95 948.95 12.95 930.31 25.34 911.66 12.95 903.14 12.95 926.05 28.17 930.31 31.01"/>
        <polygon class="cls-2" points="930.31 38.68 926.05 41.52 903.14 56.74 911.66 56.74 930.31 44.35 948.95 56.74 957.48 56.74 934.57 41.52 930.31 38.68"/>
      </g>
    </g>
    <path class="cls-3" d="M893.24,34.85h0l1.5,1,6.64,4.41,8.14-5.41-8.14-5.41-6.64,4.41-1.5,1h0Z"/>
    <path class="cls-2" d="M951.11,34.85h0l1.5,1,6.64,4.41,8.14-5.41-8.14-5.41-6.64,4.41-1.5,1h0Z"/>
    <g>
      <polygon class="cls-1" points="944.6 34.84 959.24 44.58 973.88 34.84 959.24 25.11 944.6 34.84"/>
      <polygon class="cls-2" points="1031.75 34.84 1017.11 25.11 1002.47 34.84 1017.11 44.58 1031.75 34.84"/>
      <rect class="cls-2" x="982.41" y="34.84" width="0" height="0" transform="translate(87.04 440.62) rotate(-26.41)"/>
      <path class="cls-2" d="M982.41,34.84h0l-4.26-2.83-18.9-12.57-23.16,15.4,23.16,15.4,18.9-12.57,4.26-2.83h0ZM959.24,44.58l-14.64-9.73,14.64-9.73,14.64,9.73-14.64,9.73Z"/>
      <rect class="cls-2" x="993.95" y="34.84" width="0" height="0" transform="translate(88.24 445.75) rotate(-26.41)"/>
      <path class="cls-2" d="M993.95,34.84h0s4.26,2.83,4.26,2.83l18.9,12.57,23.16-15.4-23.16-15.4-18.9,12.57-4.26,2.83h0ZM1017.11,25.11l14.64,9.73-14.64,9.73-14.64-9.73,14.64-9.73Z"/>
      <g>
        <polygon class="cls-2" points="988.18 31.01 992.44 28.17 1015.35 12.95 1006.82 12.95 988.18 25.34 969.53 12.95 961.01 12.95 983.92 28.17 988.18 31.01"/>
        <polygon class="cls-2" points="988.18 38.68 983.92 41.52 961.01 56.74 969.53 56.74 988.18 44.35 1006.82 56.74 1015.35 56.74 992.44 41.52 988.18 38.68"/>
      </g>
    </g>
    <path class="cls-3" d="M951.11,34.85h0l1.5,1,6.64,4.41,8.14-5.41-8.14-5.41-6.64,4.41-1.5,1h0Z"/>
    <path class="cls-2" d="M1008.98,34.85h0l1.5,1,6.64,4.41,8.14-5.41-8.14-5.41-6.64,4.41-1.5,1h0Z"/>
    <g>
      <polygon class="cls-1" points="1002.48 34.84 1017.11 44.58 1031.75 34.84 1017.11 25.11 1002.48 34.84"/>
      <polygon class="cls-2" points="1089.62 34.84 1074.99 25.11 1060.35 34.84 1074.99 44.58 1089.62 34.84"/>
      <rect class="cls-2" x="1040.28" y="34.84" width="0" height="0" transform="translate(89.94 459.4) rotate(-25.99)"/>
      <path class="cls-2" d="M1040.28,34.84h0l-4.26-2.83-18.9-12.57-23.16,15.4,23.16,15.4,18.9-12.57,4.26-2.83h0ZM1017.11,44.58l-14.64-9.73,14.64-9.73,14.64,9.73-14.64,9.73Z"/>
      <rect class="cls-2" x="1051.82" y="34.84" width="0" height="0" transform="translate(90.94 464.09) rotate(-25.97)"/>
      <path class="cls-2" d="M1051.82,34.84h0s4.26,2.83,4.26,2.83l18.9,12.57,23.16-15.4-23.16-15.4-18.9,12.57-4.26,2.83h0ZM1074.99,25.11l14.64,9.73-14.64,9.73-14.64-9.73,14.64-9.73Z"/>
      <g>
        <polygon class="cls-2" points="1046.05 31.01 1050.31 28.17 1073.22 12.95 1064.69 12.95 1046.05 25.34 1027.41 12.95 1018.88 12.95 1041.79 28.17 1046.05 31.01"/>
        <polygon class="cls-2" points="1046.05 38.68 1041.79 41.52 1018.88 56.74 1027.4 56.74 1046.05 44.35 1064.7 56.74 1073.22 56.74 1050.31 41.52 1046.05 38.68"/>
      </g>
    </g>
    <path class="cls-3" d="M1008.98,34.85h0l1.5,1,6.64,4.41,8.14-5.41-8.14-5.41-6.64,4.41-1.5,1h0Z"/>
    <path class="cls-2" d="M1066.85,34.85h0l1.5,1,6.64,4.41,8.14-5.41-8.14-5.41-6.64,4.41-1.5,1h0Z"/>
    <g>
      <polygon class="cls-1" points="1060.35 34.84 1074.99 44.58 1089.63 34.84 1074.99 25.11 1060.35 34.84"/>
      <polygon class="cls-2" points="1147.5 34.84 1132.86 25.11 1118.22 34.84 1132.86 44.58 1147.5 34.84"/>
      <rect class="cls-2" x="1098.15" y="34.84" width="0" height="0" transform="translate(99.12 492.1) rotate(-26.41)"/>
      <path class="cls-2" d="M1098.15,34.84h0l-4.26-2.83-18.9-12.57-23.16,15.4,23.16,15.4,18.9-12.57,4.26-2.83h0ZM1074.99,44.58l-14.64-9.73,14.64-9.73,14.64,9.73-14.64,9.73Z"/>
      <rect class="cls-2" x="1109.69" y="34.84" width="0" height="0" transform="translate(100.32 497.24) rotate(-26.41)"/>
      <path class="cls-2" d="M1109.69,34.84h0s4.26,2.83,4.26,2.83l18.9,12.57,23.16-15.4-23.16-15.4-18.9,12.57-4.26,2.83h0ZM1132.86,25.11l14.64,9.73-14.64,9.73-14.64-9.73,14.64-9.73Z"/>
      <g>
        <polygon class="cls-2" points="1103.92 31.01 1108.18 28.17 1131.09 12.95 1122.57 12.95 1103.92 25.34 1085.28 12.95 1076.75 12.95 1099.66 28.17 1103.92 31.01"/>
        <polygon class="cls-2" points="1103.92 38.68 1099.66 41.52 1076.75 56.74 1085.28 56.74 1103.92 44.35 1122.57 56.74 1131.09 56.74 1108.18 41.52 1103.92 38.68"/>
      </g>
    </g>
    <path class="cls-3" d="M1066.85,34.85h0l1.5,1,6.64,4.41,8.14-5.41-8.14-5.41-6.64,4.41-1.5,1h0Z"/>
    <path class="cls-2" d="M1124.72,34.85h0l1.5,1,6.64,4.41,8.14-5.41-8.14-5.41-6.64,4.41-1.5,1h0Z"/>
    <g>
      <polygon class="cls-1" points="1118.22 34.84 1132.86 44.58 1147.5 34.84 1132.86 25.11 1118.22 34.84"/>
      <polygon class="cls-2" points="1205.37 34.84 1190.73 25.11 1176.09 34.84 1190.73 44.58 1205.37 34.84"/>
      <rect class="cls-2" x="1156.02" y="34.84" width="0" height="0" transform="translate(99.86 506.13) rotate(-25.77)"/>
      <path class="cls-2" d="M1156.02,34.84h0l-4.26-2.83-18.9-12.57-23.16,15.4,23.16,15.4,18.9-12.57,4.26-2.83h0ZM1132.86,44.58l-14.64-9.73,14.64-9.73,14.64,9.73-14.64,9.73Z"/>
      <rect class="cls-2" x="1167.56" y="34.84" width="0" height="0" transform="translate(314.64 832.93) rotate(-44.81)"/>
      <path class="cls-2" d="M1167.56,34.84h0s4.26,2.83,4.26,2.83l18.9,12.57,23.16-15.4-23.16-15.4-18.9,12.57-4.26,2.83h0ZM1190.73,25.11l14.64,9.73-14.64,9.73-14.64-9.73,14.64-9.73Z"/>
      <g>
        <polygon class="cls-2" points="1161.79 31.01 1166.05 28.17 1188.96 12.95 1180.44 12.95 1161.79 25.34 1143.15 12.95 1134.62 12.95 1157.53 28.17 1161.79 31.01"/>
        <polygon class="cls-2" points="1161.79 38.68 1157.53 41.52 1134.62 56.74 1143.15 56.74 1161.79 44.35 1180.44 56.74 1188.96 56.74 1166.05 41.52 1161.79 38.68"/>
      </g>
    </g>
    <path class="cls-3" d="M1124.72,34.85h0l1.5,1,6.64,4.41,8.14-5.41-8.14-5.41-6.64,4.41-1.5,1h0Z"/>
    <path class="cls-2" d="M1182.59,34.85h0l1.5,1,6.64,4.41,8.14-5.41-8.14-5.41-6.64,4.41-1.5,1h0Z"/>
    <g>
      <polygon class="cls-1" points="1176.09 34.84 1190.73 44.58 1205.37 34.84 1190.73 25.11 1176.09 34.84"/>
      <polygon class="cls-2" points="1263.24 34.84 1248.6 25.11 1233.96 34.84 1248.6 44.58 1263.24 34.84"/>
      <rect class="cls-2" x="1213.89" y="34.84" width="0" height="0" transform="translate(111.2 543.58) rotate(-26.41)"/>
      <path class="cls-2" d="M1213.89,34.84h0l-4.26-2.83-18.9-12.57-23.16,15.4,23.16,15.4,18.9-12.57,4.26-2.83h0ZM1190.73,44.58l-14.64-9.73,14.64-9.73,14.64,9.73-14.64,9.73Z"/>
      <rect class="cls-2" x="1225.43" y="34.84" width="0" height="0" transform="translate(331.45 873.71) rotate(-44.81)"/>
      <path class="cls-2" d="M1225.43,34.84h0s4.26,2.83,4.26,2.83l18.9,12.57,23.16-15.4-23.16-15.4-18.9,12.57-4.26,2.83h0ZM1248.6,25.11l14.64,9.73-14.64,9.73-14.64-9.73,14.64-9.73Z"/>
      <g>
        <polygon class="cls-2" points="1219.66 31.01 1223.92 28.17 1246.83 12.95 1238.31 12.95 1219.66 25.34 1201.02 12.95 1192.49 12.95 1215.4 28.17 1219.66 31.01"/>
        <polygon class="cls-2" points="1219.66 38.68 1215.4 41.52 1192.49 56.74 1201.02 56.74 1219.66 44.35 1238.31 56.74 1246.83 56.74 1223.92 41.52 1219.66 38.68"/>
      </g>
    </g>
    <path class="cls-3" d="M1182.59,34.85h0l1.5,1,6.64,4.41,8.14-5.41-8.14-5.41-6.64,4.41-1.5,1h0Z"/>
    <path class="cls-2" d="M1240.46,34.85h0l1.5,1,6.64,4.41,8.14-5.41-8.14-5.41-6.64,4.41-1.5,1h0Z"/>
    <g>
      <polygon class="cls-1" points="1233.96 34.84 1248.6 44.58 1263.24 34.84 1248.6 25.11 1233.96 34.84"/>
      <polygon class="cls-2" points="1321.11 34.84 1306.47 25.11 1291.83 34.84 1306.47 44.58 1321.11 34.84"/>
      <rect class="cls-2" x="1271.76" y="34.84" width="0" height="0" transform="translate(109.44 552.14) rotate(-25.56)"/>
      <path class="cls-2" d="M1271.76,34.84h0l-4.26-2.83-18.9-12.57-23.16,15.4,23.16,15.4,18.9-12.57,4.26-2.83h0ZM1248.6,44.58l-14.64-9.73,14.64-9.73,14.64,9.73-14.64,9.73Z"/>
      <rect class="cls-2" x="1283.3" y="34.84" width="0" height="0" transform="translate(348.26 914.49) rotate(-44.81)"/>
      <path class="cls-2" d="M1283.3,34.84h0s4.26,2.83,4.26,2.83l18.9,12.57,23.16-15.4-23.16-15.4-18.9,12.57-4.26,2.83h0ZM1306.47,25.11l14.64,9.73-14.64,9.73-14.64-9.73,14.64-9.73Z"/>
      <g>
        <polygon class="cls-2" points="1277.53 31.01 1281.79 28.17 1304.7 12.95 1296.18 12.95 1277.53 25.34 1258.89 12.95 1250.36 12.95 1273.27 28.17 1277.53 31.01"/>
        <polygon class="cls-2" points="1277.53 38.68 1273.27 41.52 1250.36 56.74 1258.89 56.74 1277.53 44.35 1296.18 56.74 1304.7 56.74 1281.79 41.52 1277.53 38.68"/>
      </g>
    </g>
    <path class="cls-3" d="M1240.46,34.85h0l1.5,1,6.64,4.41,8.14-5.41-8.14-5.41-6.64,4.41-1.5,1h0Z"/>
    <path class="cls-2" d="M1298.33,34.85h0l1.5,1,6.64,4.41,8.14-5.41-8.14-5.41-6.64,4.41-1.5,1h0Z"/>
    <g>
      <polygon class="cls-1" points="1291.83 34.84 1306.47 44.58 1321.11 34.84 1306.47 25.11 1291.83 34.84"/>
      <polygon class="cls-2" points="1378.98 34.84 1364.34 25.11 1349.7 34.84 1364.34 44.58 1378.98 34.84"/>
      <rect class="cls-2" x="1329.63" y="34.84" width="0" height="0" transform="translate(361.72 947.14) rotate(-44.81)"/>
      <path class="cls-2" d="M1329.63,34.84h0l-4.26-2.83-18.9-12.57-23.16,15.4,23.16,15.4,18.9-12.57,4.26-2.83h0ZM1306.47,44.58l-14.64-9.73,14.64-9.73,14.64,9.73-14.64,9.73Z"/>
      <rect class="cls-2" x="1341.18" y="34.84" width="0" height="0" transform="translate(365.08 955.28) rotate(-44.81)"/>
      <path class="cls-2" d="M1341.18,34.84h0s4.26,2.83,4.26,2.83l18.9,12.57,23.16-15.4-23.16-15.4-18.9,12.57-4.26,2.83h0ZM1364.34,25.11l14.64,9.73-14.64,9.73-14.64-9.73,14.64-9.73Z"/>
      <g>
        <polygon class="cls-2" points="1335.4 31.01 1339.66 28.17 1362.57 12.95 1354.05 12.95 1335.4 25.34 1316.76 12.95 1308.23 12.95 1331.14 28.17 1335.4 31.01"/>
        <polygon class="cls-2" points="1335.4 38.68 1331.14 41.52 1308.23 56.74 1316.76 56.74 1335.4 44.35 1354.05 56.74 1362.57 56.74 1339.66 41.52 1335.4 38.68"/>
      </g>
    </g>
    <path class="cls-3" d="M1298.33,34.85h0l1.5,1,6.64,4.41,8.14-5.41-8.14-5.41-6.64,4.41-1.5,1h0Z"/>
    <path class="cls-2" d="M1356.2,34.85h0l1.5,1,6.64,4.41,8.14-5.41-8.14-5.41-6.64,4.41-1.5,1h0Z"/>
    <g>
      <polygon class="cls-1" points="1349.7 34.84 1364.34 44.58 1378.98 34.84 1364.34 25.11 1349.7 34.84"/>
      <polygon class="cls-2" points="1436.85 34.84 1422.21 25.11 1407.57 34.84 1422.21 44.58 1436.85 34.84"/>
      <rect class="cls-2" x="1387.5" y="34.84" width="0" height="0" transform="translate(378.53 987.92) rotate(-44.81)"/>
      <path class="cls-2" d="M1387.5,34.84h0l-4.26-2.83-18.9-12.57-23.16,15.4,23.16,15.4,18.9-12.57,4.26-2.83h0ZM1364.34,44.58l-14.64-9.73,14.64-9.73,14.64,9.73-14.64,9.73Z"/>
      <rect class="cls-2" x="1399.05" y="34.84" width="0" height="0" transform="translate(130.52 625.94) rotate(-26.41)"/>
      <path class="cls-2" d="M1399.05,34.84h0s4.26,2.83,4.26,2.83l18.9,12.57,23.16-15.4-23.16-15.4-18.9,12.57-4.26,2.83h0ZM1422.21,25.11l14.64,9.73-14.64,9.73-14.64-9.73,14.64-9.73Z"/>
      <g>
        <polygon class="cls-2" points="1393.27 31.01 1397.53 28.17 1420.44 12.95 1411.92 12.95 1393.27 25.34 1374.63 12.95 1366.11 12.95 1389.01 28.17 1393.27 31.01"/>
        <polygon class="cls-2" points="1393.27 38.68 1389.01 41.52 1366.11 56.74 1374.63 56.74 1393.27 44.35 1411.92 56.74 1420.44 56.74 1397.53 41.52 1393.27 38.68"/>
      </g>
    </g>
    <path class="cls-3" d="M1356.2,34.85h0l1.5,1,6.64,4.41,8.14-5.41-8.14-5.41-6.64,4.41-1.5,1h0Z"/>
    <path class="cls-2" d="M1414.07,34.85h0l1.5,1,6.64,4.41,8.14-5.41-8.14-5.41-6.64,4.41-1.5,1h0Z"/>
    <g>
      <polygon class="cls-1" points="1407.57 34.84 1422.21 44.58 1436.85 34.84 1422.21 25.11 1407.57 34.84"/>
      <polygon class="cls-2" points="1494.72 34.84 1480.08 25.11 1465.44 34.84 1480.08 44.58 1494.72 34.84"/>
      <rect class="cls-2" x="1445.37" y="34.84" width="0" height="0" transform="translate(395.35 1028.71) rotate(-44.81)"/>
      <path class="cls-2" d="M1445.37,34.84h0l-4.26-2.83-18.9-12.57-23.16,15.4,23.16,15.4,18.9-12.57,4.26-2.83h0ZM1422.21,44.58l-14.64-9.73,14.64-9.73,14.64,9.73-14.64,9.73Z"/>
      <rect class="cls-2" x="1456.92" y="34.84" width="0" height="0" transform="translate(136.56 651.68) rotate(-26.41)"/>
      <path class="cls-2" d="M1456.92,34.84h0s4.26,2.83,4.26,2.83l18.9,12.57,23.16-15.4-23.16-15.4-18.9,12.57-4.26,2.83h0ZM1480.08,25.11l14.64,9.73-14.64,9.73-14.64-9.73,14.64-9.73Z"/>
      <g>
        <polygon class="cls-2" points="1451.14 31.01 1455.41 28.17 1478.31 12.95 1469.79 12.95 1451.14 25.34 1432.5 12.95 1423.98 12.95 1446.88 28.17 1451.14 31.01"/>
        <polygon class="cls-2" points="1451.14 38.68 1446.88 41.52 1423.98 56.74 1432.5 56.74 1451.14 44.35 1469.79 56.74 1478.31 56.74 1455.41 41.52 1451.14 38.68"/>
      </g>
    </g>
    <path class="cls-3" d="M1414.07,34.85h0l1.5,1,6.64,4.41,8.14-5.41-8.14-5.41-6.64,4.41-1.5,1h0Z"/>
    <path class="cls-2" d="M1471.94,34.85h0l1.5,1,6.64,4.41,8.14-5.41-8.14-5.41-6.64,4.41-1.5,1h0Z"/>
    <g>
      <polygon class="cls-1" points="1465.44 34.84 1480.08 44.58 1494.72 34.84 1480.08 25.11 1465.44 34.84"/>
      <polygon class="cls-2" points="1552.59 34.84 1537.95 25.11 1523.31 34.84 1537.95 44.58 1552.59 34.84"/>
      <rect class="cls-2" x="1503.24" y="34.84" width="0" height="0" transform="translate(412.16 1069.49) rotate(-44.81)"/>
      <path class="cls-2" d="M1503.24,34.84h0l-4.26-2.83-18.9-12.57-23.16,15.4,23.16,15.4,18.9-12.57,4.26-2.83h0ZM1480.08,44.58l-14.64-9.73,14.64-9.73,14.64,9.73-14.64,9.73Z"/>
      <rect class="cls-2" x="1514.79" y="34.84" width="0" height="0" transform="translate(142.6 677.42) rotate(-26.41)"/>
      <path class="cls-2" d="M1514.79,34.84h0s4.26,2.83,4.26,2.83l18.9,12.57,23.16-15.4-23.16-15.4-18.9,12.57-4.26,2.83h0ZM1537.95,25.11l14.64,9.73-14.64,9.73-14.64-9.73,14.64-9.73Z"/>
      <g>
        <polygon class="cls-2" points="1509.01 31.01 1513.28 28.17 1536.18 12.95 1527.66 12.95 1509.01 25.34 1490.37 12.95 1481.85 12.95 1504.75 28.17 1509.01 31.01"/>
        <polygon class="cls-2" points="1509.01 38.68 1504.75 41.52 1481.85 56.74 1490.37 56.74 1509.01 44.35 1527.66 56.74 1536.18 56.74 1513.28 41.52 1509.01 38.68"/>
      </g>
    </g>
    <path class="cls-3" d="M1471.94,34.85h0l1.5,1,6.64,4.41,8.14-5.41-8.14-5.41-6.64,4.41-1.5,1h0Z"/>
    <path class="cls-2" d="M1529.81,34.85h0l1.5,1,6.64,4.41,8.14-5.41-8.14-5.41-6.64,4.41-1.5,1h0Z"/>
    <g>
      <polygon class="cls-1" points="1523.31 34.84 1537.95 44.58 1552.59 34.84 1537.95 25.11 1523.31 34.84"/>
      <polygon class="cls-2" points="1610.46 34.84 1595.82 25.11 1581.18 34.84 1595.82 44.58 1610.46 34.84"/>
      <rect class="cls-2" x="1561.11" y="34.84" width="0" height="0" transform="translate(147.44 698.03) rotate(-26.41)"/>
      <path class="cls-2" d="M1561.11,34.84h0l-4.26-2.83-18.9-12.57-23.16,15.4,23.16,15.4,18.9-12.57,4.26-2.83h0ZM1537.95,44.58l-14.64-9.73,14.64-9.73,14.64,9.73-14.64,9.73Z"/>
      <rect class="cls-2" x="1572.66" y="34.84" width="0" height="0" transform="translate(148.64 703.16) rotate(-26.41)"/>
      <path class="cls-2" d="M1572.66,34.84h0s4.26,2.83,4.26,2.83l18.9,12.57,23.16-15.4-23.16-15.4-18.9,12.57-4.26,2.83h0ZM1595.82,25.11l14.64,9.73-14.64,9.73-14.64-9.73,14.64-9.73Z"/>
      <g>
        <polygon class="cls-2" points="1566.88 31.01 1571.15 28.17 1594.05 12.95 1585.53 12.95 1566.88 25.34 1548.24 12.95 1539.72 12.95 1562.62 28.17 1566.88 31.01"/>
        <polygon class="cls-2" points="1566.88 38.68 1562.62 41.52 1539.72 56.74 1548.24 56.74 1566.88 44.35 1585.53 56.74 1594.05 56.74 1571.15 41.52 1566.88 38.68"/>
      </g>
    </g>
    <path class="cls-3" d="M1529.81,34.85h0l1.5,1,6.64,4.41,8.14-5.41-8.14-5.41-6.64,4.41-1.5,1h0Z"/>
    <path class="cls-2" d="M1587.68,34.85h0l1.5,1,6.64,4.41,8.14-5.41-8.14-5.41-6.64,4.41-1.5,1h0Z"/>
    <g>
      <polygon class="cls-1" points="1581.18 34.84 1595.82 44.58 1610.46 34.84 1595.82 25.11 1581.18 34.84"/>
      <polygon class="cls-2" points="1668.33 34.84 1653.69 25.11 1639.05 34.84 1653.69 44.58 1668.33 34.84"/>
      <rect class="cls-2" x="1618.98" y="34.84" width="0" height="0" transform="translate(445.78 1151.05) rotate(-44.81)"/>
      <path class="cls-2" d="M1618.98,34.84h0l-4.26-2.83-18.9-12.57-23.16,15.4,23.16,15.4,18.9-12.57,4.26-2.83h0ZM1595.82,44.58l-14.64-9.73,14.64-9.73,14.64,9.73-14.64,9.73Z"/>
      <rect class="cls-2" x="1630.53" y="34.84" width="0" height="0" transform="translate(154.68 728.91) rotate(-26.41)"/>
      <path class="cls-2" d="M1630.53,34.84h0s4.26,2.83,4.26,2.83l18.9,12.57,23.16-15.4-23.16-15.4-18.9,12.57-4.26,2.83h0ZM1653.69,25.11l14.64,9.73-14.64,9.73-14.64-9.73,14.64-9.73Z"/>
      <g>
        <polygon class="cls-2" points="1624.76 31.01 1629.02 28.17 1651.92 12.95 1643.4 12.95 1624.76 25.34 1606.11 12.95 1597.59 12.95 1620.49 28.17 1624.76 31.01"/>
        <polygon class="cls-2" points="1624.76 38.68 1620.49 41.52 1597.59 56.74 1606.11 56.74 1624.76 44.35 1643.4 56.74 1651.92 56.74 1629.02 41.52 1624.76 38.68"/>
      </g>
    </g>
    <path class="cls-2" d="M1645.55,34.85h0l1.5,1,6.64,4.41,8.14-5.41-8.14-5.41-6.64,4.41-1.5,1h0Z"/>
    <path class="cls-2" d="M1645.55,34.85h0l1.5,1,6.64,4.41,8.14-5.41-8.14-5.41-6.64,4.41-1.5,1h0Z"/>
    <g>
      <polygon class="cls-1" points="1639.05 34.84 1653.69 44.58 1668.33 34.84 1653.69 25.11 1639.05 34.84"/>
      <polygon class="cls-2" points="1726.2 34.84 1711.56 25.11 1696.92 34.84 1711.56 44.58 1726.2 34.84"/>
      <rect class="cls-2" x="1676.85" y="34.84" width="0" height="0" transform="translate(462.6 1191.84) rotate(-44.81)"/>
      <path class="cls-2" d="M1676.85,34.84h0l-4.26-2.83-18.9-12.57-23.16,15.4,23.16,15.4,18.9-12.57,4.26-2.83h0ZM1653.69,44.58l-14.64-9.73,14.64-9.73,14.64,9.73-14.64,9.73Z"/>
      <rect class="cls-2" x="1688.4" y="34.84" width="0" height="0" transform="translate(183.95 802.01) rotate(-28.2)"/>
      <path class="cls-2" d="M1688.4,34.84h0s4.26,2.83,4.26,2.83l18.9,12.57,23.16-15.4-23.16-15.4-18.9,12.57-4.26,2.83h0ZM1711.56,25.11l14.64,9.73-14.64,9.73-14.64-9.73,14.64-9.73Z"/>
      <g>
        <polygon class="cls-2" points="1682.63 31.01 1686.89 28.17 1709.79 12.95 1701.27 12.95 1682.63 25.34 1663.98 12.95 1655.46 12.95 1678.36 28.17 1682.63 31.01"/>
        <polygon class="cls-2" points="1682.63 38.68 1678.36 41.52 1655.46 56.74 1663.98 56.74 1682.63 44.35 1701.27 56.74 1709.79 56.74 1686.89 41.52 1682.63 38.68"/>
      </g>
    </g>
    <path class="cls-3" d="M1645.55,34.85h0l1.5,1,6.64,4.41,8.14-5.41-8.14-5.41-6.64,4.41-1.5,1h0Z"/>
    <path class="cls-3" d="M1587.53,34.85h0l1.5,1,6.64,4.41,8.14-5.41-8.14-5.41-6.64,4.41-1.5,1h0Z"/>
    <g>
      <polygon class="cls-1" points="1696.92 34.84 1711.56 44.58 1726.2 34.84 1711.56 25.11 1696.92 34.84"/>
      <path class="cls-2" d="M1734.72,34.84h0l-4.26-2.83-18.9-12.57-23.16,15.4,23.16,15.4,18.9-12.57,4.26-2.83h0ZM1711.56,44.58l-14.64-9.73,14.64-9.73,14.64,9.73-14.64,9.73Z"/>
    </g>
    <path class="cls-3" d="M1703.42,34.85h0l1.5,1,6.64,4.41,8.14-5.41-8.14-5.41-6.64,4.41-1.5,1h0Z"/>
  </g>
  <g>
    <g>
      <polygon class="cls-2" points="1784 34.84 1769.36 25.11 1754.72 34.84 1769.36 44.58 1784 34.84"/>
      <path class="cls-2" d="M1746.2,34.84h0s4.26,2.83,4.26,2.83l18.9,12.57,23.16-15.4-23.16-15.4-18.9,12.57-4.26,2.83h0ZM1769.36,25.11l14.64,9.73-14.64,9.73-14.64-9.73,14.64-9.73Z"/>
      <g>
        <polygon class="cls-2" points="1740.43 31.01 1744.69 28.17 1767.6 12.95 1759.07 12.95 1740.43 25.34 1721.78 12.95 1713.26 12.95 1736.17 28.17 1740.43 31.01"/>
        <polygon class="cls-2" points="1740.43 38.68 1736.17 41.52 1713.26 56.74 1721.78 56.74 1740.43 44.35 1759.07 56.74 1767.6 56.74 1744.69 41.52 1740.43 38.68"/>
      </g>
    </g>
    <path class="cls-2" d="M1761.23,34.85h0l1.5,1,6.64,4.41,8.14-5.41-8.14-5.41-6.64,4.41-1.5,1h0Z"/>
    <g>
      <polygon class="cls-1" points="1754.72 34.84 1769.36 44.58 1784 34.84 1769.36 25.11 1754.72 34.84"/>
      <polygon class="cls-2" points="1841.87 34.84 1827.23 25.11 1812.59 34.84 1827.23 44.58 1841.87 34.84"/>
      <rect class="cls-2" x="1792.53" y="34.84" width="0" height="0" transform="translate(171.59 800.96) rotate(-26.41)"/>
      <path class="cls-2" d="M1792.53,34.84h0l-4.26-2.83-18.9-12.57-23.16,15.4,23.16,15.4,18.9-12.57,4.26-2.83h0ZM1769.36,44.58l-14.64-9.73,14.64-9.73,14.64,9.73-14.64,9.73Z"/>
      <rect class="cls-2" x="1804.07" y="34.84" width="0" height="0" transform="translate(172.8 806.1) rotate(-26.41)"/>
      <path class="cls-2" d="M1804.07,34.84h0s4.26,2.83,4.26,2.83l18.9,12.57,23.16-15.4-23.16-15.4-18.9,12.57-4.26,2.83h0ZM1827.23,25.11l14.64,9.73-14.64,9.73-14.64-9.73,14.64-9.73Z"/>
      <g>
        <polygon class="cls-2" points="1798.3 31.01 1802.56 28.17 1825.47 12.95 1816.94 12.95 1798.3 25.34 1779.65 12.95 1771.13 12.95 1794.04 28.17 1798.3 31.01"/>
        <polygon class="cls-2" points="1798.3 38.68 1794.04 41.52 1771.13 56.74 1779.65 56.74 1798.3 44.35 1816.94 56.74 1825.47 56.74 1802.56 41.52 1798.3 38.68"/>
      </g>
    </g>
    <path class="cls-3" d="M1761.23,34.85h0l1.5,1,6.64,4.41,8.14-5.41-8.14-5.41-6.64,4.41-1.5,1h0Z"/>
    <path class="cls-2" d="M1819.1,34.85h0l1.5,1,6.64,4.41,8.14-5.41-8.14-5.41-6.64,4.41-1.5,1h0Z"/>
    <g>
      <polygon class="cls-1" points="1812.59 34.84 1827.23 44.58 1841.87 34.84 1827.23 25.11 1812.59 34.84"/>
      <polygon class="cls-2" points="1899.74 34.84 1885.1 25.11 1870.46 34.84 1885.1 44.58 1899.74 34.84"/>
      <rect class="cls-2" x="1850.4" y="34.84" width="0" height="0" transform="translate(177.63 826.7) rotate(-26.41)"/>
      <path class="cls-2" d="M1850.4,34.84h0l-4.26-2.83-18.9-12.57-23.16,15.4,23.16,15.4,18.9-12.57,4.26-2.83h0ZM1827.23,44.58l-14.64-9.73,14.64-9.73,14.64,9.73-14.64,9.73Z"/>
      <rect class="cls-2" x="1861.94" y="34.84" width="0" height="0" transform="translate(178.84 831.84) rotate(-26.41)"/>
      <path class="cls-2" d="M1861.94,34.84h0s4.26,2.83,4.26,2.83l18.9,12.57,23.16-15.4-23.16-15.4-18.9,12.57-4.26,2.83h0ZM1885.1,25.11l14.64,9.73-14.64,9.73-14.64-9.73,14.64-9.73Z"/>
      <g>
        <polygon class="cls-2" points="1856.17 31.01 1860.43 28.17 1883.34 12.95 1874.81 12.95 1856.17 25.34 1837.52 12.95 1829 12.95 1851.91 28.17 1856.17 31.01"/>
        <polygon class="cls-2" points="1856.17 38.68 1851.91 41.52 1829 56.74 1837.52 56.74 1856.17 44.35 1874.81 56.74 1883.34 56.74 1860.43 41.52 1856.17 38.68"/>
      </g>
    </g>
    <path class="cls-3" d="M1819.1,34.85h0l1.5,1,6.64,4.41,8.14-5.41-8.14-5.41-6.64,4.41-1.5,1h0Z"/>
    <path class="cls-2" d="M1876.97,34.85h0l1.5,1,6.64,4.41,8.14-5.41-8.14-5.41-6.64,4.41-1.5,1h0Z"/>
    <g>
      <polygon class="cls-1" points="1870.46 34.84 1885.1 44.58 1899.74 34.84 1885.1 25.11 1870.46 34.84"/>
      <rect class="cls-2" x="1908.27" y="34.84" width="0" height="0" transform="translate(177.72 839.77) rotate(-25.99)"/>
      <path class="cls-2" d="M1908.27,34.84h0l-4.26-2.83-18.9-12.57-23.16,15.4,23.16,15.4,18.9-12.57,4.26-2.83h0ZM1885.1,44.58l-14.64-9.73,14.64-9.73,14.64,9.73-14.64,9.73Z"/>
      <rect class="cls-2" x="1919.81" y="34.84" width="0" height="0" transform="translate(178.58 844.17) rotate(-25.97)"/>
      <g>
        <polyline class="cls-2" points="1914.04 25.34 1895.39 12.95 1886.87 12.95 1909.78 28.17 1914.04 31.01 1918.3 28.17"/>
        <polyline class="cls-2" points="1918.3 41.52 1914.04 38.68 1909.78 41.52 1886.87 56.74 1895.39 56.74 1914.04 44.35"/>
      </g>
    </g>
    <path class="cls-3" d="M1876.97,34.85h0l1.5,1,6.64,4.41,8.14-5.41-8.14-5.41-6.64,4.41-1.5,1h0Z"/>
  </g>
</svg>