<?xml version="1.0" encoding="UTF-8"?>
<svg id="Capa_1" data-name="Capa 1" xmlns="http://www.w3.org/2000/svg" viewBox="0 0 1920 70">
  <defs>
    <style>
      .cls-1 {
        stroke: #fcd300;
      }

      .cls-1, .cls-2 {
        fill: none;
        stroke-linecap: round;
        stroke-linejoin: round;
        stroke-width: 4.92px;
      }

      .cls-2 {
        stroke: #603813;
      }
    </style>
  </defs>
  <g>
    <path class="cls-2" d="M14.99,21.34h6.37l4.7-2.73-9.28-4.64-9.13,3.96-.15,11.07,9.28,4.79L55.56,15.19l20.66,9.29,22.45-9.84,40.72,18.03,38.3-18.72,10.2,4.78-3.59,3.55-7.19.27"/>
    <polyline class="cls-2" points="141.73 23.87 131.45 18.61 140.59 13.96 178.46 32.54 219.47 13.42 229.65 19.78 178.46 44.29 159.35 33.78 140.73 43.2 99.1 23.87 76.5 33.78 56.61 25.16 7.51 48.57 17.09 55.49 57.5 35 98.52 55.49 108.4 49.21 97.7 43.64"/>
    <path class="cls-2" d="M56.91,44.84l-10.18,4.64,8.89,6.01,43.06-21.71,41.46,21.71s20.36-12.02,20.06-12.02l17.66,12.02,40.89-20.77,11.8,5.74-.9,12.12-9.62,2.9-9.24-5.46,8.53-5.12"/>
    <g>
      <g>
        <line class="cls-1" x1="34.44" y1="13.69" x2="39.27" y2="13.69"/>
        <line class="cls-1" x1="34.44" y1="16.15" x2="39.27" y2="16.15"/>
      </g>
      <g>
        <line class="cls-1" x1="34.44" y1="54.13" x2="39.27" y2="54.13"/>
        <line class="cls-1" x1="34.44" y1="56.58" x2="39.27" y2="56.58"/>
      </g>
    </g>
    <g>
      <g>
        <line class="cls-1" x1="75.16" y1="13.69" x2="79.99" y2="13.69"/>
        <line class="cls-1" x1="75.16" y1="16.15" x2="79.99" y2="16.15"/>
      </g>
      <g>
        <line class="cls-1" x1="75.16" y1="54.13" x2="79.99" y2="54.13"/>
        <line class="cls-1" x1="75.16" y1="56.58" x2="79.99" y2="56.58"/>
      </g>
    </g>
    <g>
      <g>
        <line class="cls-1" x1="118.57" y1="13.69" x2="123.4" y2="13.69"/>
        <line class="cls-1" x1="118.57" y1="16.15" x2="123.4" y2="16.15"/>
      </g>
      <g>
        <line class="cls-1" x1="118.57" y1="54.13" x2="123.4" y2="54.13"/>
        <line class="cls-1" x1="118.57" y1="56.58" x2="123.4" y2="56.58"/>
      </g>
    </g>
    <g>
      <g>
        <line class="cls-1" x1="157.49" y1="13.69" x2="162.32" y2="13.69"/>
        <line class="cls-1" x1="157.49" y1="16.15" x2="162.32" y2="16.15"/>
      </g>
      <g>
        <line class="cls-1" x1="157.49" y1="54.13" x2="162.32" y2="54.13"/>
        <line class="cls-1" x1="157.49" y1="56.58" x2="162.32" y2="56.58"/>
      </g>
    </g>
    <g>
      <g>
        <line class="cls-1" x1="196.41" y1="13.69" x2="201.24" y2="13.69"/>
        <line class="cls-1" x1="196.41" y1="16.15" x2="201.24" y2="16.15"/>
      </g>
      <g>
        <line class="cls-1" x1="196.41" y1="54.13" x2="201.24" y2="54.13"/>
        <line class="cls-1" x1="196.41" y1="56.58" x2="201.24" y2="56.58"/>
      </g>
    </g>
    <g>
      <line class="cls-1" x1="4.5" y1="37.19" x2="9.33" y2="37.19"/>
      <line class="cls-1" x1="4.5" y1="39.64" x2="9.33" y2="39.64"/>
    </g>
    <g>
      <line class="cls-1" x1="228.14" y1="28.44" x2="232.97" y2="28.44"/>
      <line class="cls-1" x1="228.14" y1="30.9" x2="232.97" y2="30.9"/>
    </g>
  </g>
  <g>
    <path class="cls-2" d="M255.35,21.34h6.37l4.7-2.73-9.28-4.64-9.13,3.96-.15,11.07,9.28,4.79,38.77-18.59,20.66,9.29,22.45-9.84,40.72,18.03,38.3-18.72,10.2,4.78-3.59,3.55-7.19.27"/>
    <polyline class="cls-2" points="382.09 23.87 371.81 18.61 380.95 13.96 418.82 32.54 459.83 13.42 470.01 19.78 418.82 44.29 399.71 33.78 381.09 43.2 339.46 23.87 316.86 33.78 296.97 25.16 247.87 48.57 257.45 55.49 297.86 35 338.88 55.49 348.76 49.21 338.06 43.64"/>
    <path class="cls-2" d="M297.27,44.84l-10.18,4.64,8.89,6.01,43.06-21.71,41.46,21.71s20.36-12.02,20.06-12.02l17.66,12.02,40.89-20.77,11.8,5.74-.9,12.12-9.62,2.9-9.24-5.46,8.53-5.12"/>
    <g>
      <g>
        <line class="cls-1" x1="274.8" y1="13.69" x2="279.63" y2="13.69"/>
        <line class="cls-1" x1="274.8" y1="16.15" x2="279.63" y2="16.15"/>
      </g>
      <g>
        <line class="cls-1" x1="274.8" y1="54.13" x2="279.63" y2="54.13"/>
        <line class="cls-1" x1="274.8" y1="56.58" x2="279.63" y2="56.58"/>
      </g>
    </g>
    <g>
      <g>
        <line class="cls-1" x1="315.52" y1="13.69" x2="320.35" y2="13.69"/>
        <line class="cls-1" x1="315.52" y1="16.15" x2="320.35" y2="16.15"/>
      </g>
      <g>
        <line class="cls-1" x1="315.52" y1="54.13" x2="320.35" y2="54.13"/>
        <line class="cls-1" x1="315.52" y1="56.58" x2="320.35" y2="56.58"/>
      </g>
    </g>
    <g>
      <g>
        <line class="cls-1" x1="358.93" y1="13.69" x2="363.76" y2="13.69"/>
        <line class="cls-1" x1="358.93" y1="16.15" x2="363.76" y2="16.15"/>
      </g>
      <g>
        <line class="cls-1" x1="358.93" y1="54.13" x2="363.76" y2="54.13"/>
        <line class="cls-1" x1="358.93" y1="56.58" x2="363.76" y2="56.58"/>
      </g>
    </g>
    <g>
      <g>
        <line class="cls-1" x1="397.85" y1="13.69" x2="402.68" y2="13.69"/>
        <line class="cls-1" x1="397.85" y1="16.15" x2="402.68" y2="16.15"/>
      </g>
      <g>
        <line class="cls-1" x1="397.85" y1="54.13" x2="402.68" y2="54.13"/>
        <line class="cls-1" x1="397.85" y1="56.58" x2="402.68" y2="56.58"/>
      </g>
    </g>
    <g>
      <g>
        <line class="cls-1" x1="436.77" y1="13.69" x2="441.6" y2="13.69"/>
        <line class="cls-1" x1="436.77" y1="16.15" x2="441.6" y2="16.15"/>
      </g>
      <g>
        <line class="cls-1" x1="436.77" y1="54.13" x2="441.6" y2="54.13"/>
        <line class="cls-1" x1="436.77" y1="56.58" x2="441.6" y2="56.58"/>
      </g>
    </g>
    <g>
      <line class="cls-1" x1="244.86" y1="37.19" x2="249.69" y2="37.19"/>
      <line class="cls-1" x1="244.86" y1="39.64" x2="249.69" y2="39.64"/>
    </g>
    <g>
      <line class="cls-1" x1="468.5" y1="28.44" x2="473.34" y2="28.44"/>
      <line class="cls-1" x1="468.5" y1="30.9" x2="473.34" y2="30.9"/>
    </g>
    <line class="cls-2" x1="238.67" y1="16.78" x2="238.67" y2="53.49"/>
  </g>
  <g>
    <path class="cls-2" d="M495.71,21.34h6.37l4.7-2.73-9.28-4.64-9.13,3.96-.15,11.07,9.28,4.79,38.77-18.59,20.66,9.29,22.45-9.84,40.72,18.03,38.3-18.72,10.2,4.78-3.59,3.55-7.19.27"/>
    <polyline class="cls-2" points="622.45 23.87 612.17 18.61 621.31 13.96 659.18 32.54 700.19 13.42 710.37 19.78 659.18 44.29 640.07 33.78 621.46 43.2 579.82 23.87 557.22 33.78 537.33 25.16 488.23 48.57 497.81 55.49 538.23 35 579.24 55.49 589.12 49.21 578.42 43.64"/>
    <path class="cls-2" d="M537.63,44.84l-10.18,4.64,8.89,6.01,43.06-21.71,41.46,21.71s20.36-12.02,20.06-12.02l17.66,12.02,40.89-20.77,11.8,5.74-.9,12.12-9.62,2.9-9.24-5.46,8.53-5.12"/>
    <g>
      <g>
        <line class="cls-1" x1="515.16" y1="13.69" x2="519.99" y2="13.69"/>
        <line class="cls-1" x1="515.16" y1="16.15" x2="519.99" y2="16.15"/>
      </g>
      <g>
        <line class="cls-1" x1="515.16" y1="54.13" x2="519.99" y2="54.13"/>
        <line class="cls-1" x1="515.16" y1="56.58" x2="519.99" y2="56.58"/>
      </g>
    </g>
    <g>
      <g>
        <line class="cls-1" x1="555.88" y1="13.69" x2="560.71" y2="13.69"/>
        <line class="cls-1" x1="555.88" y1="16.15" x2="560.71" y2="16.15"/>
      </g>
      <g>
        <line class="cls-1" x1="555.88" y1="54.13" x2="560.71" y2="54.13"/>
        <line class="cls-1" x1="555.88" y1="56.58" x2="560.71" y2="56.58"/>
      </g>
    </g>
    <g>
      <g>
        <line class="cls-1" x1="599.29" y1="13.69" x2="604.12" y2="13.69"/>
        <line class="cls-1" x1="599.29" y1="16.15" x2="604.12" y2="16.15"/>
      </g>
      <g>
        <line class="cls-1" x1="599.29" y1="54.13" x2="604.12" y2="54.13"/>
        <line class="cls-1" x1="599.29" y1="56.58" x2="604.12" y2="56.58"/>
      </g>
    </g>
    <g>
      <g>
        <line class="cls-1" x1="638.21" y1="13.69" x2="643.04" y2="13.69"/>
        <line class="cls-1" x1="638.21" y1="16.15" x2="643.04" y2="16.15"/>
      </g>
      <g>
        <line class="cls-1" x1="638.21" y1="54.13" x2="643.04" y2="54.13"/>
        <line class="cls-1" x1="638.21" y1="56.58" x2="643.04" y2="56.58"/>
      </g>
    </g>
    <g>
      <g>
        <line class="cls-1" x1="677.13" y1="13.69" x2="681.96" y2="13.69"/>
        <line class="cls-1" x1="677.13" y1="16.15" x2="681.96" y2="16.15"/>
      </g>
      <g>
        <line class="cls-1" x1="677.13" y1="54.13" x2="681.96" y2="54.13"/>
        <line class="cls-1" x1="677.13" y1="56.58" x2="681.96" y2="56.58"/>
      </g>
    </g>
    <g>
      <line class="cls-1" x1="485.22" y1="37.19" x2="490.05" y2="37.19"/>
      <line class="cls-1" x1="485.22" y1="39.64" x2="490.05" y2="39.64"/>
    </g>
    <g>
      <line class="cls-1" x1="708.86" y1="28.44" x2="713.7" y2="28.44"/>
      <line class="cls-1" x1="708.86" y1="30.9" x2="713.7" y2="30.9"/>
    </g>
    <line class="cls-2" x1="479.03" y1="16.78" x2="479.03" y2="53.49"/>
  </g>
  <g>
    <path class="cls-2" d="M736.07,21.34h6.37l4.7-2.73-9.28-4.64-9.13,3.96-.15,11.07,9.28,4.79,38.77-18.59,20.66,9.29,22.45-9.84,40.72,18.03,38.3-18.72,10.2,4.78-3.59,3.55-7.19.27"/>
    <polyline class="cls-2" points="862.81 23.87 852.54 18.61 861.68 13.96 899.54 32.54 940.56 13.42 950.73 19.78 899.54 44.29 880.43 33.78 861.82 43.2 820.18 23.87 797.58 33.78 777.69 25.16 728.59 48.57 738.17 55.49 778.59 35 819.6 55.49 829.48 49.21 818.78 43.64"/>
    <path class="cls-2" d="M777.99,44.84l-10.18,4.64,8.89,6.01,43.06-21.71,41.46,21.71s20.36-12.02,20.06-12.02l17.66,12.02,40.89-20.77,11.8,5.74-.9,12.12-9.62,2.9-9.24-5.46,8.53-5.12"/>
    <g>
      <g>
        <line class="cls-1" x1="755.52" y1="13.69" x2="760.35" y2="13.69"/>
        <line class="cls-1" x1="755.52" y1="16.15" x2="760.35" y2="16.15"/>
      </g>
      <g>
        <line class="cls-1" x1="755.52" y1="54.13" x2="760.35" y2="54.13"/>
        <line class="cls-1" x1="755.52" y1="56.58" x2="760.35" y2="56.58"/>
      </g>
    </g>
    <g>
      <g>
        <line class="cls-1" x1="796.24" y1="13.69" x2="801.07" y2="13.69"/>
        <line class="cls-1" x1="796.24" y1="16.15" x2="801.07" y2="16.15"/>
      </g>
      <g>
        <line class="cls-1" x1="796.24" y1="54.13" x2="801.07" y2="54.13"/>
        <line class="cls-1" x1="796.24" y1="56.58" x2="801.07" y2="56.58"/>
      </g>
    </g>
    <g>
      <g>
        <line class="cls-1" x1="839.65" y1="13.69" x2="844.48" y2="13.69"/>
        <line class="cls-1" x1="839.65" y1="16.15" x2="844.48" y2="16.15"/>
      </g>
      <g>
        <line class="cls-1" x1="839.65" y1="54.13" x2="844.48" y2="54.13"/>
        <line class="cls-1" x1="839.65" y1="56.58" x2="844.48" y2="56.58"/>
      </g>
    </g>
    <g>
      <g>
        <line class="cls-1" x1="878.57" y1="13.69" x2="883.4" y2="13.69"/>
        <line class="cls-1" x1="878.57" y1="16.15" x2="883.4" y2="16.15"/>
      </g>
      <g>
        <line class="cls-1" x1="878.57" y1="54.13" x2="883.4" y2="54.13"/>
        <line class="cls-1" x1="878.57" y1="56.58" x2="883.4" y2="56.58"/>
      </g>
    </g>
    <g>
      <g>
        <line class="cls-1" x1="917.49" y1="13.69" x2="922.32" y2="13.69"/>
        <line class="cls-1" x1="917.49" y1="16.15" x2="922.32" y2="16.15"/>
      </g>
      <g>
        <line class="cls-1" x1="917.49" y1="54.13" x2="922.32" y2="54.13"/>
        <line class="cls-1" x1="917.49" y1="56.58" x2="922.32" y2="56.58"/>
      </g>
    </g>
    <g>
      <line class="cls-1" x1="725.58" y1="37.19" x2="730.41" y2="37.19"/>
      <line class="cls-1" x1="725.58" y1="39.64" x2="730.41" y2="39.64"/>
    </g>
    <g>
      <line class="cls-1" x1="949.23" y1="28.44" x2="954.06" y2="28.44"/>
      <line class="cls-1" x1="949.23" y1="30.9" x2="954.06" y2="30.9"/>
    </g>
    <line class="cls-2" x1="719.39" y1="16.78" x2="719.39" y2="53.49"/>
  </g>
  <g>
    <path class="cls-2" d="M976.43,21.34h6.37l4.7-2.73-9.28-4.64-9.13,3.96-.15,11.07,9.28,4.79,38.77-18.59,20.66,9.29,22.45-9.84,40.72,18.03,38.3-18.72,10.2,4.78-3.59,3.55-7.19.27"/>
    <polyline class="cls-2" points="1103.17 23.87 1092.9 18.61 1102.04 13.96 1139.9 32.54 1180.92 13.42 1191.1 19.78 1139.9 44.29 1120.79 33.78 1102.18 43.2 1060.54 23.87 1037.95 33.78 1018.05 25.16 968.95 48.57 978.53 55.49 1018.95 35 1059.96 55.49 1069.84 49.21 1059.14 43.64"/>
    <path class="cls-2" d="M1018.35,44.84l-10.18,4.64,8.89,6.01,43.06-21.71,41.46,21.71s20.36-12.02,20.06-12.02l17.66,12.02,40.89-20.77,11.8,5.74-.9,12.12-9.62,2.9-9.24-5.46,8.53-5.12"/>
    <g>
      <g>
        <line class="cls-1" x1="995.88" y1="13.69" x2="1000.71" y2="13.69"/>
        <line class="cls-1" x1="995.88" y1="16.15" x2="1000.71" y2="16.15"/>
      </g>
      <g>
        <line class="cls-1" x1="995.88" y1="54.13" x2="1000.71" y2="54.13"/>
        <line class="cls-1" x1="995.88" y1="56.58" x2="1000.71" y2="56.58"/>
      </g>
    </g>
    <g>
      <g>
        <line class="cls-1" x1="1036.6" y1="13.69" x2="1041.43" y2="13.69"/>
        <line class="cls-1" x1="1036.6" y1="16.15" x2="1041.43" y2="16.15"/>
      </g>
      <g>
        <line class="cls-1" x1="1036.6" y1="54.13" x2="1041.43" y2="54.13"/>
        <line class="cls-1" x1="1036.6" y1="56.58" x2="1041.43" y2="56.58"/>
      </g>
    </g>
    <g>
      <g>
        <line class="cls-1" x1="1080.01" y1="13.69" x2="1084.84" y2="13.69"/>
        <line class="cls-1" x1="1080.01" y1="16.15" x2="1084.84" y2="16.15"/>
      </g>
      <g>
        <line class="cls-1" x1="1080.01" y1="54.13" x2="1084.84" y2="54.13"/>
        <line class="cls-1" x1="1080.01" y1="56.58" x2="1084.84" y2="56.58"/>
      </g>
    </g>
    <g>
      <g>
        <line class="cls-1" x1="1118.93" y1="13.69" x2="1123.76" y2="13.69"/>
        <line class="cls-1" x1="1118.93" y1="16.15" x2="1123.76" y2="16.15"/>
      </g>
      <g>
        <line class="cls-1" x1="1118.93" y1="54.13" x2="1123.76" y2="54.13"/>
        <line class="cls-1" x1="1118.93" y1="56.58" x2="1123.76" y2="56.58"/>
      </g>
    </g>
    <g>
      <g>
        <line class="cls-1" x1="1157.85" y1="13.69" x2="1162.68" y2="13.69"/>
        <line class="cls-1" x1="1157.85" y1="16.15" x2="1162.68" y2="16.15"/>
      </g>
      <g>
        <line class="cls-1" x1="1157.85" y1="54.13" x2="1162.68" y2="54.13"/>
        <line class="cls-1" x1="1157.85" y1="56.58" x2="1162.68" y2="56.58"/>
      </g>
    </g>
    <g>
      <line class="cls-1" x1="965.94" y1="37.19" x2="970.77" y2="37.19"/>
      <line class="cls-1" x1="965.94" y1="39.64" x2="970.77" y2="39.64"/>
    </g>
    <g>
      <line class="cls-1" x1="1189.59" y1="28.44" x2="1194.42" y2="28.44"/>
      <line class="cls-1" x1="1189.59" y1="30.9" x2="1194.42" y2="30.9"/>
    </g>
    <line class="cls-2" x1="959.75" y1="16.78" x2="959.75" y2="53.49"/>
  </g>
  <g>
    <path class="cls-2" d="M1216.79,21.34h6.37l4.7-2.73-9.28-4.64-9.13,3.96-.15,11.07,9.28,4.79,38.77-18.59,20.66,9.29,22.45-9.84,40.72,18.03,38.3-18.72,10.2,4.78-3.59,3.55-7.19.27"/>
    <polyline class="cls-2" points="1343.53 23.87 1333.26 18.61 1342.4 13.96 1380.26 32.54 1421.28 13.42 1431.46 19.78 1380.26 44.29 1361.15 33.78 1342.54 43.2 1300.9 23.87 1278.31 33.78 1258.41 25.16 1209.31 48.57 1218.89 55.49 1259.31 35 1300.32 55.49 1310.2 49.21 1299.5 43.64"/>
    <path class="cls-2" d="M1258.71,44.84l-10.18,4.64,8.89,6.01,43.06-21.71,41.46,21.71s20.36-12.02,20.06-12.02l17.66,12.02,40.89-20.77,11.8,5.74-.9,12.12-9.62,2.9-9.24-5.46,8.53-5.12"/>
    <g>
      <g>
        <line class="cls-1" x1="1236.24" y1="13.69" x2="1241.07" y2="13.69"/>
        <line class="cls-1" x1="1236.24" y1="16.15" x2="1241.07" y2="16.15"/>
      </g>
      <g>
        <line class="cls-1" x1="1236.24" y1="54.13" x2="1241.07" y2="54.13"/>
        <line class="cls-1" x1="1236.24" y1="56.58" x2="1241.07" y2="56.58"/>
      </g>
    </g>
    <g>
      <g>
        <line class="cls-1" x1="1276.96" y1="13.69" x2="1281.79" y2="13.69"/>
        <line class="cls-1" x1="1276.96" y1="16.15" x2="1281.79" y2="16.15"/>
      </g>
      <g>
        <line class="cls-1" x1="1276.96" y1="54.13" x2="1281.79" y2="54.13"/>
        <line class="cls-1" x1="1276.96" y1="56.58" x2="1281.79" y2="56.58"/>
      </g>
    </g>
    <g>
      <g>
        <line class="cls-1" x1="1320.37" y1="13.69" x2="1325.2" y2="13.69"/>
        <line class="cls-1" x1="1320.37" y1="16.15" x2="1325.2" y2="16.15"/>
      </g>
      <g>
        <line class="cls-1" x1="1320.37" y1="54.13" x2="1325.2" y2="54.13"/>
        <line class="cls-1" x1="1320.37" y1="56.58" x2="1325.2" y2="56.58"/>
      </g>
    </g>
    <g>
      <g>
        <line class="cls-1" x1="1359.29" y1="13.69" x2="1364.12" y2="13.69"/>
        <line class="cls-1" x1="1359.29" y1="16.15" x2="1364.12" y2="16.15"/>
      </g>
      <g>
        <line class="cls-1" x1="1359.29" y1="54.13" x2="1364.12" y2="54.13"/>
        <line class="cls-1" x1="1359.29" y1="56.58" x2="1364.12" y2="56.58"/>
      </g>
    </g>
    <g>
      <g>
        <line class="cls-1" x1="1398.21" y1="13.69" x2="1403.04" y2="13.69"/>
        <line class="cls-1" x1="1398.21" y1="16.15" x2="1403.04" y2="16.15"/>
      </g>
      <g>
        <line class="cls-1" x1="1398.21" y1="54.13" x2="1403.04" y2="54.13"/>
        <line class="cls-1" x1="1398.21" y1="56.58" x2="1403.04" y2="56.58"/>
      </g>
    </g>
    <g>
      <line class="cls-1" x1="1206.3" y1="37.19" x2="1211.14" y2="37.19"/>
      <line class="cls-1" x1="1206.3" y1="39.64" x2="1211.14" y2="39.64"/>
    </g>
    <g>
      <line class="cls-1" x1="1429.95" y1="28.44" x2="1434.78" y2="28.44"/>
      <line class="cls-1" x1="1429.95" y1="30.9" x2="1434.78" y2="30.9"/>
    </g>
    <line class="cls-2" x1="1200.12" y1="16.78" x2="1200.12" y2="53.49"/>
  </g>
  <g>
    <path class="cls-2" d="M1457.16,21.34h6.37l4.7-2.73-9.28-4.64-9.13,3.96-.15,11.07,9.28,4.79,38.77-18.59,20.66,9.29,22.45-9.84,40.72,18.03,38.3-18.72,10.2,4.78-3.59,3.55-7.19.27"/>
    <polyline class="cls-2" points="1583.89 23.87 1573.62 18.61 1582.76 13.96 1620.62 32.54 1661.64 13.42 1671.82 19.78 1620.62 44.29 1601.52 33.78 1582.9 43.2 1541.26 23.87 1518.67 33.78 1498.77 25.16 1449.67 48.57 1459.25 55.49 1499.67 35 1540.68 55.49 1550.56 49.21 1539.86 43.64"/>
    <path class="cls-2" d="M1499.07,44.84l-10.18,4.64,8.89,6.01,43.06-21.71,41.46,21.71s20.36-12.02,20.06-12.02l17.66,12.02,40.89-20.77,11.8,5.74-.9,12.12-9.62,2.9-9.24-5.46,8.53-5.12"/>
    <g>
      <g>
        <line class="cls-1" x1="1476.6" y1="13.69" x2="1481.44" y2="13.69"/>
        <line class="cls-1" x1="1476.6" y1="16.15" x2="1481.44" y2="16.15"/>
      </g>
      <g>
        <line class="cls-1" x1="1476.6" y1="54.13" x2="1481.44" y2="54.13"/>
        <line class="cls-1" x1="1476.6" y1="56.58" x2="1481.44" y2="56.58"/>
      </g>
    </g>
    <g>
      <g>
        <line class="cls-1" x1="1517.32" y1="13.69" x2="1522.15" y2="13.69"/>
        <line class="cls-1" x1="1517.32" y1="16.15" x2="1522.15" y2="16.15"/>
      </g>
      <g>
        <line class="cls-1" x1="1517.32" y1="54.13" x2="1522.15" y2="54.13"/>
        <line class="cls-1" x1="1517.32" y1="56.58" x2="1522.15" y2="56.58"/>
      </g>
    </g>
    <g>
      <g>
        <line class="cls-1" x1="1560.73" y1="13.69" x2="1565.56" y2="13.69"/>
        <line class="cls-1" x1="1560.73" y1="16.15" x2="1565.56" y2="16.15"/>
      </g>
      <g>
        <line class="cls-1" x1="1560.73" y1="54.13" x2="1565.56" y2="54.13"/>
        <line class="cls-1" x1="1560.73" y1="56.58" x2="1565.56" y2="56.58"/>
      </g>
    </g>
    <g>
      <g>
        <line class="cls-1" x1="1599.65" y1="13.69" x2="1604.48" y2="13.69"/>
        <line class="cls-1" x1="1599.65" y1="16.15" x2="1604.48" y2="16.15"/>
      </g>
      <g>
        <line class="cls-1" x1="1599.65" y1="54.13" x2="1604.48" y2="54.13"/>
        <line class="cls-1" x1="1599.65" y1="56.58" x2="1604.48" y2="56.58"/>
      </g>
    </g>
    <g>
      <g>
        <line class="cls-1" x1="1638.57" y1="13.69" x2="1643.4" y2="13.69"/>
        <line class="cls-1" x1="1638.57" y1="16.15" x2="1643.4" y2="16.15"/>
      </g>
      <g>
        <line class="cls-1" x1="1638.57" y1="54.13" x2="1643.4" y2="54.13"/>
        <line class="cls-1" x1="1638.57" y1="56.58" x2="1643.4" y2="56.58"/>
      </g>
    </g>
    <g>
      <line class="cls-1" x1="1446.66" y1="37.19" x2="1451.5" y2="37.19"/>
      <line class="cls-1" x1="1446.66" y1="39.64" x2="1451.5" y2="39.64"/>
    </g>
    <g>
      <line class="cls-1" x1="1670.31" y1="28.44" x2="1675.14" y2="28.44"/>
      <line class="cls-1" x1="1670.31" y1="30.9" x2="1675.14" y2="30.9"/>
    </g>
    <line class="cls-2" x1="1440.48" y1="16.78" x2="1440.48" y2="53.49"/>
  </g>
  <g>
    <path class="cls-2" d="M1697.52,21.34h6.37l4.7-2.73-9.28-4.64-9.13,3.96-.15,11.07,9.28,4.79,38.77-18.59,20.66,9.29,22.45-9.84,40.72,18.03,38.3-18.72,10.2,4.78-3.59,3.55-7.19.27"/>
    <polyline class="cls-2" points="1824.26 23.87 1813.98 18.61 1823.12 13.96 1860.98 32.54 1902 13.42 1912.18 19.78 1860.98 44.29 1841.88 33.78 1823.26 43.2 1781.62 23.87 1759.03 33.78 1739.13 25.16 1690.03 48.57 1699.61 55.49 1740.03 35 1781.05 55.49 1790.93 49.21 1780.22 43.64"/>
    <path class="cls-2" d="M1739.43,44.84l-10.18,4.64,8.89,6.01,43.06-21.71,41.46,21.71s20.36-12.02,20.06-12.02l17.66,12.02,40.89-20.77,11.8,5.74-.9,12.12-9.62,2.9-9.24-5.46,8.53-5.12"/>
    <g>
      <g>
        <line class="cls-1" x1="1716.96" y1="13.69" x2="1721.8" y2="13.69"/>
        <line class="cls-1" x1="1716.96" y1="16.15" x2="1721.8" y2="16.15"/>
      </g>
      <g>
        <line class="cls-1" x1="1716.96" y1="54.13" x2="1721.8" y2="54.13"/>
        <line class="cls-1" x1="1716.96" y1="56.58" x2="1721.8" y2="56.58"/>
      </g>
    </g>
    <g>
      <g>
        <line class="cls-1" x1="1757.68" y1="13.69" x2="1762.51" y2="13.69"/>
        <line class="cls-1" x1="1757.68" y1="16.15" x2="1762.51" y2="16.15"/>
      </g>
      <g>
        <line class="cls-1" x1="1757.68" y1="54.13" x2="1762.51" y2="54.13"/>
        <line class="cls-1" x1="1757.68" y1="56.58" x2="1762.51" y2="56.58"/>
      </g>
    </g>
    <g>
      <g>
        <line class="cls-1" x1="1801.09" y1="13.69" x2="1805.92" y2="13.69"/>
        <line class="cls-1" x1="1801.09" y1="16.15" x2="1805.92" y2="16.15"/>
      </g>
      <g>
        <line class="cls-1" x1="1801.09" y1="54.13" x2="1805.92" y2="54.13"/>
        <line class="cls-1" x1="1801.09" y1="56.58" x2="1805.92" y2="56.58"/>
      </g>
    </g>
    <g>
      <g>
        <line class="cls-1" x1="1840.01" y1="13.69" x2="1844.84" y2="13.69"/>
        <line class="cls-1" x1="1840.01" y1="16.15" x2="1844.84" y2="16.15"/>
      </g>
      <g>
        <line class="cls-1" x1="1840.01" y1="54.13" x2="1844.84" y2="54.13"/>
        <line class="cls-1" x1="1840.01" y1="56.58" x2="1844.84" y2="56.58"/>
      </g>
    </g>
    <g>
      <g>
        <line class="cls-1" x1="1878.93" y1="13.69" x2="1883.76" y2="13.69"/>
        <line class="cls-1" x1="1878.93" y1="16.15" x2="1883.76" y2="16.15"/>
      </g>
      <g>
        <line class="cls-1" x1="1878.93" y1="54.13" x2="1883.76" y2="54.13"/>
        <line class="cls-1" x1="1878.93" y1="56.58" x2="1883.76" y2="56.58"/>
      </g>
    </g>
    <g>
      <line class="cls-1" x1="1687.03" y1="37.19" x2="1691.86" y2="37.19"/>
      <line class="cls-1" x1="1687.03" y1="39.64" x2="1691.86" y2="39.64"/>
    </g>
    <g>
      <line class="cls-1" x1="1910.67" y1="28.44" x2="1915.5" y2="28.44"/>
      <line class="cls-1" x1="1910.67" y1="30.9" x2="1915.5" y2="30.9"/>
    </g>
    <line class="cls-2" x1="1680.84" y1="16.78" x2="1680.84" y2="53.49"/>
  </g>
</svg>