<?xml version="1.0" encoding="UTF-8"?>
<svg id="Capa_1" data-name="Capa 1" xmlns="http://www.w3.org/2000/svg" viewBox="0 0 1920 70">
  <defs>
    <style>
      .cls-1 {
        fill: #603813;
      }

      .cls-2 {
        fill: #fcd300;
      }
    </style>
  </defs>
  <g>
    <g>
      <g>
        <path class="cls-2" d="M698.07,34.95l-21.81,21.81-21.81-21.81,21.81-21.81,21.81,21.81ZM676.26,52.46l17.51-17.51-17.51-17.51-17.51,17.51,17.51,17.51Z"/>
        <path class="cls-1" d="M687.94,34.95l-11.69,11.69-11.69-11.69,11.69-11.69,11.69,11.69ZM676.26,42.34l7.39-7.39-7.39-7.39-7.39,7.39,7.39,7.39Z"/>
      </g>
      <g>
        <path class="cls-2" d="M654.45,34.95l-21.81,21.81-21.81-21.81,21.81-21.81,21.81,21.81ZM632.64,52.46l17.51-17.51-17.51-17.51-17.51,17.51,17.51,17.51Z"/>
        <path class="cls-1" d="M644.33,34.95l-11.69,11.69-11.69-11.69,11.69-11.69,11.69,11.69ZM632.64,42.34l7.39-7.39-7.39-7.39-7.39,7.39,7.39,7.39Z"/>
      </g>
      <g>
        <path class="cls-2" d="M610.83,34.95l-21.81,21.81-21.81-21.81,21.81-21.81,21.81,21.81ZM589.02,52.46l17.51-17.51-17.51-17.51-17.51,17.51,17.51,17.51Z"/>
        <path class="cls-1" d="M600.71,34.95l-11.69,11.69-11.68-11.69,11.68-11.69,11.69,11.69ZM589.02,42.34l7.39-7.39-7.39-7.39-7.39,7.39,7.39,7.39Z"/>
      </g>
      <g>
        <path class="cls-2" d="M567.22,34.95l-21.81,21.81-21.81-21.81,21.81-21.81,21.81,21.81ZM545.41,52.46l17.51-17.51-17.51-17.51-17.51,17.51,17.51,17.51Z"/>
        <path class="cls-1" d="M557.09,34.95l-11.69,11.69-11.68-11.69,11.68-11.69,11.69,11.69ZM545.41,42.34l7.39-7.39-7.39-7.39-7.39,7.39,7.39,7.39Z"/>
      </g>
      <g>
        <path class="cls-2" d="M523.6,34.95l-21.81,21.81-21.81-21.81,21.81-21.81,21.81,21.81ZM501.79,52.46l17.51-17.51-17.51-17.51-17.51,17.51,17.51,17.51Z"/>
        <path class="cls-1" d="M513.47,34.95l-11.68,11.69-11.69-11.69,11.69-11.69,11.68,11.69ZM501.79,42.34l7.39-7.39-7.39-7.39-7.39,7.39,7.39,7.39Z"/>
      </g>
      <g>
        <path class="cls-2" d="M479.98,34.95l-21.81,21.81-21.81-21.81,21.81-21.81,21.81,21.81ZM458.17,52.46l17.51-17.51-17.51-17.51-17.51,17.51,17.51,17.51Z"/>
        <path class="cls-1" d="M469.86,34.95l-11.69,11.69-11.69-11.69,11.69-11.69,11.69,11.69ZM458.17,42.34l7.39-7.39-7.39-7.39-7.39,7.39,7.39,7.39Z"/>
      </g>
      <g>
        <path class="cls-2" d="M436.36,34.95l-21.81,21.81-21.81-21.81,21.81-21.81,21.81,21.81ZM414.55,52.46l17.51-17.51-17.51-17.51-17.51,17.51,17.51,17.51Z"/>
        <path class="cls-1" d="M426.24,34.95l-11.69,11.69-11.69-11.69,11.69-11.69,11.69,11.69ZM414.55,42.34l7.39-7.39-7.39-7.39-7.39,7.39,7.39,7.39Z"/>
      </g>
      <g>
        <path class="cls-2" d="M392.74,34.95l-21.81,21.81-21.81-21.81,21.81-21.81,21.81,21.81ZM370.94,52.46l17.51-17.51-17.51-17.51-17.51,17.51,17.51,17.51Z"/>
        <path class="cls-1" d="M382.62,34.95l-11.69,11.69-11.68-11.69,11.68-11.69,11.69,11.69ZM370.94,42.34l7.39-7.39-7.39-7.39-7.39,7.39,7.39,7.39Z"/>
      </g>
      <g>
        <path class="cls-2" d="M349.13,34.95l-21.81,21.81-21.81-21.81,21.81-21.81,21.81,21.81ZM327.32,52.46l17.51-17.51-17.51-17.51-17.51,17.51,17.51,17.51Z"/>
        <path class="cls-1" d="M339,34.95l-11.69,11.69-11.68-11.69,11.68-11.69,11.69,11.69ZM327.32,42.34l7.39-7.39-7.39-7.39-7.39,7.39,7.39,7.39Z"/>
      </g>
      <g>
        <path class="cls-2" d="M305.51,34.95l-21.81,21.81-21.81-21.81,21.81-21.81,21.81,21.81ZM283.7,52.46l17.51-17.51-17.51-17.51-17.51,17.51,17.51,17.51Z"/>
        <path class="cls-1" d="M295.39,34.95l-11.69,11.69-11.68-11.69,11.68-11.69,11.69,11.69ZM283.7,42.34l7.39-7.39-7.39-7.39-7.39,7.39,7.39,7.39Z"/>
      </g>
      <g>
        <path class="cls-2" d="M261.89,34.95l-21.81,21.81-21.81-21.81,21.81-21.81,21.81,21.81ZM240.08,52.46l17.51-17.51-17.51-17.51-17.51,17.51,17.51,17.51Z"/>
        <path class="cls-1" d="M251.77,34.95l-11.69,11.69-11.69-11.69,11.69-11.69,11.69,11.69ZM240.08,42.34l7.39-7.39-7.39-7.39-7.39,7.39,7.39,7.39Z"/>
      </g>
      <g>
        <path class="cls-2" d="M218.28,34.95l-21.81,21.81-21.81-21.81,21.81-21.81,21.81,21.81ZM196.47,52.46l17.51-17.51-17.51-17.51-17.51,17.51,17.51,17.51Z"/>
        <path class="cls-1" d="M208.15,34.95l-11.69,11.69-11.69-11.69,11.69-11.69,11.69,11.69ZM196.47,42.34l7.39-7.39-7.39-7.39-7.39,7.39,7.39,7.39Z"/>
      </g>
      <g>
        <path class="cls-2" d="M174.66,34.95l-21.81,21.81-21.81-21.81,21.81-21.81,21.81,21.81ZM152.85,52.46l17.51-17.51-17.51-17.51-17.51,17.51,17.51,17.51Z"/>
        <path class="cls-1" d="M164.53,34.95l-11.69,11.69-11.68-11.69,11.68-11.69,11.69,11.69ZM152.85,42.34l7.39-7.39-7.39-7.39-7.39,7.39,7.39,7.39Z"/>
      </g>
      <g>
        <path class="cls-2" d="M131.04,34.95l-21.81,21.81-21.81-21.81,21.81-21.81,21.81,21.81ZM109.23,52.46l17.51-17.51-17.51-17.51-17.51,17.51,17.51,17.51Z"/>
        <path class="cls-1" d="M120.92,34.95l-11.69,11.69-11.68-11.69,11.68-11.69,11.69,11.69ZM109.23,42.34l7.39-7.39-7.39-7.39-7.39,7.39,7.39,7.39Z"/>
      </g>
      <g>
        <path class="cls-2" d="M87.42,34.95l-21.81,21.81-21.81-21.81,21.81-21.81,21.81,21.81ZM65.61,52.46l17.51-17.51-17.51-17.51-17.51,17.51,17.51,17.51Z"/>
        <path class="cls-1" d="M77.3,34.95l-11.69,11.69-11.69-11.69,11.69-11.69,11.69,11.69ZM65.61,42.34l7.39-7.39-7.39-7.39-7.39,7.39,7.39,7.39Z"/>
      </g>
      <g>
        <polygon class="cls-1" points="77.94 57.04 82.24 57.04 88.06 51.21 93.89 57.04 98.18 57.04 88.06 46.91 77.94 57.04"/>
        <polygon class="cls-1" points="33.68 57.04 37.98 57.04 43.81 51.21 49.63 57.04 53.93 57.04 43.81 46.91 33.68 57.04"/>
        <polygon class="cls-1" points="120.92 57.04 125.22 57.04 131.04 51.21 136.86 57.04 141.16 57.04 131.04 46.91 120.92 57.04"/>
        <polyline class="cls-1" points="175.3 51.21 181.12 57.04 185.42 57.04 175.3 46.91 165.17 57.04 169.47 57.04"/>
        <polygon class="cls-1" points="208.15 57.04 212.45 57.04 218.28 51.21 224.1 57.04 228.4 57.04 218.28 46.91 208.15 57.04"/>
        <polygon class="cls-1" points="252.09 57.04 256.39 57.04 262.21 51.21 268.04 57.04 272.34 57.04 262.21 46.91 252.09 57.04"/>
        <polygon class="cls-1" points="295.07 57.04 299.37 57.04 305.19 51.21 311.02 57.04 315.31 57.04 305.19 46.91 295.07 57.04"/>
        <polygon class="cls-1" points="339.32 57.04 343.62 57.04 349.45 51.21 355.27 57.04 359.57 57.04 349.45 46.91 339.32 57.04"/>
        <polygon class="cls-1" points="382.3 57.04 386.6 57.04 392.43 51.21 398.25 57.04 402.55 57.04 392.43 46.91 382.3 57.04"/>
        <polygon class="cls-1" points="426.56 57.04 430.86 57.04 436.68 51.21 442.51 57.04 446.81 57.04 436.68 46.91 426.56 57.04"/>
        <polygon class="cls-1" points="469.54 57.04 473.84 57.04 479.66 51.21 485.49 57.04 489.78 57.04 479.66 46.91 469.54 57.04"/>
        <polygon class="cls-1" points="513.79 57.04 518.09 57.04 523.92 51.21 529.74 57.04 534.04 57.04 523.92 46.91 513.79 57.04"/>
        <polygon class="cls-1" points="556.77 57.04 561.07 57.04 566.9 51.21 572.72 57.04 577.02 57.04 566.9 46.91 556.77 57.04"/>
        <polygon class="cls-1" points="601.03 57.04 605.33 57.04 611.15 51.21 616.98 57.04 621.28 57.04 611.15 46.91 601.03 57.04"/>
        <polygon class="cls-1" points="644.01 57.04 648.31 57.04 654.13 51.21 659.96 57.04 664.25 57.04 654.13 46.91 644.01 57.04"/>
        <polygon class="cls-1" points="688.26 57.04 692.56 57.04 698.39 51.21 704.21 57.04 708.51 57.04 698.39 46.91 688.26 57.04"/>
      </g>
      <g>
        <polygon class="cls-1" points="77.94 12.96 82.24 12.96 88.06 18.79 93.89 12.96 98.18 12.96 88.06 23.09 77.94 12.96"/>
        <polygon class="cls-1" points="33.68 12.96 37.98 12.96 43.81 18.79 49.63 12.96 53.93 12.96 43.81 23.09 33.68 12.96"/>
        <polygon class="cls-1" points="120.92 12.96 125.22 12.96 131.04 18.79 136.86 12.96 141.16 12.96 131.04 23.09 120.92 12.96"/>
        <polygon class="cls-1" points="165.17 12.96 169.47 12.96 175.3 18.79 181.12 12.96 185.42 12.96 175.3 23.09 165.17 12.96"/>
        <polygon class="cls-1" points="208.15 12.96 212.45 12.96 218.28 18.79 224.1 12.96 228.4 12.96 218.28 23.09 208.15 12.96"/>
        <polyline class="cls-1" points="268.04 12.96 272.34 12.96 262.21 23.09 252.09 12.96 256.39 12.96 262.21 18.79"/>
        <polygon class="cls-1" points="295.07 12.96 299.37 12.96 305.19 18.79 311.02 12.96 315.31 12.96 305.19 23.09 295.07 12.96"/>
        <polygon class="cls-1" points="339.32 12.96 343.62 12.96 349.45 18.79 355.27 12.96 359.57 12.96 349.45 23.09 339.32 12.96"/>
        <polygon class="cls-1" points="382.3 12.96 386.6 12.96 392.43 18.79 398.25 12.96 402.55 12.96 392.43 23.09 382.3 12.96"/>
        <polygon class="cls-1" points="426.56 12.96 430.86 12.96 436.68 18.79 442.51 12.96 446.81 12.96 436.68 23.09 426.56 12.96"/>
        <polygon class="cls-1" points="469.54 12.96 473.84 12.96 479.66 18.79 485.49 12.96 489.78 12.96 479.66 23.09 469.54 12.96"/>
        <polygon class="cls-1" points="513.79 12.96 518.09 12.96 523.92 18.79 529.74 12.96 534.04 12.96 523.92 23.09 513.79 12.96"/>
        <polygon class="cls-1" points="556.77 12.96 561.07 12.96 566.9 18.79 572.72 12.96 577.02 12.96 566.9 23.09 556.77 12.96"/>
        <polygon class="cls-1" points="601.03 12.96 605.33 12.96 611.15 18.79 616.98 12.96 621.28 12.96 611.15 23.09 601.03 12.96"/>
        <polygon class="cls-1" points="644.01 12.96 648.31 12.96 654.13 18.79 659.96 12.96 664.25 12.96 654.13 23.09 644.01 12.96"/>
        <polygon class="cls-1" points="688.26 12.96 692.56 12.96 698.39 18.79 704.21 12.96 708.51 12.96 698.39 23.09 688.26 12.96"/>
      </g>
      <g>
        <path class="cls-2" d="M43.81,34.95l-21.81,21.81L.19,34.95,22,13.14l21.81,21.81ZM22,52.46l17.51-17.51-17.51-17.51L4.49,34.95l17.51,17.51Z"/>
        <path class="cls-1" d="M33.68,34.95l-11.68,11.69-11.69-11.69,11.69-11.69,11.68,11.69ZM22,42.34l7.39-7.39-7.39-7.39-7.39,7.39,7.39,7.39Z"/>
      </g>
      <g>
        <path class="cls-1" d="M741.69,34.95l-21.81,21.81-21.81-21.81,21.81-21.81,21.81,21.81ZM719.88,52.46l17.51-17.51-17.51-17.51-17.51,17.51,17.51,17.51Z"/>
        <path class="cls-1" d="M731.56,34.95l-11.69,11.69-11.68-11.69,11.68-11.69,11.69,11.69ZM719.88,42.34l7.39-7.39-7.39-7.39-7.39,7.39,7.39,7.39Z"/>
      </g>
    </g>
    <g>
      <g>
        <path class="cls-2" d="M1308.71,34.95l-21.81,21.81-21.81-21.81,21.81-21.81,21.81,21.81ZM1286.9,52.46l17.51-17.51-17.51-17.51-17.51,17.51,17.51,17.51Z"/>
        <path class="cls-1" d="M1298.59,34.95l-11.69,11.69-11.69-11.69,11.69-11.69,11.69,11.69ZM1286.9,42.34l7.39-7.39-7.39-7.39-7.39,7.39,7.39,7.39Z"/>
      </g>
      <g>
        <path class="cls-2" d="M1265.09,34.95l-21.81,21.81-21.81-21.81,21.81-21.81,21.81,21.81ZM1243.29,52.46l17.51-17.51-17.51-17.51-17.51,17.51,17.51,17.51Z"/>
        <path class="cls-1" d="M1254.97,34.95l-11.69,11.69-11.69-11.69,11.69-11.69,11.69,11.69ZM1243.29,42.34l7.39-7.39-7.39-7.39-7.39,7.39,7.39,7.39Z"/>
      </g>
      <g>
        <path class="cls-2" d="M1221.48,34.95l-21.81,21.81-21.81-21.81,21.81-21.81,21.81,21.81ZM1199.67,52.46l17.51-17.51-17.51-17.51-17.51,17.51,17.51,17.51Z"/>
        <path class="cls-1" d="M1211.35,34.95l-11.69,11.69-11.69-11.69,11.69-11.69,11.69,11.69ZM1199.67,42.34l7.39-7.39-7.39-7.39-7.39,7.39,7.39,7.39Z"/>
      </g>
      <g>
        <path class="cls-2" d="M1177.86,34.95l-21.81,21.81-21.81-21.81,21.81-21.81,21.81,21.81ZM1156.05,52.46l17.51-17.51-17.51-17.51-17.51,17.51,17.51,17.51Z"/>
        <path class="cls-1" d="M1167.74,34.95l-11.69,11.69-11.68-11.69,11.68-11.69,11.69,11.69ZM1156.05,42.34l7.39-7.39-7.39-7.39-7.39,7.39,7.39,7.39Z"/>
      </g>
      <g>
        <path class="cls-2" d="M1134.24,34.95l-21.81,21.81-21.81-21.81,21.81-21.81,21.81,21.81ZM1112.43,52.46l17.51-17.51-17.51-17.51-17.51,17.51,17.51,17.51Z"/>
        <path class="cls-1" d="M1124.12,34.95l-11.69,11.69-11.68-11.69,11.68-11.69,11.69,11.69ZM1112.43,42.34l7.39-7.39-7.39-7.39-7.39,7.39,7.39,7.39Z"/>
      </g>
      <g>
        <path class="cls-2" d="M1090.62,34.95l-21.81,21.81-21.81-21.81,21.81-21.81,21.81,21.81ZM1068.82,52.46l17.51-17.51-17.51-17.51-17.51,17.51,17.51,17.51Z"/>
        <path class="cls-1" d="M1080.5,34.95l-11.69,11.69-11.69-11.69,11.69-11.69,11.69,11.69ZM1068.82,42.34l7.39-7.39-7.39-7.39-7.39,7.39,7.39,7.39Z"/>
      </g>
      <g>
        <path class="cls-2" d="M1047.01,34.95l-21.81,21.81-21.81-21.81,21.81-21.81,21.81,21.81ZM1025.2,52.46l17.51-17.51-17.51-17.51-17.51,17.51,17.51,17.51Z"/>
        <path class="cls-1" d="M1036.88,34.95l-11.69,11.69-11.69-11.69,11.69-11.69,11.69,11.69ZM1025.2,42.34l7.39-7.39-7.39-7.39-7.39,7.39,7.39,7.39Z"/>
      </g>
      <g>
        <path class="cls-2" d="M1003.39,34.95l-21.81,21.81-21.81-21.81,21.81-21.81,21.81,21.81ZM981.58,52.46l17.51-17.51-17.51-17.51-17.51,17.51,17.51,17.51Z"/>
        <path class="cls-1" d="M993.27,34.95l-11.69,11.69-11.68-11.69,11.68-11.69,11.69,11.69ZM981.58,42.34l7.39-7.39-7.39-7.39-7.39,7.39,7.39,7.39Z"/>
      </g>
      <g>
        <path class="cls-2" d="M959.77,34.95l-21.81,21.81-21.81-21.81,21.81-21.81,21.81,21.81ZM937.96,52.46l17.51-17.51-17.51-17.51-17.51,17.51,17.51,17.51Z"/>
        <path class="cls-1" d="M949.65,34.95l-11.69,11.69-11.68-11.69,11.68-11.69,11.69,11.69ZM937.96,42.34l7.39-7.39-7.39-7.39-7.39,7.39,7.39,7.39Z"/>
      </g>
      <g>
        <path class="cls-2" d="M916.15,34.95l-21.81,21.81-21.81-21.81,21.81-21.81,21.81,21.81ZM894.35,52.46l17.51-17.51-17.51-17.51-17.51,17.51,17.51,17.51Z"/>
        <path class="cls-1" d="M906.03,34.95l-11.69,11.69-11.69-11.69,11.69-11.69,11.69,11.69ZM894.35,42.34l7.39-7.39-7.39-7.39-7.39,7.39,7.39,7.39Z"/>
      </g>
      <g>
        <path class="cls-2" d="M872.54,34.95l-21.81,21.81-21.81-21.81,21.81-21.81,21.81,21.81ZM850.73,52.46l17.51-17.51-17.51-17.51-17.51,17.51,17.51,17.51Z"/>
        <path class="cls-1" d="M862.41,34.95l-11.69,11.69-11.69-11.69,11.69-11.69,11.69,11.69ZM850.73,42.34l7.39-7.39-7.39-7.39-7.39,7.39,7.39,7.39Z"/>
      </g>
      <g>
        <path class="cls-2" d="M828.92,34.95l-21.81,21.81-21.81-21.81,21.81-21.81,21.81,21.81ZM807.11,52.46l17.51-17.51-17.51-17.51-17.51,17.51,17.51,17.51Z"/>
        <path class="cls-1" d="M818.8,34.95l-11.69,11.69-11.68-11.69,11.68-11.69,11.69,11.69ZM807.11,42.34l7.39-7.39-7.39-7.39-7.39,7.39,7.39,7.39Z"/>
      </g>
      <g>
        <path class="cls-2" d="M785.3,34.95l-21.81,21.81-21.81-21.81,21.81-21.81,21.81,21.81ZM763.49,52.46l17.51-17.51-17.51-17.51-17.51,17.51,17.51,17.51Z"/>
        <path class="cls-1" d="M775.18,34.95l-11.69,11.69-11.69-11.69,11.69-11.69,11.69,11.69ZM763.49,42.34l7.39-7.39-7.39-7.39-7.39,7.39,7.39,7.39Z"/>
      </g>
      <g>
        <polygon class="cls-1" points="775.82 57.04 780.12 57.04 785.94 51.21 791.77 57.04 796.06 57.04 785.94 46.91 775.82 57.04"/>
        <polygon class="cls-1" points="731.56 57.04 735.86 57.04 741.69 51.21 747.51 57.04 751.81 57.04 741.69 46.91 731.56 57.04"/>
        <polygon class="cls-1" points="818.8 57.04 823.1 57.04 828.92 51.21 834.74 57.04 839.04 57.04 828.92 46.91 818.8 57.04"/>
        <polyline class="cls-1" points="873.18 51.21 879 57.04 883.3 57.04 873.18 46.91 863.05 57.04 867.35 57.04"/>
        <polygon class="cls-1" points="906.03 57.04 910.33 57.04 916.15 51.21 921.98 57.04 926.28 57.04 916.15 46.91 906.03 57.04"/>
        <polygon class="cls-1" points="949.97 57.04 954.27 57.04 960.09 51.21 965.92 57.04 970.22 57.04 960.09 46.91 949.97 57.04"/>
        <polygon class="cls-1" points="992.95 57.04 997.25 57.04 1003.07 51.21 1008.9 57.04 1013.19 57.04 1003.07 46.91 992.95 57.04"/>
        <polygon class="cls-1" points="1037.2 57.04 1041.5 57.04 1047.33 51.21 1053.15 57.04 1057.45 57.04 1047.33 46.91 1037.2 57.04"/>
        <polygon class="cls-1" points="1080.18 57.04 1084.48 57.04 1090.31 51.21 1096.13 57.04 1100.43 57.04 1090.31 46.91 1080.18 57.04"/>
        <polygon class="cls-1" points="1124.44 57.04 1128.74 57.04 1134.56 51.21 1140.39 57.04 1144.69 57.04 1134.56 46.91 1124.44 57.04"/>
        <polygon class="cls-1" points="1167.42 57.04 1171.72 57.04 1177.54 51.21 1183.37 57.04 1187.66 57.04 1177.54 46.91 1167.42 57.04"/>
        <polygon class="cls-1" points="1211.67 57.04 1215.97 57.04 1221.8 51.21 1227.62 57.04 1231.92 57.04 1221.8 46.91 1211.67 57.04"/>
        <polygon class="cls-1" points="1254.65 57.04 1258.95 57.04 1264.78 51.21 1270.6 57.04 1274.9 57.04 1264.78 46.91 1254.65 57.04"/>
        <polygon class="cls-1" points="1298.91 57.04 1303.21 57.04 1309.03 51.21 1314.86 57.04 1319.16 57.04 1309.03 46.91 1298.91 57.04"/>
      </g>
      <g>
        <polygon class="cls-1" points="775.82 12.96 780.12 12.96 785.94 18.79 791.77 12.96 796.06 12.96 785.94 23.09 775.82 12.96"/>
        <polygon class="cls-1" points="731.56 12.96 735.86 12.96 741.69 18.79 747.51 12.96 751.81 12.96 741.69 23.09 731.56 12.96"/>
        <polygon class="cls-1" points="818.8 12.96 823.1 12.96 828.92 18.79 834.74 12.96 839.04 12.96 828.92 23.09 818.8 12.96"/>
        <polygon class="cls-1" points="863.05 12.96 867.35 12.96 873.18 18.79 879 12.96 883.3 12.96 873.18 23.09 863.05 12.96"/>
        <polygon class="cls-1" points="906.03 12.96 910.33 12.96 916.15 18.79 921.98 12.96 926.28 12.96 916.15 23.09 906.03 12.96"/>
        <polyline class="cls-1" points="965.92 12.96 970.22 12.96 960.09 23.09 949.97 12.96 954.27 12.96 960.09 18.79"/>
        <polygon class="cls-1" points="992.95 12.96 997.25 12.96 1003.07 18.79 1008.9 12.96 1013.19 12.96 1003.07 23.09 992.95 12.96"/>
        <polygon class="cls-1" points="1037.2 12.96 1041.5 12.96 1047.33 18.79 1053.15 12.96 1057.45 12.96 1047.33 23.09 1037.2 12.96"/>
        <polygon class="cls-1" points="1080.18 12.96 1084.48 12.96 1090.31 18.79 1096.13 12.96 1100.43 12.96 1090.31 23.09 1080.18 12.96"/>
        <polygon class="cls-1" points="1124.44 12.96 1128.74 12.96 1134.56 18.79 1140.39 12.96 1144.69 12.96 1134.56 23.09 1124.44 12.96"/>
        <polygon class="cls-1" points="1167.42 12.96 1171.72 12.96 1177.54 18.79 1183.37 12.96 1187.66 12.96 1177.54 23.09 1167.42 12.96"/>
        <polygon class="cls-1" points="1211.67 12.96 1215.97 12.96 1221.8 18.79 1227.62 12.96 1231.92 12.96 1221.8 23.09 1211.67 12.96"/>
        <polygon class="cls-1" points="1254.65 12.96 1258.95 12.96 1264.78 18.79 1270.6 12.96 1274.9 12.96 1264.78 23.09 1254.65 12.96"/>
        <polygon class="cls-1" points="1298.91 12.96 1303.21 12.96 1309.03 18.79 1314.86 12.96 1319.16 12.96 1309.03 23.09 1298.91 12.96"/>
      </g>
      <g>
        <path class="cls-2" d="M741.69,34.95l-21.81,21.81-21.81-21.81,21.81-21.81,21.81,21.81ZM719.88,52.46l17.51-17.51-17.51-17.51-17.51,17.51,17.51,17.51Z"/>
        <path class="cls-1" d="M731.56,34.95l-11.69,11.69-11.69-11.69,11.69-11.69,11.69,11.69ZM719.88,42.34l7.39-7.39-7.39-7.39-7.39,7.39,7.39,7.39Z"/>
      </g>
    </g>
  </g>
  <g>
    <g>
      <path class="cls-2" d="M1919.81,34.95l-21.81,21.81-21.81-21.81,21.81-21.81,21.81,21.81ZM1898,52.46l17.51-17.51-17.51-17.51-17.51,17.51,17.51,17.51Z"/>
      <path class="cls-1" d="M1909.69,34.95l-11.69,11.69-11.68-11.69,11.68-11.69,11.69,11.69ZM1898,42.34l7.39-7.39-7.39-7.39-7.39,7.39,7.39,7.39Z"/>
    </g>
    <g>
      <path class="cls-2" d="M1876.19,34.95l-21.81,21.81-21.81-21.81,21.81-21.81,21.81,21.81ZM1854.39,52.46l17.51-17.51-17.51-17.51-17.51,17.51,17.51,17.51Z"/>
      <path class="cls-1" d="M1866.07,34.95l-11.69,11.69-11.68-11.69,11.68-11.69,11.69,11.69ZM1854.39,42.34l7.39-7.39-7.39-7.39-7.39,7.39,7.39,7.39Z"/>
    </g>
    <g>
      <path class="cls-2" d="M1832.58,34.95l-21.81,21.81-21.81-21.81,21.81-21.81,21.81,21.81ZM1810.77,52.46l17.51-17.51-17.51-17.51-17.51,17.51,17.51,17.51Z"/>
      <path class="cls-1" d="M1822.45,34.95l-11.68,11.69-11.69-11.69,11.69-11.69,11.68,11.69ZM1810.77,42.34l7.39-7.39-7.39-7.39-7.39,7.39,7.39,7.39Z"/>
    </g>
    <g>
      <path class="cls-2" d="M1788.96,34.95l-21.81,21.81-21.81-21.81,21.81-21.81,21.81,21.81ZM1767.15,52.46l17.51-17.51-17.51-17.51-17.51,17.51,17.51,17.51Z"/>
      <path class="cls-1" d="M1778.84,34.95l-11.69,11.69-11.69-11.69,11.69-11.69,11.69,11.69ZM1767.15,42.34l7.39-7.39-7.39-7.39-7.39,7.39,7.39,7.39Z"/>
    </g>
    <g>
      <path class="cls-2" d="M1745.34,34.95l-21.81,21.81-21.81-21.81,21.81-21.81,21.81,21.81ZM1723.53,52.46l17.51-17.51-17.51-17.51-17.51,17.51,17.51,17.51Z"/>
      <path class="cls-1" d="M1735.22,34.95l-11.69,11.69-11.69-11.69,11.69-11.69,11.69,11.69ZM1723.53,42.34l7.39-7.39-7.39-7.39-7.39,7.39,7.39,7.39Z"/>
    </g>
    <g>
      <path class="cls-2" d="M1701.72,34.95l-21.81,21.81-21.81-21.81,21.81-21.81,21.81,21.81ZM1679.92,52.46l17.51-17.51-17.51-17.51-17.51,17.51,17.51,17.51Z"/>
      <path class="cls-1" d="M1691.6,34.95l-11.69,11.69-11.68-11.69,11.68-11.69,11.69,11.69ZM1679.92,42.34l7.39-7.39-7.39-7.39-7.39,7.39,7.39,7.39Z"/>
    </g>
    <g>
      <path class="cls-2" d="M1658.11,34.95l-21.81,21.81-21.81-21.81,21.81-21.81,21.81,21.81ZM1636.3,52.46l17.51-17.51-17.51-17.51-17.51,17.51,17.51,17.51Z"/>
      <path class="cls-1" d="M1647.98,34.95l-11.69,11.69-11.68-11.69,11.68-11.69,11.69,11.69ZM1636.3,42.34l7.39-7.39-7.39-7.39-7.39,7.39,7.39,7.39Z"/>
    </g>
    <g>
      <path class="cls-2" d="M1614.49,34.95l-21.81,21.81-21.81-21.81,21.81-21.81,21.81,21.81ZM1592.68,52.46l17.51-17.51-17.51-17.51-17.51,17.51,17.51,17.51Z"/>
      <path class="cls-1" d="M1604.37,34.95l-11.69,11.69-11.68-11.69,11.68-11.69,11.69,11.69ZM1592.68,42.34l7.39-7.39-7.39-7.39-7.39,7.39,7.39,7.39Z"/>
    </g>
    <g>
      <path class="cls-2" d="M1570.87,34.95l-21.81,21.81-21.81-21.81,21.81-21.81,21.81,21.81ZM1549.06,52.46l17.51-17.51-17.51-17.51-17.51,17.51,17.51,17.51Z"/>
      <path class="cls-1" d="M1560.75,34.95l-11.69,11.69-11.69-11.69,11.69-11.69,11.69,11.69ZM1549.06,42.34l7.39-7.39-7.39-7.39-7.39,7.39,7.39,7.39Z"/>
    </g>
    <g>
      <path class="cls-2" d="M1527.25,34.95l-21.81,21.81-21.81-21.81,21.81-21.81,21.81,21.81ZM1505.45,52.46l17.51-17.51-17.51-17.51-17.51,17.51,17.51,17.51Z"/>
      <path class="cls-1" d="M1517.13,34.95l-11.69,11.69-11.69-11.69,11.69-11.69,11.69,11.69ZM1505.45,42.34l7.39-7.39-7.39-7.39-7.39,7.39,7.39,7.39Z"/>
    </g>
    <g>
      <path class="cls-2" d="M1483.64,34.95l-21.81,21.81-21.81-21.81,21.81-21.81,21.81,21.81ZM1461.83,52.46l17.51-17.51-17.51-17.51-17.51,17.51,17.51,17.51Z"/>
      <path class="cls-1" d="M1473.51,34.95l-11.69,11.69-11.68-11.69,11.68-11.69,11.69,11.69ZM1461.83,42.34l7.39-7.39-7.39-7.39-7.39,7.39,7.39,7.39Z"/>
    </g>
    <g>
      <path class="cls-2" d="M1440.02,34.95l-21.81,21.81-21.81-21.81,21.81-21.81,21.81,21.81ZM1418.21,52.46l17.51-17.51-17.51-17.51-17.51,17.51,17.51,17.51Z"/>
      <path class="cls-1" d="M1429.9,34.95l-11.69,11.69-11.68-11.69,11.68-11.69,11.69,11.69ZM1418.21,42.34l7.39-7.39-7.39-7.39-7.39,7.39,7.39,7.39Z"/>
    </g>
    <g>
      <path class="cls-2" d="M1396.4,34.95l-21.81,21.81-21.81-21.81,21.81-21.81,21.81,21.81ZM1374.59,52.46l17.51-17.51-17.51-17.51-17.51,17.51,17.51,17.51Z"/>
      <path class="cls-1" d="M1386.28,34.95l-11.69,11.69-11.69-11.69,11.69-11.69,11.69,11.69ZM1374.59,42.34l7.39-7.39-7.39-7.39-7.39,7.39,7.39,7.39Z"/>
    </g>
    <g>
      <polygon class="cls-1" points="1386.92 57.04 1391.22 57.04 1397.04 51.21 1402.86 57.04 1407.16 57.04 1397.04 46.91 1386.92 57.04"/>
      <polygon class="cls-1" points="1342.66 57.04 1346.96 57.04 1352.78 51.21 1358.61 57.04 1362.91 57.04 1352.78 46.91 1342.66 57.04"/>
      <polygon class="cls-1" points="1299.04 57.04 1303.34 57.04 1309.17 51.21 1314.99 57.04 1319.29 57.04 1309.17 46.91 1299.04 57.04"/>
      <polygon class="cls-1" points="1429.9 57.04 1434.2 57.04 1440.02 51.21 1445.84 57.04 1450.14 57.04 1440.02 46.91 1429.9 57.04"/>
      <polyline class="cls-1" points="1484.28 51.21 1490.1 57.04 1494.4 57.04 1484.28 46.91 1474.15 57.04 1478.45 57.04"/>
      <polygon class="cls-1" points="1517.13 57.04 1521.43 57.04 1527.25 51.21 1533.08 57.04 1537.38 57.04 1527.25 46.91 1517.13 57.04"/>
      <polygon class="cls-1" points="1561.07 57.04 1565.37 57.04 1571.19 51.21 1577.02 57.04 1581.32 57.04 1571.19 46.91 1561.07 57.04"/>
      <polygon class="cls-1" points="1604.05 57.04 1608.35 57.04 1614.17 51.21 1620 57.04 1624.29 57.04 1614.17 46.91 1604.05 57.04"/>
      <polygon class="cls-1" points="1648.3 57.04 1652.6 57.04 1658.43 51.21 1664.25 57.04 1668.55 57.04 1658.43 46.91 1648.3 57.04"/>
      <polygon class="cls-1" points="1691.28 57.04 1695.58 57.04 1701.41 51.21 1707.23 57.04 1711.53 57.04 1701.41 46.91 1691.28 57.04"/>
      <polygon class="cls-1" points="1735.54 57.04 1739.84 57.04 1745.66 51.21 1751.49 57.04 1755.79 57.04 1745.66 46.91 1735.54 57.04"/>
      <polygon class="cls-1" points="1778.52 57.04 1782.82 57.04 1788.64 51.21 1794.46 57.04 1798.76 57.04 1788.64 46.91 1778.52 57.04"/>
      <polygon class="cls-1" points="1822.77 57.04 1827.07 57.04 1832.9 51.21 1838.72 57.04 1843.02 57.04 1832.9 46.91 1822.77 57.04"/>
      <polygon class="cls-1" points="1865.75 57.04 1870.05 57.04 1875.88 51.21 1881.7 57.04 1886 57.04 1875.88 46.91 1865.75 57.04"/>
    </g>
    <g>
      <polygon class="cls-1" points="1386.92 12.96 1391.22 12.96 1397.04 18.79 1402.86 12.96 1407.16 12.96 1397.04 23.09 1386.92 12.96"/>
      <polygon class="cls-1" points="1342.66 12.96 1346.96 12.96 1352.78 18.79 1358.61 12.96 1362.91 12.96 1352.78 23.09 1342.66 12.96"/>
      <polygon class="cls-1" points="1299.04 12.96 1303.34 12.96 1309.17 18.79 1314.99 12.96 1319.29 12.96 1309.17 23.09 1299.04 12.96"/>
      <polygon class="cls-1" points="1429.9 12.96 1434.2 12.96 1440.02 18.79 1445.84 12.96 1450.14 12.96 1440.02 23.09 1429.9 12.96"/>
      <polygon class="cls-1" points="1474.15 12.96 1478.45 12.96 1484.28 18.79 1490.1 12.96 1494.4 12.96 1484.28 23.09 1474.15 12.96"/>
      <polygon class="cls-1" points="1517.13 12.96 1521.43 12.96 1527.25 18.79 1533.08 12.96 1537.38 12.96 1527.25 23.09 1517.13 12.96"/>
      <polyline class="cls-1" points="1577.02 12.96 1581.32 12.96 1571.19 23.09 1561.07 12.96 1565.37 12.96 1571.19 18.79"/>
      <polygon class="cls-1" points="1604.05 12.96 1608.35 12.96 1614.17 18.79 1620 12.96 1624.29 12.96 1614.17 23.09 1604.05 12.96"/>
      <polygon class="cls-1" points="1648.3 12.96 1652.6 12.96 1658.43 18.79 1664.25 12.96 1668.55 12.96 1658.43 23.09 1648.3 12.96"/>
      <polygon class="cls-1" points="1691.28 12.96 1695.58 12.96 1701.41 18.79 1707.23 12.96 1711.53 12.96 1701.41 23.09 1691.28 12.96"/>
      <polygon class="cls-1" points="1735.54 12.96 1739.84 12.96 1745.66 18.79 1751.49 12.96 1755.79 12.96 1745.66 23.09 1735.54 12.96"/>
      <polygon class="cls-1" points="1778.52 12.96 1782.82 12.96 1788.64 18.79 1794.46 12.96 1798.76 12.96 1788.64 23.09 1778.52 12.96"/>
      <polygon class="cls-1" points="1822.77 12.96 1827.07 12.96 1832.9 18.79 1838.72 12.96 1843.02 12.96 1832.9 23.09 1822.77 12.96"/>
      <polygon class="cls-1" points="1865.75 12.96 1870.05 12.96 1875.88 18.79 1881.7 12.96 1886 12.96 1875.88 23.09 1865.75 12.96"/>
    </g>
    <g>
      <path class="cls-2" d="M1352.78,34.95l-21.81,21.81-21.81-21.81,21.81-21.81,21.81,21.81ZM1330.98,52.46l17.51-17.51-17.51-17.51-17.51,17.51,17.51,17.51Z"/>
      <path class="cls-1" d="M1342.66,34.95l-11.68,11.69-11.69-11.69,11.69-11.69,11.68,11.69ZM1330.98,42.34l7.39-7.39-7.39-7.39-7.39,7.39,7.39,7.39Z"/>
    </g>
  </g>
</svg>